<svg width="65" height="66" viewBox="0 0 65 66" fill="none" xmlns="http://www.w3.org/2000/svg">
<path id="Vector" d="M55.9819 45.47C54.7564 43.0564 51.9977 40.3629 48.6361 38.3428C52.5351 38.699 56.3518 38.152 58.7722 36.923C64.4861 34.0305 66.3814 26.2879 62.0939 17.8441C57.9406 9.66456 50.4371 6.36193 44.7267 9.26144C42.3132 10.4869 39.6196 13.2457 37.5996 16.6073C37.9557 12.7083 37.4053 8.88464 36.1798 6.47112C33.2803 0.760752 25.5447 -1.13801 17.0939 3.15298C8.92133 7.3027 5.61175 14.8098 8.51126 20.5201C9.73676 22.9337 12.4955 25.6273 15.8571 27.6473C11.9581 27.2912 8.14142 27.8381 5.72095 29.0671C0.0105805 31.9666 -1.88465 39.7091 2.40281 48.153C6.55607 56.3325 14.0596 59.6351 19.77 56.7356C22.1835 55.5101 24.8771 52.7514 26.8971 49.3898C26.541 53.2888 27.0914 57.1124 28.3169 59.5259C31.2165 65.2363 38.959 67.1316 47.4028 62.8441C55.5788 58.6839 58.885 51.1873 55.9819 45.47Z" fill="#8C7AFF"/>
</svg>
