<svg width="121" height="121" viewBox="0 0 121 121" fill="none" xmlns="http://www.w3.org/2000/svg">
<g id="Frame" clip-path="url(#clip0_255_3345)">
<path id="Vector" d="M73.5763 46.9369C76.0774 30.3183 78.1177 0.0263672 59.6726 0.0263672C41.1946 0.0263672 44.0905 30.4335 47.0358 47.0356C30.4336 44.0904 0.0263672 41.1945 0.0263672 59.6724C0.0263672 78.1009 30.3184 76.0771 46.9371 73.5761C44.0247 90.2934 41.4085 120.026 59.6726 120.026C77.9038 120.026 76.1103 90.3921 73.6586 73.6583C90.3925 76.1264 120.026 77.9035 120.026 59.6724C120.026 41.4084 90.2937 44.0246 73.5763 46.9369ZM30.0223 61.6962C24.0988 61.6962 19.3106 60.9393 19.3106 60.0179C19.3106 59.0965 24.1152 58.3396 30.0223 58.3396C35.9457 58.3396 40.7339 59.0965 40.7339 60.0179C40.7339 60.9558 35.9457 61.6962 30.0223 61.6962ZM60.0346 100.742C59.1132 100.742 58.3563 95.9371 58.3563 90.0301C58.3563 84.1067 59.1132 79.3185 60.0346 79.3185C60.956 79.3185 61.7129 84.1231 61.7129 90.0301C61.6965 95.9371 60.956 100.742 60.0346 100.742ZM60.0346 40.7337C59.1132 40.7337 58.3563 35.9291 58.3563 30.0221C58.3563 24.1151 59.1132 19.3105 60.0346 19.3105C60.956 19.3105 61.7129 24.1151 61.7129 30.0221C61.7129 35.9291 60.956 40.7337 60.0346 40.7337ZM90.0305 61.6962C84.107 61.6962 79.3188 60.9393 79.3188 60.0179C79.3188 59.0965 84.1234 58.3396 90.0305 58.3396C95.9375 58.3396 100.742 59.0965 100.742 60.0179C100.742 60.9558 95.9375 61.6962 90.0305 61.6962Z" fill="url(#paint0_linear_255_3345)"/>
</g>
<defs>
<linearGradient id="paint0_linear_255_3345" x1="60.0264" y1="0.0263672" x2="60.0264" y2="120.026" gradientUnits="userSpaceOnUse">
<stop stop-color="#2ED06E"/>
<stop offset="0.713542" stop-color="#FF9CDD"/>
</linearGradient>
<clipPath id="clip0_255_3345">
<rect width="120" height="120" fill="white" transform="translate(0.0263672 0.0263672)"/>
</clipPath>
</defs>
</svg>
