<svg width="113" height="113" viewBox="0 0 113 113" fill="none" xmlns="http://www.w3.org/2000/svg">
<g id="&#236;&#138;&#164;&#235;&#167;&#136;&#236;&#157;&#188;1">
<g id="Group 50">
<path id="Vector" d="M56.5 113C87.7041 113 113 87.7041 113 56.5C113 25.2959 87.7041 0 56.5 0C25.2959 0 0 25.2959 0 56.5C0 87.7041 25.2959 113 56.5 113Z" fill="#FED847"/>
<g id="Group">
<path id="Vector_2" d="M67.0819 66.392C73.1106 66.392 77.9978 58.7509 77.9978 49.3252C77.9978 39.8994 73.1106 32.2583 67.0819 32.2583C61.0532 32.2583 56.166 39.8994 56.166 49.3252C56.166 58.7509 61.0532 66.392 67.0819 66.392Z" fill="white" stroke="#0E0E0E" stroke-width="2.51111" stroke-miterlimit="10"/>
<path id="Vector_3" d="M72.3291 53.7816C72.3291 47.9477 68.7146 43.21 64.2486 43.21C60.2627 43.21 56.9653 46.9875 56.2949 51.9517C56.766 56.6805 58.469 60.7751 60.8878 63.3749C61.9114 63.9909 63.0438 64.3442 64.2486 64.3442C68.7146 64.3442 72.3291 59.6155 72.3291 53.7816Z" fill="#0E0E0E"/>
<path id="Vector_4" d="M66.585 50.7291C67.8358 50.7291 68.8497 49.7152 68.8497 48.4644C68.8497 47.2137 67.8358 46.1997 66.585 46.1997C65.3343 46.1997 64.3203 47.2137 64.3203 48.4644C64.3203 49.7152 65.3343 50.7291 66.585 50.7291Z" fill="white"/>
</g>
<g id="Group_2">
<path id="Vector_5" d="M45.4452 66.392C51.4739 66.392 56.3611 58.7509 56.3611 49.3252C56.3611 39.8994 51.4739 32.2583 45.4452 32.2583C39.4165 32.2583 34.5293 39.8994 34.5293 49.3252C34.5293 58.7509 39.4165 66.392 45.4452 66.392Z" fill="white" stroke="#0E0E0E" stroke-width="2.51111" stroke-miterlimit="10"/>
<path id="Vector_6" d="M50.6924 53.7821C50.6924 47.9482 47.0779 43.2104 42.6119 43.2104C38.626 43.2104 35.3286 46.988 34.6582 51.9522C35.1293 56.6809 36.8323 60.7755 39.251 63.3754C40.2747 63.9914 41.407 64.3447 42.6119 64.3447C47.0779 64.3447 50.6924 59.616 50.6924 53.7821Z" fill="#0E0E0E"/>
<path id="Vector_7" d="M44.8389 50.7291C46.0897 50.7291 47.1036 49.7152 47.1036 48.4644C47.1036 47.2137 46.0897 46.1997 44.8389 46.1997C43.5882 46.1997 42.5742 47.2137 42.5742 48.4644C42.5742 49.7152 43.5882 50.7291 44.8389 50.7291Z" fill="white"/>
</g>
<path id="Vector_8" d="M91.9384 72.3711C55.4341 102.894 27.0473 78.1147 20.8359 71.8179" stroke="#0E0E0E" stroke-width="2.51111" stroke-miterlimit="10"/>
</g>
<path id="Vector 6" d="M20.8342 62.5063C22.1931 67.4887 22.1931 76.5476 11.7754 78.8123" stroke="#0E0E0E" stroke-width="2.51111" stroke-linecap="round"/>
<path id="Vector 7" d="M91.1443 62.5059C89.7855 67.4882 89.7855 76.5471 100.203 78.8118" stroke="#0E0E0E" stroke-width="2.51111" stroke-linecap="round"/>
</g>
</svg>
