<svg width="167" height="167" viewBox="0 0 167 167" fill="none" xmlns="http://www.w3.org/2000/svg">
<g id="Frame" clip-path="url(#clip0_390_13344)">
<path id="Vector" d="M101.817 79.9662C113.164 67.57 131.758 43.5695 116.451 33.2784C101.116 22.969 86.5545 49.8192 79.7359 65.2404C67.6012 53.5333 43.9823 34.1649 33.6729 49.4995C23.3911 64.7932 49.6592 80.0144 64.8463 87.2109C53.1022 99.4595 34.3424 122.675 49.4996 132.865C64.6294 143.036 79.6746 117.443 86.9763 102.188C99.4865 113.572 123.088 131.581 133.259 116.451C143.45 101.294 117.315 86.8764 101.817 79.9662ZM57.437 67.9147C52.5211 64.6098 48.9698 61.3102 49.4839 60.5455C49.998 59.7808 54.4076 61.8333 59.3097 65.1291C64.2256 68.4339 67.7769 71.7335 67.2628 72.4982C66.7395 73.2765 62.3528 71.2196 57.437 67.9147ZM60.5592 117.063C59.7945 116.549 61.847 112.139 65.1427 107.237C68.4476 102.321 71.7472 98.7699 72.5118 99.284C73.2765 99.7981 71.224 104.208 67.9283 109.11C64.619 114.003 61.3239 117.577 60.5592 117.063ZM94.0394 67.2629C93.2748 66.7488 95.3273 62.3393 98.6229 57.4371C101.919 52.535 105.227 48.97 105.992 49.4841C106.757 49.9982 104.704 54.4077 101.409 59.3099C98.1129 64.2121 94.8041 67.777 94.0394 67.2629ZM107.237 101.395C102.321 98.0902 98.7699 94.7906 99.284 94.0259C99.7981 93.2612 104.208 95.3137 109.11 98.6094C114.012 101.905 117.577 105.214 117.063 105.979C116.54 106.757 112.139 104.691 107.237 101.395Z" fill="url(#paint0_linear_390_13344)"/>
</g>
<defs>
<linearGradient id="paint0_linear_390_13344" x1="116.744" y1="33.4758" x2="49.7932" y2="133.062" gradientUnits="userSpaceOnUse">
<stop stop-color="#2ED06E"/>
<stop offset="0.0001" stop-color="#2ED06E"/>
<stop offset="0.375" stop-color="#48D48E"/>
<stop offset="0.713542" stop-color="#FF9CDD"/>
</linearGradient>
<clipPath id="clip0_390_13344">
<rect width="120" height="120" fill="white" transform="translate(66.9512) rotate(33.9127)"/>
</clipPath>
</defs>
</svg>
