<svg width="130" height="125" viewBox="0 0 130 125" fill="none" xmlns="http://www.w3.org/2000/svg">
<g clip-path="url(#clip0_527_3515)">
<path d="M64.9524 124.227C63.1295 124.227 61.3067 123.747 59.6757 122.788C2.49485 91.1275 -0.0955623 51.6958 0.000378668 43.3489C0.000378668 43.253 0.000378668 43.157 0.000378668 43.0611C0.000378668 19.5556 17.2697 1.13489 39.4321 0.943012C46.052 0.559248 55.934 2.19024 64.4727 8.52235C70.8048 3.91718 79.1517 0.943012 90.1849 0.943012C112.539 0.943012 130 19.4596 130 43.0611C130 43.157 130 43.253 130 43.3489C130.096 51.6958 127.506 91.1275 70.2292 122.788C68.9819 123.46 67.6388 123.939 66.2956 124.131C65.8159 124.131 65.4321 124.227 64.9524 124.227ZM20.3399 42.9652C20.3399 43.0611 20.3399 43.253 20.3399 43.3489C20.3399 43.4449 20.3399 43.5408 20.3399 43.6367C20.2439 46.9947 20.8196 76.0648 64.9524 102.353C109.085 76.1607 109.661 46.9947 109.565 43.6367C109.565 43.5408 109.565 43.3489 109.565 43.253V42.9652C109.565 28.8618 99.4912 21.2825 90.0889 21.2825C84.4284 21.2825 80.207 22.6257 77.041 24.6404C78.7679 28.7659 80.1111 33.467 80.7827 39.0316C80.7827 39.3194 80.8786 39.7032 80.8786 39.991C80.9746 42.7733 80.8786 52.1755 75.2181 58.0279C72.4358 61.002 68.6941 62.633 64.5687 62.729C60.2513 62.729 56.1258 61.098 53.1517 58.0279C47.2993 51.9836 47.2993 42.2936 47.3952 39.5113C47.3952 39.4153 47.3952 39.4153 47.3952 39.3194C47.683 35.1939 48.8343 29.8212 51.3288 24.4485C50.8491 24.1607 50.3694 23.8729 49.8897 23.5851C45.3805 21.2825 40.8712 21.3784 40.3915 21.3784C40.1037 21.3784 40.0078 21.3784 39.7199 21.3784C30.4137 21.2825 20.4358 28.8618 20.3399 42.9652Z" fill="#2ED06E"/>
<path d="M84.907 16.1018C84.3314 16.1978 83.7557 16.1018 83.276 15.91C82.7963 15.7181 82.3166 15.5262 81.9329 15.1424C81.5491 14.7587 81.2613 14.3749 80.9735 13.7993C80.6856 13.2236 80.5897 12.7439 80.5897 12.0723C80.4937 11.1129 80.5897 10.3454 80.8775 9.6738C81.1653 9.00222 81.5491 8.42657 82.1247 8.04281C82.7004 7.65904 83.372 7.37122 84.1395 7.27528C85.0989 7.17934 85.8664 7.37122 86.538 7.75499C87.2096 8.13875 87.5934 8.7144 87.9771 9.48192L86.9218 9.76975C86.7299 9.29004 86.3461 8.90628 85.9624 8.61845C85.4827 8.33063 85.003 8.23469 84.4273 8.33063C83.7557 8.42657 83.276 8.61845 82.8923 8.90628C82.5085 9.1941 82.2207 9.6738 82.0288 10.2495C81.8369 10.8251 81.8369 11.4007 81.8369 12.0723C81.9329 12.7439 82.0288 13.3196 82.3166 13.7993C82.6045 14.279 82.9882 14.6627 83.372 14.9506C83.8517 15.2384 84.3314 15.3343 85.003 15.2384C85.5786 15.1424 86.0583 15.0465 86.3461 14.7587C86.7299 14.4709 86.9218 14.183 87.1137 13.7033C87.3056 13.3196 87.4015 12.7439 87.3056 12.1683L85.4827 12.3602L85.3867 11.4967L88.3609 11.2089C88.3609 11.3048 88.3609 11.4007 88.3609 11.4967C88.3609 11.5926 88.3609 11.6886 88.3609 11.6886C88.4568 12.4561 88.3609 13.2236 88.0731 13.7993C87.8812 14.4709 87.4974 14.9506 86.9218 15.3343C86.4421 15.814 85.7705 16.0059 84.907 16.1018Z" fill="#FFFCF3"/>
<path d="M93.0631 16.1978C92.1996 16.1018 91.5281 15.814 90.9524 15.3343C90.3768 14.8546 89.993 14.279 89.8011 13.6074C89.6092 12.9358 89.5133 12.0723 89.7052 11.2089C89.8971 10.3454 90.0889 9.57786 90.4727 9.00222C90.8565 8.42657 91.4321 7.94687 92.0078 7.65904C92.5834 7.37122 93.4469 7.27528 94.2144 7.37122C95.0779 7.46716 95.7495 7.75498 96.3251 8.23469C96.9008 8.71439 97.2845 9.29004 97.4764 9.96163C97.6683 10.6332 97.7642 11.4967 97.5723 12.3602C97.4764 13.2236 97.1886 13.9911 96.8048 14.5668C96.421 15.1424 95.8454 15.6221 95.2698 15.91C94.6941 16.1978 93.9266 16.3897 93.0631 16.1978ZM93.1591 15.2384C93.8306 15.3343 94.3103 15.2384 94.7901 15.0465C95.2698 14.8546 95.6535 14.4709 95.9413 13.9911C96.2292 13.5114 96.421 12.9358 96.517 12.2642C96.6129 11.5926 96.6129 11.017 96.421 10.4413C96.2292 9.86569 96.0373 9.48192 95.6535 9.09816C95.2698 8.71439 94.79 8.52251 94.1185 8.42657C93.4469 8.33063 92.9672 8.42657 92.4875 8.61845C92.0078 8.81034 91.624 9.1941 91.3362 9.6738C91.0483 10.1535 90.8565 10.7292 90.7605 11.4007C90.6646 12.0723 90.6646 12.648 90.8565 13.2236C90.9524 13.7993 91.2402 14.183 91.624 14.5668C92.0078 14.9506 92.4875 15.1424 93.1591 15.2384Z" fill="#FFFCF3"/>
<path d="M100.738 18.5963C99.9706 18.2125 99.395 17.7328 99.0112 17.1572C98.6274 16.5815 98.4355 15.91 98.4355 15.1424C98.4355 14.3749 98.6274 13.6074 99.0112 12.8399C99.395 12.0723 99.8747 11.4007 100.45 10.921C101.026 10.4413 101.698 10.1535 102.369 10.1535C103.041 10.1535 103.808 10.2494 104.576 10.6332C105.343 11.017 105.919 11.4967 106.303 12.0723C106.686 12.648 106.878 13.3196 106.878 14.0871C106.878 14.8546 106.686 15.6221 106.303 16.3897C105.919 17.1572 105.439 17.8288 104.864 18.3085C104.288 18.7882 103.616 19.076 102.945 19.076C102.273 19.076 101.506 18.9801 100.738 18.5963ZM101.122 17.6369C101.698 17.9247 102.273 18.0207 102.753 17.9247C103.233 17.8288 103.712 17.6369 104.192 17.2531C104.576 16.8694 104.96 16.3897 105.247 15.814C105.535 15.2384 105.727 14.5668 105.727 14.0871C105.727 13.6074 105.631 13.0317 105.439 12.552C105.247 12.0723 104.768 11.6886 104.192 11.4007C103.616 11.1129 103.041 11.017 102.561 11.1129C102.081 11.2089 101.602 11.4007 101.122 11.7845C100.738 12.1683 100.354 12.648 100.067 13.2236C99.7787 13.7993 99.5868 14.3749 99.5868 14.9506C99.5868 15.5262 99.6828 16.0059 99.9706 16.4856C100.162 16.9653 100.546 17.3491 101.122 17.6369Z" fill="#FFFCF3"/>
<path d="M104.863 20.6111L110.908 14.4708L112.826 16.2937C112.922 16.3897 113.018 16.4856 113.114 16.5815C113.306 16.7734 113.402 16.8694 113.498 17.0613C113.882 17.6369 114.17 18.1166 114.17 18.7882C114.17 19.3638 114.074 19.9395 113.882 20.6111C113.594 21.1867 113.21 21.7624 112.73 22.338C112.251 22.9137 111.675 23.2974 111.099 23.5852C110.524 23.8731 109.948 23.969 109.277 23.969C108.701 23.969 108.125 23.6812 107.55 23.2974C107.358 23.2015 107.262 23.0096 107.07 22.9137C106.878 22.7218 106.782 22.6258 106.782 22.6258L104.863 20.6111ZM106.302 20.707L107.454 21.7624C107.55 21.8583 107.646 21.9542 107.837 22.1461C107.933 22.2421 108.125 22.338 108.221 22.4339C108.605 22.7218 108.989 22.8177 109.468 22.8177C109.948 22.8177 110.332 22.7218 110.716 22.4339C111.099 22.2421 111.483 21.8583 111.867 21.4745C112.251 21.0908 112.539 20.707 112.73 20.2273C112.922 19.8435 113.018 19.3638 113.018 18.9801C113.018 18.5963 112.922 18.1166 112.634 17.7328C112.539 17.6369 112.443 17.445 112.347 17.3491C112.251 17.2531 112.059 17.0613 111.963 16.9653L110.812 15.91L106.302 20.707Z" fill="#FFFCF3"/>
<path d="M114.744 37.5926C114.552 36.7292 114.648 35.9616 114.84 35.2901C115.128 34.6185 115.512 34.0428 116.087 33.6591C116.663 33.1793 117.431 32.8915 118.294 32.6996C119.158 32.5078 119.925 32.5078 120.693 32.6996C121.46 32.8915 122.036 33.1793 122.515 33.755C122.995 34.2347 123.379 34.9063 123.475 35.7698C123.667 36.7292 123.571 37.5926 123.187 38.3602C122.803 39.1277 122.228 39.7033 121.46 40.0871L120.98 39.0317C121.556 38.7439 122.036 38.3602 122.324 37.7845C122.611 37.2089 122.611 36.6332 122.515 35.9616C122.42 35.29 122.132 34.8103 121.748 34.4266C121.364 34.0428 120.884 33.8509 120.405 33.755C119.829 33.6591 119.253 33.6591 118.582 33.755C117.91 33.8509 117.335 34.1388 116.855 34.4266C116.375 34.7144 116.087 35.0982 115.896 35.5779C115.704 36.0576 115.704 36.6332 115.8 37.2089C115.991 37.8805 116.279 38.4561 116.663 38.8399C117.047 39.2236 117.718 39.4155 118.294 39.4155L118.198 40.5668C117.335 40.4709 116.567 40.183 115.896 39.7033C115.32 39.3196 114.936 38.648 114.744 37.5926Z" fill="#FFFCF3"/>
<path d="M115.513 47.3786L119.063 45.7476L119.35 46.803L115.513 48.6258V47.3786ZM115.609 42.1978L124.243 42.3897L124.147 45.8435C124.147 45.9395 124.147 46.0354 124.147 46.1314C124.147 46.2273 124.147 46.3232 124.147 46.4192C124.051 46.8989 123.86 47.2827 123.668 47.5705C123.38 47.8583 123.092 48.1461 122.708 48.2421C122.325 48.4339 121.941 48.4339 121.461 48.4339C120.789 48.4339 120.214 48.2421 119.734 47.8583C119.254 47.4745 118.967 46.9948 118.871 46.3232L118.775 45.9395L118.871 43.2531L115.705 43.1572L115.609 42.1978ZM119.83 43.3491L119.734 45.6517C119.734 45.7476 119.734 45.8435 119.734 45.9395C119.734 46.0354 119.734 46.1314 119.734 46.2273C119.83 46.5151 119.926 46.707 120.022 46.8989C120.214 47.0908 120.406 47.1867 120.598 47.2827C120.789 47.3786 121.077 47.3786 121.269 47.3786C121.461 47.3786 121.749 47.3786 121.941 47.2827C122.133 47.1867 122.42 47.0908 122.516 46.8989C122.708 46.707 122.804 46.5151 122.9 46.2273C122.9 46.1314 122.9 46.0354 122.996 45.9395C122.996 45.8435 122.996 45.7476 122.996 45.6517L123.092 43.3491H119.83Z" fill="#FFFCF3"/>
<path d="M115.321 49.5853L123.764 51.2163L122.708 56.5889L121.749 56.3971L122.612 52.0797L119.926 51.6L119.254 55.2458L118.295 55.0539L118.966 51.4081L116.184 50.8325L115.321 55.1498L114.361 54.958L115.321 49.5853Z" fill="#FFFCF3"/>
<path d="M114.17 55.4377L121.366 60.9063L120.886 62.3454H111.771L112.155 61.2901H120.598L120.502 61.5779L113.786 56.493L114.17 55.4377ZM115.609 57.4524L116.569 57.7402L115.129 61.9616L114.17 61.6738L115.609 57.4524Z" fill="#FFFCF3"/>
<path d="M110.811 64.552L117.719 67.7181L118.966 65.0317L119.926 65.4155L117.048 71.7476L116.088 71.3638L117.335 68.6775L110.428 65.5114L110.811 64.552Z" fill="#FFFCF3"/>
<path d="M108.605 68.9653L116.184 73.0908L115.704 74.0502L108.125 69.9247L108.605 68.9653Z" fill="#FFFCF3"/>
<path d="M106.111 73.1867L114.938 75.3934L114.362 76.3528L106.687 74.4339L111.58 80.6701L111.004 81.6295L105.344 74.5299L106.111 73.1867Z" fill="#FFFCF3"/>
<path d="M103.328 77.4081L110.14 82.6849L106.782 87.0022L106.015 86.4266L108.701 82.9727L106.59 81.3417L104.288 84.2199L103.52 83.6443L105.823 80.7661L103.52 79.0391L100.834 82.493L100.066 81.9173L103.328 77.4081Z" fill="#FFFCF3"/>
<path d="M89.0334 92.7587L94.5021 99.3786L93.6386 100.05L88.7456 94.1978L85.6755 96.7882L85.0039 96.0207L89.0334 92.7587Z" fill="#FFFCF3"/>
<path d="M84.4279 96.5963L89.6087 103.504L85.1955 106.766L84.6198 105.999L88.1696 103.408L86.5386 101.297L83.5645 103.504L82.9888 102.737L85.963 100.53L84.2361 98.2273L80.5903 100.626L80.0146 99.8583L84.4279 96.5963Z" fill="#FFFCF3"/>
<path d="M77.041 101.873L81.2624 108.205L83.7568 106.574L84.3325 107.438L78.576 111.275L78.0004 110.412L80.4948 108.781L76.2734 102.449L77.041 101.873Z" fill="#FFFCF3"/>
<path d="M76.3696 109.932L77.5209 111.755L76.5615 112.331L75.4102 110.508L76.3696 109.932Z" fill="#FFFCF3"/>
<path d="M68.5977 106.478C69.1734 106.286 69.749 106.19 70.2287 106.286C70.8043 106.286 71.1881 106.478 71.6678 106.766C72.0516 107.054 72.4353 107.438 72.7232 107.917L71.7638 108.397C71.4759 107.917 71.0922 107.63 70.5165 107.438C70.0368 107.246 69.4612 107.342 68.8855 107.438C68.5018 107.534 68.2139 107.725 67.9261 107.917C67.6383 108.109 67.4464 108.397 67.3505 108.685C67.2545 108.973 67.2545 109.261 67.3505 109.548C67.4464 109.74 67.4464 109.836 67.6383 110.028C67.8302 110.22 67.8302 110.22 68.0221 110.316C68.118 110.412 68.3099 110.412 68.5018 110.412C68.6936 110.412 68.7896 110.412 68.9815 110.412L71.2841 110.316C71.5719 110.316 71.7638 110.316 72.0516 110.316C72.3394 110.316 72.5313 110.412 72.7232 110.508C72.9151 110.604 73.1069 110.796 73.2988 110.987C73.4907 111.179 73.5866 111.467 73.6826 111.755C73.8745 112.235 73.8745 112.714 73.6826 113.098C73.5866 113.482 73.2988 113.866 72.915 114.249C72.5313 114.633 72.0516 114.825 71.5719 115.017C70.9962 115.209 70.5165 115.209 70.0368 115.209C69.5571 115.113 69.0774 115.017 68.6936 114.729C68.3099 114.441 67.9261 114.058 67.7342 113.674L68.7896 113.098C68.9815 113.386 69.1734 113.674 69.4612 113.866C69.749 114.058 70.0368 114.154 70.4206 114.154C70.8043 114.154 71.0922 114.154 71.4759 114.058C71.8597 113.962 72.1475 113.77 72.3394 113.578C72.5313 113.386 72.7232 113.194 72.8191 112.906C72.915 112.618 72.915 112.427 72.8191 112.139C72.7232 111.851 72.6272 111.755 72.4353 111.563C72.2435 111.467 72.0516 111.371 71.7638 111.371C71.5719 111.371 71.2841 111.371 71.0922 111.371L69.3652 111.467C69.1734 111.467 68.9815 111.467 68.6936 111.467C68.4058 111.467 68.118 111.371 67.9261 111.275C67.6383 111.179 67.4464 111.083 67.1586 110.796C66.9667 110.604 66.7748 110.316 66.5829 109.836C66.487 109.452 66.3911 109.069 66.487 108.685C66.5829 108.301 66.6789 108.013 66.8708 107.725C67.0626 107.438 67.3505 107.15 67.7342 106.958C67.8302 106.766 68.2139 106.574 68.5977 106.478Z" fill="#FFFCF3"/>
<path d="M56.03 103.888L51.2329 110.987L50.4654 110.412L51.6167 102.928L45.0927 106.766L44.3252 106.19L49.1222 99.0908L49.8898 99.6664L46.34 104.847L52.2883 101.297L52.768 101.585L51.7126 108.397L55.2625 103.216L56.03 103.888Z" fill="#FFFCF3"/>
<path d="M48.258 98.5151L40.6786 103.504L39.5273 102.545L42.5975 94.0059L43.4609 94.6775L40.6786 102.641L40.3908 102.449L47.3945 97.8435L48.258 98.5151ZM45.9554 99.2827L45.3797 100.05L41.8299 97.2679L42.4056 96.5004L45.9554 99.2827Z" fill="#FFFCF3"/>
<path d="M41.8304 93.4303L36.0739 99.8583L35.3064 99.1867L37.9927 96.2126L32.4282 96.6923L31.4688 95.8288L37.2252 95.3491L37.0333 89.2089L38.0887 90.1683L38.2806 96.0207L41.0628 92.8546L41.8304 93.4303Z" fill="#FFFCF3"/>
<path d="M36.554 88.5373L30.4138 94.4856L26.5762 90.552L27.3437 89.8805L30.4138 93.0465L32.3326 91.1277L29.7422 88.4413L30.5097 87.7698L33.1002 90.4561L35.2109 88.4413L32.1407 85.2753L32.9083 84.6037L36.554 88.5373Z" fill="#FFFCF3"/>
<path d="M23.2182 71.6517C23.5061 72.1314 23.698 72.707 23.7939 73.1867C23.8898 73.6664 23.7939 74.2421 23.698 74.7218C23.5061 75.2015 23.2182 75.5852 22.8345 75.969L22.067 75.1055C22.4507 74.7218 22.6426 74.2421 22.7385 73.6664C22.8345 73.0908 22.6426 72.6111 22.3548 72.1314C22.1629 71.8436 21.8751 71.5557 21.6832 71.3638C21.3954 71.172 21.1075 71.076 20.8197 70.9801C20.5319 70.9801 20.2441 70.9801 19.9563 71.172C19.7644 71.2679 19.6684 71.3638 19.5725 71.5557C19.4765 71.6517 19.4766 71.8435 19.3806 71.9395C19.2847 72.0354 19.3806 72.2273 19.3806 72.4192C19.3806 72.6111 19.3806 72.707 19.4765 72.8989L20.0522 75.1055C20.1481 75.3934 20.1481 75.5852 20.1481 75.8731C20.1481 76.1609 20.1481 76.3528 20.1481 76.6406C20.0522 76.8325 19.9563 77.1203 19.8603 77.3122C19.6684 77.5041 19.4765 77.6959 19.1887 77.8878C18.709 78.1757 18.3253 78.2716 17.8456 78.1756C17.3658 78.0797 16.9821 77.9838 16.5983 77.6959C16.2146 77.4081 15.8308 77.0244 15.543 76.5447C15.2551 76.065 15.0633 75.5852 14.9673 75.0096C14.8714 74.5299 14.9673 74.0502 15.1592 73.5705C15.3511 73.0908 15.6389 72.707 16.0227 72.3233L16.7902 73.1867C16.5024 73.3786 16.3105 73.6664 16.2146 73.9542C16.1186 74.2421 16.1186 74.6258 16.1186 74.9137C16.1186 75.2015 16.3105 75.5852 16.5024 75.8731C16.6943 76.1609 16.8861 76.4487 17.174 76.6406C17.4618 76.8325 17.6537 76.9284 17.9415 76.9284C18.2293 76.9284 18.4212 76.9284 18.709 76.7365C18.9009 76.6406 19.0928 76.4487 19.0928 76.2568C19.0928 76.0649 19.1887 75.7771 19.0928 75.5852C19.0928 75.3934 18.9968 75.1055 18.9968 74.9137L18.5171 73.2827C18.4212 73.0908 18.4212 72.8989 18.3253 72.6111C18.2293 72.3233 18.2293 72.0354 18.3253 71.8435C18.3253 71.5557 18.4212 71.2679 18.6131 70.9801C18.805 70.6923 18.9968 70.5004 19.3806 70.2126C19.7644 70.0207 20.0522 69.9247 20.436 69.8288C20.8197 69.8288 21.1075 69.8288 21.4913 70.0207C21.8751 70.2125 22.1629 70.4044 22.4507 70.6923C22.7385 70.9801 23.0264 71.2679 23.2182 71.6517Z" fill="#FFFCF3"/>
<path d="M19.5724 64.7439C19.9561 65.5114 20.0521 66.279 19.9561 66.9506C19.8602 67.6222 19.5724 68.2937 19.0927 68.8694C18.613 69.445 17.9414 69.9247 17.1738 70.3085C16.4063 70.6923 15.6388 70.8841 14.8713 70.8841C14.1037 70.8841 13.4322 70.6923 12.8565 70.3085C12.2809 69.9247 11.8012 69.3491 11.4174 68.5816C11.0336 67.814 10.9377 67.0465 11.0336 66.3749C11.1296 65.7033 11.4174 65.0317 11.8971 64.4561C12.3768 63.8805 13.0484 63.4008 13.8159 63.017C14.5834 62.6332 15.351 62.4413 16.1185 62.4413C16.886 62.4413 17.5576 62.6332 18.1333 63.017C18.8048 63.4008 19.2845 63.9764 19.5724 64.7439ZM18.7089 65.2236C18.4211 64.648 18.1333 64.1683 17.6536 63.9764C17.1738 63.7845 16.6941 63.5926 16.1185 63.5926C15.5429 63.5926 14.9672 63.7845 14.2956 64.0723C13.624 64.3602 13.1443 64.7439 12.7606 65.1277C12.3768 65.5115 12.1849 65.9912 12.089 66.4709C11.993 66.9506 12.089 67.5262 12.3768 68.1019C12.6646 68.6775 12.9524 69.1572 13.4322 69.3491C13.9119 69.6369 14.3916 69.7329 14.9672 69.7329C15.5429 69.7329 16.1185 69.541 16.7901 69.2532C17.4617 68.9653 17.9414 68.5816 18.3251 68.1978C18.7089 67.814 18.9008 67.3343 18.9967 66.8546C19.0927 66.3749 18.9967 65.7993 18.7089 65.2236Z" fill="#FFFCF3"/>
<path d="M17.461 60.3306L9.21005 62.6332L8.92222 61.6738L14.5827 56.6849L7.09935 55.4376L6.81152 54.4782L15.0624 52.1757L15.3503 53.1351L9.30599 54.862L16.1178 56.0133L16.3097 56.5889L11.0329 61.0982L17.0772 59.3712L17.461 60.3306Z" fill="#FFFCF3"/>
<path d="M14.9669 50.8325L6.42818 51.6959L5.85254 46.2273L6.81195 46.1314L7.29165 50.5447L9.978 50.2568L9.59424 46.6111L10.5536 46.5151L10.9374 50.1609L13.8156 49.8731L13.4319 45.4598L14.3913 45.3638L14.9669 50.8325Z" fill="#FFFCF3"/>
<path d="M14.5832 42.1018L7.00383 41.6221L6.81195 44.5963L5.85254 44.5004L6.33224 37.4967L7.29165 37.5926L7.09977 40.5668L14.6791 41.0465L14.5832 42.1018Z" fill="#FFFCF3"/>
<path d="M14.871 37.4967L6.62012 35.1941L6.90794 34.1388L10.5537 35.1941L11.8009 30.7808L8.15517 29.7255L8.443 28.6701L16.6939 30.9727L16.4061 32.0281L12.7603 30.9727L11.5131 35.4819L15.1589 36.5373L14.871 37.4967Z" fill="#FFFCF3"/>
<path d="M17.4616 29.8214L9.69043 26.0797L10.1701 25.1203L17.9414 28.862L17.4616 29.8214Z" fill="#FFFCF3"/>
<path d="M18.4204 27.5188L11.5127 22.338L12.1843 21.4745L20.2433 21.9542L14.8706 17.9247L15.5422 17.0612L22.354 22.2421L21.6824 23.1055L13.6234 22.6258L18.9961 26.6553L18.4204 27.5188Z" fill="#FFFCF3"/>
<path d="M26.192 19.6517C25.7123 19.9395 25.2326 20.2273 24.657 20.3232C24.1773 20.4192 23.6016 20.4192 23.1219 20.2273C22.6422 20.0354 22.1625 19.8435 21.6828 19.4598C21.2031 19.076 20.8193 18.5963 20.4356 18.0207C19.9559 17.2531 19.6681 16.4856 19.5721 15.7181C19.4762 14.9506 19.5721 14.279 19.8599 13.7033C20.1478 13.1277 20.6275 12.552 21.299 12.0723C22.0666 11.4967 22.93 11.3048 23.6016 11.3048C24.3692 11.4007 25.0407 11.6886 25.6164 12.1683L24.8489 12.9358C24.3692 12.552 23.8895 12.4561 23.4097 12.3601C22.93 12.3601 22.3544 12.4561 21.8747 12.8398C21.299 13.2236 20.9153 13.6074 20.7234 14.0871C20.5315 14.5668 20.4356 15.0465 20.6275 15.6221C20.7234 16.1978 21.0112 16.7734 21.299 17.3491C21.6828 17.9247 22.0666 18.4044 22.5463 18.6922C23.026 18.9801 23.5057 19.172 23.9854 19.172C24.4651 19.172 25.0407 18.9801 25.6164 18.6922C26.0961 18.4044 26.3839 18.0207 26.5758 17.6369C26.7677 17.2531 26.8636 16.8694 26.7677 16.3897C26.6717 15.91 26.5758 15.4303 26.288 14.9506L24.7529 16.0059L24.2732 15.2384L26.7677 13.6074C26.8636 13.7033 26.8636 13.7033 26.9596 13.7993C27.0555 13.8952 27.0555 13.9911 27.0555 13.9911C27.4393 14.6627 27.7271 15.3343 27.823 16.0059C27.919 16.6775 27.823 17.3491 27.5352 17.9247C27.2474 18.5004 26.8636 19.172 26.192 19.6517Z" fill="#FFFCF3"/>
<path d="M44.4209 16.2937C43.8452 16.1978 43.2696 16.0059 42.8858 15.7181C42.502 15.4303 42.0223 15.0465 41.7345 14.6627C41.4467 14.183 41.2548 13.7033 41.1589 13.1277C41.0629 12.552 41.0629 11.8804 41.1589 11.2089C41.2548 10.3454 41.5426 9.57786 42.0223 8.90628C42.502 8.23469 42.9817 7.85093 43.6533 7.5631C44.3249 7.27528 44.9965 7.17934 45.86 7.27528C46.8194 7.37122 47.5869 7.75499 48.0666 8.23469C48.5463 8.7144 48.9301 9.38598 49.026 10.2495L47.9707 10.3454C47.8747 9.76975 47.5869 9.38598 47.2991 9.00222C46.6275 8.81034 46.1478 8.52251 45.5722 8.52251C44.9006 8.42657 44.4209 8.52251 43.9412 8.7144C43.4615 8.90628 43.0777 9.29004 42.7899 9.76975C42.502 10.2495 42.3102 10.8251 42.2142 11.4967C42.1183 12.1683 42.1183 12.7439 42.3102 13.3196C42.4061 13.8952 42.6939 14.279 43.0777 14.6627C43.4615 15.0465 43.9412 15.2384 44.6127 15.3343C45.1884 15.4303 45.6681 15.3343 46.0519 15.2384C46.4356 15.1424 46.8194 14.8546 47.0113 14.4709C47.2991 14.0871 47.491 13.6074 47.5869 13.0317L45.764 12.7439L45.86 11.8804L48.8341 12.2642C48.8341 12.3602 48.8341 12.4561 48.8341 12.552C48.8341 12.648 48.8341 12.7439 48.8341 12.7439C48.7382 13.5114 48.4504 14.183 48.0666 14.7587C47.6829 15.3343 47.2031 15.7181 46.5316 16.0059C45.9559 16.3897 45.1884 16.4856 44.4209 16.2937Z" fill="#FFFCF3"/>
<path d="M52.2882 18.3085C51.5207 18.0207 50.8491 17.541 50.4653 16.9653C50.0816 16.3897 49.7937 15.7181 49.6978 15.0465C49.6019 14.279 49.7938 13.5114 50.0816 12.648C50.3694 11.7845 50.8491 11.1129 51.3288 10.6332C51.9045 10.1535 52.4801 9.76975 53.1517 9.6738C53.8233 9.57786 54.5908 9.57786 55.3583 9.86569C56.1259 10.1535 56.7974 10.6332 57.1812 11.2089C57.565 11.7845 57.8528 12.4561 57.9487 13.1277C58.0447 13.8952 57.8528 14.6627 57.565 15.5262C57.2771 16.3897 56.7974 17.0613 56.3177 17.541C55.838 18.0207 55.1664 18.4044 54.4949 18.5004C53.8233 18.6923 53.0557 18.5963 52.2882 18.3085ZM52.672 17.3491C53.2476 17.541 53.8233 17.6369 54.303 17.541C54.7827 17.445 55.2624 17.1572 55.6461 16.7734C56.0299 16.3897 56.3177 15.814 56.6056 15.2384C56.8934 14.5668 56.9893 13.9911 56.8934 13.4155C56.8934 12.8399 56.7015 12.3602 56.4137 11.9764C56.1259 11.5926 55.6461 11.2089 55.0705 11.017C54.4949 10.8251 53.9192 10.7292 53.4395 10.8251C52.9598 10.921 52.4801 11.2089 52.0963 11.5926C51.7126 11.9764 51.4247 12.552 51.1369 13.2236C50.8491 13.8952 50.7532 14.4709 50.8491 15.0465C50.8491 15.6221 51.041 16.1018 51.3288 16.4856C51.6166 16.8694 52.0004 17.1572 52.672 17.3491Z" fill="#FFFCF3"/>
<path d="M59.3875 22.1461C58.7159 21.6664 58.2362 20.9948 57.9484 20.3233C57.6606 19.6517 57.6606 18.9801 57.8525 18.2126C58.0444 17.445 58.3322 16.7734 58.9078 16.1018C59.4835 15.4303 60.0591 14.8546 60.7307 14.5668C61.4023 14.279 62.0739 14.0871 62.7455 14.183C63.4171 14.279 64.1846 14.5668 64.8562 15.0465C65.5278 15.6221 66.0075 16.1978 66.2953 16.8694C66.5831 17.541 66.5831 18.2126 66.3912 18.9801C66.1993 19.7476 65.9115 20.4192 65.3359 21.0908C64.7602 21.7624 64.1846 22.338 63.513 22.6258C62.8414 23.0096 62.1698 23.1055 61.4982 23.0096C60.7307 23.0096 60.0591 22.7218 59.3875 22.1461ZM59.9632 21.3786C60.4429 21.7624 61.0185 21.9542 61.4982 22.0502C61.9779 22.1461 62.5536 21.9542 63.0333 21.6664C63.513 21.3786 63.9927 20.9948 64.3765 20.4192C64.7602 19.8435 65.0481 19.3638 65.2399 18.7882C65.4318 18.2126 65.3359 17.7328 65.2399 17.2531C65.0481 16.7734 64.7602 16.2937 64.1846 15.91C63.7049 15.5262 63.1292 15.3343 62.6495 15.2384C62.1698 15.2384 61.5942 15.3343 61.1145 15.6221C60.6348 15.91 60.1551 16.2937 59.7713 16.8694C59.3875 17.445 59.0997 17.9247 58.9078 18.5004C58.7159 19.076 58.8119 19.5557 58.9078 20.0354C59.0038 20.5151 59.4835 20.9948 59.9632 21.3786Z" fill="#FFFCF3"/>
<path d="M62.9375 24.9284L70.325 20.5151L71.6681 22.8177C71.6681 22.9137 71.7641 23.0096 71.86 23.2015C71.956 23.3934 72.0519 23.5852 72.1478 23.7771C72.4357 24.3528 72.5316 25.0244 72.4357 25.6C72.3397 26.1757 72.0519 26.7513 71.6681 27.231C71.2844 27.7107 70.7087 28.1904 70.1331 28.5742C69.4615 28.9579 68.8858 29.2458 68.2143 29.3417C67.5427 29.4376 66.967 29.4376 66.3914 29.2458C65.8157 29.0539 65.336 28.6701 64.8563 28.1904C64.7604 27.9985 64.5685 27.9026 64.4726 27.7107C64.3766 27.5188 64.2807 27.4229 64.1847 27.3269L62.9375 24.9284ZM64.3766 25.4081L65.2401 26.7513C65.336 26.8472 65.432 27.0391 65.5279 27.1351C65.6239 27.3269 65.7198 27.4229 65.8157 27.5188C66.1036 27.9026 66.4873 28.0945 66.8711 28.1904C67.2548 28.2864 67.7345 28.2864 68.2143 28.1904C68.694 28.0945 69.1737 27.9026 69.5574 27.6148C70.0371 27.3269 70.4209 27.0391 70.7087 26.6554C70.9965 26.2716 71.2844 25.8878 71.3803 25.5041C71.4762 25.1203 71.4762 24.6406 71.2844 24.2568C71.1884 24.1609 71.1884 23.969 71.0925 23.7771C70.9965 23.5852 70.9006 23.4893 70.8047 23.2974L70.0371 21.9543L64.3766 25.4081Z" fill="#FFFCF3"/>
<path d="M68.0224 40.5668L76.5612 41.1425L76.4652 42.1978L68.8859 41.7181L68.5981 45.7476L67.6387 45.6517L68.0224 40.5668Z" fill="#FFFCF3"/>
<path d="M65.9115 46.4192C66.679 46.0354 67.4465 45.8436 68.1181 45.8436C68.7897 45.9395 69.4613 46.1314 70.0369 46.6111C70.6126 47.0908 71.0923 47.6664 71.572 48.434C71.9558 49.2015 72.2436 49.969 72.2436 50.7366C72.2436 51.5041 72.1476 52.1757 71.7639 52.7513C71.3801 53.327 70.9004 53.9026 70.1329 54.2864C69.3654 54.6701 68.5978 54.862 67.9262 54.862C67.2547 54.7661 66.5831 54.5742 66.0074 54.0945C65.4318 53.6148 64.9521 53.0391 64.4724 52.2716C64.0886 51.5041 63.8008 50.7366 63.8008 49.969C63.8008 49.2015 63.8967 48.5299 64.2805 47.9543C64.5683 47.3786 65.144 46.8989 65.9115 46.4192ZM66.3912 47.3786C65.8155 47.6664 65.4318 48.0502 65.144 48.5299C64.8561 49.0096 64.8561 49.4893 64.8561 50.065C64.9521 50.6406 65.144 51.2163 65.4318 51.7919C65.7196 52.3675 66.1034 52.8473 66.5831 53.231C67.0628 53.6148 67.4465 53.8067 68.0222 53.8067C68.5978 53.8067 69.0775 53.7107 69.6532 53.4229C70.2288 53.1351 70.6126 52.7513 70.9004 52.2716C71.0923 51.7919 71.1882 51.3122 71.1882 50.7366C71.1882 50.1609 70.9004 49.5853 70.6126 49.0096C70.3248 48.434 69.941 47.9543 69.4613 47.5705C68.9816 47.1867 68.5019 46.9949 68.0222 46.9949C67.4465 46.8989 66.9668 47.0908 66.3912 47.3786Z" fill="#FFFCF3"/>
<path d="M62.5536 44.8841L55.1661 50.1609L54.8783 49.1055L61.3063 44.5963L53.4392 44.3085L53.1514 43.2531L62.2658 43.541L62.5536 44.8841Z" fill="#FFFCF3"/>
<path d="M61.8825 40.5668L53.3438 39.7033L53.9194 34.2347L54.8788 34.3306L54.3991 38.7439L57.0854 39.0317L57.4692 35.386L58.4286 35.4819L58.0449 39.1277L60.9231 39.4155L61.4028 35.0022L62.3622 35.0982L61.8825 40.5668Z" fill="#FFFCF3"/>
</g>
<defs>
<clipPath id="clip0_527_3515">
<rect width="130" height="123.38" fill="white" transform="translate(0 0.847229)"/>
</clipPath>
</defs>
</svg>
