<svg width="120" height="120" viewBox="0 0 120 120" fill="none" xmlns="http://www.w3.org/2000/svg">
<g clip-path="url(#clip0_391_13365)">
<path d="M46.9107 46.4503C30.2921 43.9492 -3.41349e-06 41.9089 -2.60723e-06 60.354C-1.79953e-06 78.832 30.4072 75.9361 47.0095 72.9908C44.0642 89.593 41.1682 120 59.6462 120C78.0749 120 76.051 89.7082 73.55 73.0895C90.2674 76.0019 120 78.6181 120 60.354C120 42.1228 90.3661 43.9163 73.6322 46.368C76.1004 29.6341 77.8774 0.000241064 59.6462 0.000241861C41.3821 0.000242659 43.9984 29.7329 46.9107 46.4503ZM61.6701 90.0044C61.6701 95.9278 60.9132 100.716 59.9918 100.716C59.0703 100.716 58.3134 95.9114 58.3134 90.0044C58.3134 84.0809 59.0703 79.2927 59.9918 79.2927C60.9297 79.2927 61.6701 84.0809 61.6701 90.0044ZM100.716 59.992C100.716 60.9134 95.9111 61.6703 90.0041 61.6703C84.0806 61.6703 79.2925 60.9134 79.2925 59.992C79.2925 59.0706 84.0971 58.3137 90.0041 58.3137C95.9111 58.3301 100.716 59.0706 100.716 59.992ZM40.7075 59.992C40.7075 60.9134 35.9029 61.6703 29.9959 61.6703C24.0888 61.6703 19.2842 60.9134 19.2842 59.992C19.2842 59.0706 24.0888 58.3137 29.9959 58.3137C35.9029 58.3137 40.7075 59.0706 40.7075 59.992ZM61.6701 29.9961C61.6701 35.9196 60.9132 40.7078 59.9918 40.7078C59.0703 40.7078 58.3134 35.9032 58.3134 29.9961C58.3134 24.0891 59.0703 19.2845 59.9918 19.2845C60.9297 19.2845 61.6701 24.0891 61.6701 29.9961Z" fill="#8C7AFF"/>
</g>
<defs>
<clipPath id="clip0_391_13365">
<rect width="120" height="120" fill="white" transform="translate(0 120) rotate(-90)"/>
</clipPath>
</defs>
</svg>
