<svg width="24" height="24" viewBox="0 0 24 24" fill="none" xmlns="http://www.w3.org/2000/svg">
<path id="Vector" d="M22.4744 13.6676C21.7062 12.8994 20.318 12.2153 18.7838 11.8633C20.3158 11.5134 21.704 10.8293 22.4744 10.0589C24.2943 8.24343 24.053 5.0531 21.3652 2.36535C18.7616 -0.238269 15.4872 -0.563722 13.6696 1.25394C12.9014 2.02219 12.2173 3.41034 11.8652 4.94462C11.5154 3.41256 10.8291 2.02219 10.0609 1.25394C8.24323 -0.563722 5.05517 -0.324614 2.36523 2.36535C-0.236141 4.96676 -0.563804 8.24342 1.25384 10.0611C2.02207 10.8293 3.41021 11.5134 4.94447 11.8655C3.41243 12.2153 2.02429 12.8994 1.25384 13.6698C-0.563803 15.4875 -0.322485 18.6778 2.36523 21.3656C4.96882 23.9692 8.24324 24.2947 10.0609 22.477C10.8291 21.7088 11.5132 20.3206 11.8652 18.7863C12.215 20.3184 12.9014 21.7088 13.6696 22.477C15.4872 24.2947 18.6775 24.0533 21.3652 21.3656C23.9666 18.7598 24.2943 15.4875 22.4744 13.6676Z" fill="white"/>
</svg>
