<svg width="54" height="54" viewBox="0 0 54 54" fill="none" xmlns="http://www.w3.org/2000/svg">
<path id="Vector" d="M51.0105 31.0791C49.2718 29.3404 46.1302 27.7922 42.6579 26.9955C46.1252 26.2038 49.2668 24.6555 51.0104 22.9118C55.129 18.8031 54.5828 11.5829 48.5001 5.49999C42.6077 -0.392474 35.1972 -1.12903 31.0836 2.98468C29.345 4.72336 27.7968 7.865 27.0001 11.3373C26.2084 7.87001 24.6552 4.72336 22.9165 2.98468C18.8029 -1.12902 11.5878 -0.587874 5.50009 5.50001C-0.387207 11.3875 -1.12873 18.8032 2.9849 22.9169C4.72355 24.6555 7.86513 26.2038 11.3374 27.0005C7.87014 27.7922 4.72858 29.3404 2.98493 31.0841C-1.12866 35.1978 -0.582487 42.4181 5.50027 48.501C11.3926 54.3934 18.8031 55.13 22.9167 51.0163C24.6554 49.2776 26.2036 46.136 27.0002 42.6636C27.7919 46.131 29.3452 49.2776 31.0838 51.0163C35.1975 55.13 42.4176 54.5838 48.5003 48.501C54.3876 42.6035 55.1291 35.1978 51.0105 31.0791Z" fill="#FED847"/>
</svg>
