<svg width="1920" height="480" viewBox="0 0 1920 480" fill="none" xmlns="http://www.w3.org/2000/svg">
<g clip-path="url(#clip0_529_3558)">
<path d="M53.6413 456V421.44H66.9853C67.3213 421.44 67.6973 421.456 68.1133 421.488C68.5453 421.504 68.9773 421.552 69.4093 421.632C71.2173 421.904 72.7453 422.536 73.9933 423.528C75.2573 424.504 76.2093 425.736 76.8492 427.224C77.5052 428.712 77.8333 430.36 77.8333 432.168C77.8333 434.776 77.1453 437.04 75.7693 438.96C74.3933 440.88 72.4253 442.088 69.8653 442.584L68.6413 442.872H57.1693V456H53.6413ZM74.5693 456L67.7533 441.936L71.1373 440.64L78.6253 456H74.5693ZM57.1693 439.512H66.8893C67.1773 439.512 67.5133 439.496 67.8973 439.464C68.2813 439.432 68.6573 439.376 69.0253 439.296C70.2093 439.04 71.1773 438.552 71.9293 437.832C72.6973 437.112 73.2653 436.256 73.6333 435.264C74.0173 434.272 74.2093 433.24 74.2093 432.168C74.2093 431.096 74.0173 430.064 73.6333 429.072C73.2653 428.064 72.6973 427.2 71.9293 426.48C71.1773 425.76 70.2093 425.272 69.0253 425.016C68.6573 424.936 68.2813 424.888 67.8973 424.872C67.5133 424.84 67.1773 424.824 66.8893 424.824H57.1693V439.512ZM83.9225 456V421.44H105.523V424.824H87.4505V436.776H102.643V440.16H87.4505V452.616H105.523V456H83.9225ZM122.032 456.72C119.616 456.72 117.44 456.32 115.504 455.52C113.584 454.704 111.992 453.552 110.728 452.064C109.48 450.576 108.664 448.808 108.28 446.76L111.88 446.16C112.456 448.4 113.672 450.16 115.528 451.44C117.384 452.704 119.6 453.336 122.176 453.336C123.872 453.336 125.392 453.072 126.736 452.544C128.08 452 129.136 451.232 129.904 450.24C130.672 449.248 131.056 448.072 131.056 446.712C131.056 445.816 130.896 445.056 130.576 444.432C130.256 443.792 129.832 443.264 129.304 442.848C128.776 442.432 128.2 442.088 127.576 441.816C126.952 441.528 126.344 441.296 125.752 441.12L116.992 438.504C115.936 438.2 114.96 437.816 114.064 437.352C113.168 436.872 112.384 436.304 111.712 435.648C111.056 434.976 110.544 434.192 110.176 433.296C109.808 432.4 109.624 431.376 109.624 430.224C109.624 428.272 110.136 426.584 111.16 425.16C112.184 423.736 113.584 422.64 115.36 421.872C117.136 421.104 119.16 420.728 121.432 420.744C123.736 420.744 125.792 421.152 127.6 421.968C129.424 422.784 130.928 423.952 132.112 425.472C133.296 426.976 134.08 428.76 134.464 430.824L130.768 431.496C130.528 429.992 129.976 428.688 129.112 427.584C128.248 426.48 127.144 425.632 125.8 425.04C124.472 424.432 123.008 424.12 121.408 424.104C119.856 424.104 118.472 424.368 117.256 424.896C116.056 425.408 115.104 426.112 114.4 427.008C113.696 427.904 113.344 428.928 113.344 430.08C113.344 431.248 113.664 432.184 114.304 432.888C114.96 433.592 115.76 434.144 116.704 434.544C117.664 434.944 118.592 435.272 119.488 435.528L126.256 437.52C126.96 437.712 127.784 437.992 128.728 438.36C129.688 438.712 130.616 439.224 131.512 439.896C132.424 440.552 133.176 441.416 133.768 442.488C134.36 443.56 134.656 444.92 134.656 446.568C134.656 448.168 134.336 449.6 133.696 450.864C133.072 452.128 132.184 453.192 131.032 454.056C129.896 454.92 128.56 455.576 127.024 456.024C125.504 456.488 123.84 456.72 122.032 456.72ZM139.61 456V421.44H152.954C153.29 421.44 153.666 421.456 154.082 421.488C154.514 421.504 154.946 421.552 155.378 421.632C157.186 421.904 158.714 422.536 159.962 423.528C161.226 424.504 162.178 425.736 162.818 427.224C163.474 428.712 163.802 430.36 163.802 432.168C163.802 433.96 163.474 435.6 162.818 437.088C162.162 438.576 161.202 439.816 159.938 440.808C158.69 441.784 157.17 442.408 155.378 442.68C154.946 442.744 154.514 442.792 154.082 442.824C153.666 442.856 153.29 442.872 152.954 442.872H143.138V456H139.61ZM143.138 439.512H152.858C153.146 439.512 153.482 439.496 153.866 439.464C154.25 439.432 154.626 439.376 154.994 439.296C156.178 439.04 157.146 438.552 157.898 437.832C158.666 437.112 159.234 436.256 159.602 435.264C159.986 434.272 160.178 433.24 160.178 432.168C160.178 431.096 159.986 430.064 159.602 429.072C159.234 428.064 158.666 427.2 157.898 426.48C157.146 425.76 156.178 425.272 154.994 425.016C154.626 424.936 154.25 424.888 153.866 424.872C153.482 424.84 153.146 424.824 152.858 424.824H143.138V439.512ZM182.571 456.72C179.131 456.72 176.227 455.96 173.859 454.44C171.491 452.904 169.699 450.784 168.483 448.08C167.267 445.376 166.659 442.256 166.659 438.72C166.659 435.184 167.267 432.064 168.483 429.36C169.699 426.656 171.491 424.544 173.859 423.024C176.227 421.488 179.131 420.72 182.571 420.72C186.027 420.72 188.931 421.488 191.283 423.024C193.651 424.544 195.443 426.656 196.659 429.36C197.891 432.064 198.507 435.184 198.507 438.72C198.507 442.256 197.891 445.376 196.659 448.08C195.443 450.784 193.651 452.904 191.283 454.44C188.931 455.96 186.027 456.72 182.571 456.72ZM182.571 453.336C185.275 453.336 187.531 452.72 189.339 451.488C191.147 450.256 192.499 448.544 193.395 446.352C194.307 444.144 194.763 441.6 194.763 438.72C194.763 435.84 194.307 433.304 193.395 431.112C192.499 428.92 191.147 427.208 189.339 425.976C187.531 424.744 185.275 424.12 182.571 424.104C179.867 424.104 177.619 424.72 175.827 425.952C174.035 427.184 172.683 428.904 171.771 431.112C170.875 433.304 170.419 435.84 170.403 438.72C170.387 441.6 170.827 444.136 171.723 446.328C172.635 448.504 173.995 450.216 175.803 451.464C177.611 452.696 179.867 453.32 182.571 453.336ZM203.313 456V421.44H206.865L225.897 449.76V421.44H229.449V456H225.897L206.865 427.656V456H203.313ZM248.173 456.72C245.757 456.72 243.581 456.32 241.645 455.52C239.725 454.704 238.133 453.552 236.869 452.064C235.621 450.576 234.805 448.808 234.421 446.76L238.021 446.16C238.597 448.4 239.813 450.16 241.669 451.44C243.525 452.704 245.741 453.336 248.317 453.336C250.013 453.336 251.533 453.072 252.877 452.544C254.221 452 255.277 451.232 256.045 450.24C256.813 449.248 257.197 448.072 257.197 446.712C257.197 445.816 257.037 445.056 256.717 444.432C256.397 443.792 255.973 443.264 255.445 442.848C254.917 442.432 254.341 442.088 253.717 441.816C253.093 441.528 252.485 441.296 251.893 441.12L243.133 438.504C242.077 438.2 241.101 437.816 240.205 437.352C239.309 436.872 238.525 436.304 237.853 435.648C237.197 434.976 236.685 434.192 236.317 433.296C235.949 432.4 235.765 431.376 235.765 430.224C235.765 428.272 236.277 426.584 237.301 425.16C238.325 423.736 239.725 422.64 241.501 421.872C243.277 421.104 245.301 420.728 247.573 420.744C249.877 420.744 251.933 421.152 253.741 421.968C255.565 422.784 257.069 423.952 258.253 425.472C259.437 426.976 260.221 428.76 260.605 430.824L256.909 431.496C256.669 429.992 256.117 428.688 255.253 427.584C254.389 426.48 253.285 425.632 251.941 425.04C250.613 424.432 249.149 424.12 247.549 424.104C245.997 424.104 244.613 424.368 243.397 424.896C242.197 425.408 241.245 426.112 240.541 427.008C239.837 427.904 239.485 428.928 239.485 430.08C239.485 431.248 239.805 432.184 240.445 432.888C241.101 433.592 241.901 434.144 242.845 434.544C243.805 434.944 244.733 435.272 245.629 435.528L252.397 437.52C253.101 437.712 253.925 437.992 254.869 438.36C255.829 438.712 256.757 439.224 257.653 439.896C258.565 440.552 259.317 441.416 259.909 442.488C260.501 443.56 260.797 444.92 260.797 446.568C260.797 448.168 260.477 449.6 259.837 450.864C259.213 452.128 258.325 453.192 257.173 454.056C256.037 454.92 254.701 455.576 253.165 456.024C251.645 456.488 249.981 456.72 248.173 456.72ZM266.231 456V421.44H269.759V456H266.231ZM276.954 456V421.44H290.298C292.234 421.44 293.922 421.84 295.362 422.64C296.802 423.44 297.922 424.52 298.722 425.88C299.522 427.224 299.922 428.712 299.922 430.344C299.922 432.2 299.426 433.856 298.434 435.312C297.442 436.752 296.114 437.752 294.45 438.312L294.402 437.136C296.642 437.776 298.402 438.896 299.682 440.496C300.962 442.096 301.602 444.032 301.602 446.304C301.602 448.304 301.178 450.032 300.33 451.488C299.482 452.928 298.29 454.04 296.754 454.824C295.218 455.608 293.434 456 291.402 456H276.954ZM280.506 452.616H290.538C291.946 452.616 293.21 452.368 294.33 451.872C295.45 451.36 296.33 450.64 296.97 449.712C297.626 448.784 297.954 447.664 297.954 446.352C297.954 445.072 297.658 443.92 297.066 442.896C296.474 441.872 295.666 441.056 294.642 440.448C293.634 439.824 292.482 439.512 291.186 439.512H280.506V452.616ZM280.506 436.176H290.274C291.378 436.176 292.386 435.928 293.298 435.432C294.21 434.92 294.93 434.224 295.458 433.344C296.002 432.464 296.274 431.448 296.274 430.296C296.274 428.664 295.706 427.336 294.57 426.312C293.45 425.288 292.018 424.776 290.274 424.776H280.506V436.176ZM306.871 456V421.44H310.399V456H306.871ZM318.074 456V421.44H321.602V452.616H338.018V456H318.074ZM342.59 456V421.44H346.118V456H342.59ZM362.505 456V424.824H350.433V421.44H378.105V424.824H366.033V456H362.505ZM391.639 456V441.528L380.047 421.44H384.127L393.415 437.496L402.655 421.44H406.735L395.191 441.528V456H391.639Z" fill="black"/>
<path d="M136.712 390.72C134.296 390.72 132.12 390.32 130.184 389.52C128.264 388.704 126.672 387.552 125.408 386.064C124.16 384.576 123.344 382.808 122.96 380.76L126.56 380.16C127.136 382.4 128.352 384.16 130.208 385.44C132.064 386.704 134.28 387.336 136.856 387.336C138.552 387.336 140.072 387.072 141.416 386.544C142.76 386 143.816 385.232 144.584 384.24C145.352 383.248 145.736 382.072 145.736 380.712C145.736 379.816 145.576 379.056 145.256 378.432C144.936 377.792 144.512 377.264 143.984 376.848C143.456 376.432 142.88 376.088 142.256 375.816C141.632 375.528 141.024 375.296 140.432 375.12L131.672 372.504C130.616 372.2 129.64 371.816 128.744 371.352C127.848 370.872 127.064 370.304 126.392 369.648C125.736 368.976 125.224 368.192 124.856 367.296C124.488 366.4 124.304 365.376 124.304 364.224C124.304 362.272 124.816 360.584 125.84 359.16C126.864 357.736 128.264 356.64 130.04 355.872C131.816 355.104 133.84 354.728 136.112 354.744C138.416 354.744 140.472 355.152 142.28 355.968C144.104 356.784 145.608 357.952 146.792 359.472C147.976 360.976 148.76 362.76 149.144 364.824L145.448 365.496C145.208 363.992 144.656 362.688 143.792 361.584C142.928 360.48 141.824 359.632 140.48 359.04C139.152 358.432 137.688 358.12 136.088 358.104C134.536 358.104 133.152 358.368 131.936 358.896C130.736 359.408 129.784 360.112 129.08 361.008C128.376 361.904 128.024 362.928 128.024 364.08C128.024 365.248 128.344 366.184 128.984 366.888C129.64 367.592 130.44 368.144 131.384 368.544C132.344 368.944 133.272 369.272 134.168 369.528L140.936 371.52C141.64 371.712 142.464 371.992 143.408 372.36C144.368 372.712 145.296 373.224 146.192 373.896C147.104 374.552 147.856 375.416 148.448 376.488C149.04 377.56 149.336 378.92 149.336 380.568C149.336 382.168 149.016 383.6 148.376 384.864C147.752 386.128 146.864 387.192 145.712 388.056C144.576 388.92 143.24 389.576 141.704 390.024C140.184 390.488 138.52 390.72 136.712 390.72ZM154.29 390V355.44H175.89V358.824H157.818V370.776H173.01V374.16H157.818V386.616H175.89V390H154.29ZM181.665 390V355.44H185.217L204.249 383.76V355.44H207.801V390H204.249L185.217 361.656V390H181.665ZM226.524 390.72C224.108 390.72 221.932 390.32 219.996 389.52C218.076 388.704 216.484 387.552 215.22 386.064C213.972 384.576 213.156 382.808 212.772 380.76L216.372 380.16C216.948 382.4 218.164 384.16 220.02 385.44C221.876 386.704 224.092 387.336 226.668 387.336C228.364 387.336 229.884 387.072 231.228 386.544C232.572 386 233.628 385.232 234.396 384.24C235.164 383.248 235.548 382.072 235.548 380.712C235.548 379.816 235.388 379.056 235.068 378.432C234.748 377.792 234.324 377.264 233.796 376.848C233.268 376.432 232.692 376.088 232.068 375.816C231.444 375.528 230.836 375.296 230.244 375.12L221.484 372.504C220.428 372.2 219.452 371.816 218.556 371.352C217.66 370.872 216.876 370.304 216.204 369.648C215.548 368.976 215.036 368.192 214.668 367.296C214.3 366.4 214.116 365.376 214.116 364.224C214.116 362.272 214.628 360.584 215.652 359.16C216.676 357.736 218.076 356.64 219.852 355.872C221.628 355.104 223.652 354.728 225.924 354.744C228.228 354.744 230.284 355.152 232.092 355.968C233.916 356.784 235.42 357.952 236.604 359.472C237.788 360.976 238.572 362.76 238.956 364.824L235.26 365.496C235.02 363.992 234.468 362.688 233.604 361.584C232.74 360.48 231.636 359.632 230.292 359.04C228.964 358.432 227.5 358.12 225.9 358.104C224.348 358.104 222.964 358.368 221.748 358.896C220.548 359.408 219.596 360.112 218.892 361.008C218.188 361.904 217.836 362.928 217.836 364.08C217.836 365.248 218.156 366.184 218.796 366.888C219.452 367.592 220.252 368.144 221.196 368.544C222.156 368.944 223.084 369.272 223.98 369.528L230.748 371.52C231.452 371.712 232.276 371.992 233.22 372.36C234.18 372.712 235.108 373.224 236.004 373.896C236.916 374.552 237.668 375.416 238.26 376.488C238.852 377.56 239.148 378.92 239.148 380.568C239.148 382.168 238.828 383.6 238.188 384.864C237.564 386.128 236.676 387.192 235.524 388.056C234.388 388.92 233.052 389.576 231.516 390.024C229.996 390.488 228.332 390.72 226.524 390.72ZM244.102 390V355.44H265.702V358.824H247.63V370.776H262.822V374.16H247.63V386.616H265.702V390H244.102ZM295.079 390.72C291.639 390.72 288.735 389.96 286.367 388.44C283.999 386.904 282.207 384.784 280.991 382.08C279.775 379.376 279.167 376.256 279.167 372.72C279.167 369.184 279.775 366.064 280.991 363.36C282.207 360.656 283.999 358.544 286.367 357.024C288.735 355.488 291.639 354.72 295.079 354.72C298.535 354.72 301.439 355.488 303.791 357.024C306.159 358.544 307.951 360.656 309.167 363.36C310.399 366.064 311.015 369.184 311.015 372.72C311.015 376.256 310.399 379.376 309.167 382.08C307.951 384.784 306.159 386.904 303.791 388.44C301.439 389.96 298.535 390.72 295.079 390.72ZM295.079 387.336C297.783 387.336 300.039 386.72 301.847 385.488C303.655 384.256 305.007 382.544 305.903 380.352C306.815 378.144 307.271 375.6 307.271 372.72C307.271 369.84 306.815 367.304 305.903 365.112C305.007 362.92 303.655 361.208 301.847 359.976C300.039 358.744 297.783 358.12 295.079 358.104C292.375 358.104 290.127 358.72 288.335 359.952C286.543 361.184 285.191 362.904 284.279 365.112C283.383 367.304 282.927 369.84 282.911 372.72C282.895 375.6 283.335 378.136 284.231 380.328C285.143 382.504 286.503 384.216 288.311 385.464C290.119 386.696 292.375 387.32 295.079 387.336ZM315.821 390V355.44H335.669V358.968H319.349V370.968H332.789V374.472H319.349V390H315.821Z" fill="black"/>
<path d="M81 369.596V385.063C81 392.508 74.9643 398.544 67.519 398.544H50.2282C28.0108 398.544 10 416.554 10 438.772C10 460.989 28.0108 479 50.2282 479H406.772C428.989 479 447 460.989 447 438.772C447 416.554 428.989 398.544 406.772 398.544H384.62C376.546 398.544 370 391.998 370 383.923V369.596C370 348.28 352.72 331 331.404 331H119.596C98.2802 331 81 348.28 81 369.596Z" stroke="black"/>
<rect x="460" y="397" width="376" height="82" rx="41" fill="white"/>
<path d="M504.254 456V421.44H507.782V456H504.254ZM514.497 430.08V421.44H518.025V430.08H514.497ZM525.243 456V421.44H528.483L542.067 450.504L555.579 421.44H558.867V455.976H555.507V429.312L543.195 456H540.915L528.627 429.312V456H525.243ZM575.212 456V421.44H578.764L597.796 449.76V421.44H601.348V456H597.796L578.764 427.656V456H575.212ZM622.063 456.72C618.623 456.72 615.719 455.96 613.351 454.44C610.983 452.904 609.191 450.784 607.975 448.08C606.759 445.376 606.151 442.256 606.151 438.72C606.151 435.184 606.759 432.064 607.975 429.36C609.191 426.656 610.983 424.544 613.351 423.024C615.719 421.488 618.623 420.72 622.063 420.72C625.519 420.72 628.423 421.488 630.775 423.024C633.143 424.544 634.935 426.656 636.151 429.36C637.383 432.064 637.999 435.184 637.999 438.72C637.999 442.256 637.383 445.376 636.151 448.08C634.935 450.784 633.143 452.904 630.775 454.44C628.423 455.96 625.519 456.72 622.063 456.72ZM622.063 453.336C624.767 453.336 627.023 452.72 628.831 451.488C630.639 450.256 631.991 448.544 632.887 446.352C633.799 444.144 634.255 441.6 634.255 438.72C634.255 435.84 633.799 433.304 632.887 431.112C631.991 428.92 630.639 427.208 628.831 425.976C627.023 424.744 624.767 424.12 622.063 424.104C619.359 424.104 617.111 424.72 615.319 425.952C613.527 427.184 612.175 428.904 611.263 431.112C610.367 433.304 609.911 435.84 609.895 438.72C609.879 441.6 610.319 444.136 611.215 446.328C612.127 448.504 613.487 450.216 615.295 451.464C617.103 452.696 619.359 453.32 622.063 453.336ZM651.06 456V424.824H638.988V421.44H666.66V424.824H654.588V456H651.06ZM679.145 456V421.44H682.673V452.616H699.089V456H679.145ZM700.78 456L712.684 421.44H717.364L729.268 456H725.596L714.292 423.408H715.684L704.452 456H700.78ZM706.084 447.624V444.312H723.94V447.624H706.084ZM739.935 456V424.824H727.863V421.44H755.535V424.824H743.463V456H739.935ZM759.383 456V421.44H780.983V424.824H762.911V436.776H778.103V440.16H762.911V452.616H780.983V456H759.383ZM787.43 456V451.896H791.534V456H787.43Z" fill="black"/>
<rect x="354.18" y="237" width="218" height="82" rx="41" transform="rotate(25.4053 354.18 237)" fill="#2ED06E"/>
<path d="M374.966 312.189L380.774 276.688L384.091 278.263L379.154 307.509L398.649 285.204L401.998 286.768L397.061 316.014L416.566 293.687L419.905 295.273L396.081 322.218L392.873 320.694L397.662 291.59L378.174 313.713L374.966 312.189ZM420.314 334.524C417.206 333.048 414.909 331.116 413.422 328.727C411.942 326.324 411.233 323.64 411.295 320.676C411.356 317.711 412.146 314.632 413.663 311.438C415.18 308.244 417.068 305.687 419.326 303.766C421.584 301.845 424.109 300.706 426.9 300.349C429.698 299.977 432.651 300.53 435.758 302.005C438.88 303.488 441.174 305.428 442.639 307.824C444.126 310.213 444.839 312.89 444.777 315.854C444.73 318.825 443.948 321.908 442.431 325.102C440.914 328.296 439.019 330.85 436.746 332.764C434.488 334.684 431.959 335.831 429.161 336.202C426.385 336.566 423.435 336.007 420.314 334.524ZM421.765 331.467C424.208 332.627 426.51 333.039 428.672 332.702C430.833 332.364 432.789 331.398 434.539 329.802C436.31 328.199 437.813 326.097 439.049 323.495C440.285 320.894 440.961 318.407 441.077 316.036C441.208 313.672 440.722 311.545 439.617 309.657C438.512 307.768 436.742 306.237 434.307 305.062C431.864 303.902 429.569 303.494 427.422 303.838C425.275 304.182 423.315 305.156 421.544 306.759C419.795 308.355 418.295 310.45 417.045 313.044C415.795 315.639 415.104 318.119 414.973 320.483C414.863 322.84 415.357 324.97 416.455 326.873C417.56 328.761 419.33 330.293 421.765 331.467ZM439.359 342.773L454.186 311.555L466.24 317.279C466.543 317.424 466.876 317.599 467.238 317.807C467.621 318.007 467.991 318.235 468.347 318.493C469.863 319.514 470.972 320.741 471.674 322.172C472.397 323.596 472.728 325.117 472.668 326.736C472.622 328.362 472.212 329.991 471.436 331.624C470.317 333.98 468.724 335.73 466.658 336.874C464.591 338.018 462.295 338.265 459.77 337.614L458.541 337.349L448.178 332.428L442.546 344.286L439.359 342.773ZM458.263 351.751L458.14 336.123L461.753 336.404L461.927 353.491L458.263 351.751ZM449.62 329.393L458.4 333.563C458.66 333.686 458.97 333.816 459.331 333.952C459.691 334.088 460.055 334.198 460.422 334.284C461.601 334.561 462.685 334.535 463.673 334.207C464.676 333.886 465.556 333.357 466.314 332.619C467.086 331.887 467.703 331.038 468.162 330.069C468.622 329.101 468.892 328.086 468.97 327.026C469.07 325.957 468.928 324.933 468.543 323.953C468.173 322.98 467.508 322.124 466.548 321.385C466.25 321.155 465.931 320.95 465.591 320.771C465.258 320.577 464.961 320.419 464.701 320.295L455.921 316.125L449.62 329.393ZM466.712 355.764L481.539 324.546L484.726 326.059L477.724 340.801L498.969 332.824L503.045 334.76L481.342 342.918L489.41 366.544L485.248 364.567L477.312 341.668L469.899 357.277L466.712 355.764Z" fill="white"/>
<path d="M693.901 251.349L725.879 233.643L729.356 236.776L715.065 270.419L712.337 267.961L725.756 236.181L726.79 237.113L696.629 253.807L693.901 251.349ZM703.448 248.677L705.665 246.217L718.931 258.169L716.714 260.63L703.448 248.677ZM722.989 277.559L743.858 254.398L734.89 246.317L737.155 243.803L757.713 262.327L755.448 264.841L746.479 256.76L725.61 279.921L722.989 277.559ZM753.409 305.939C750.854 303.636 749.205 301.128 748.463 298.413C747.732 295.687 747.82 292.913 748.727 290.09C749.634 287.267 751.271 284.542 753.638 281.915C756.005 279.288 758.545 277.378 761.258 276.183C763.972 274.988 766.717 274.618 769.493 275.074C772.281 275.518 774.952 276.892 777.508 279.195C780.491 281.883 782.237 284.845 782.746 288.082C783.265 291.306 782.718 294.518 781.106 297.717L777.805 296.003C779.09 293.477 779.56 290.983 779.217 288.52C778.873 286.057 777.549 283.786 775.243 281.709C773.234 279.899 771.151 278.851 768.995 278.567C766.839 278.283 764.684 278.655 762.528 279.685C760.395 280.714 758.353 282.287 756.401 284.405C754.461 286.534 753.091 288.713 752.289 290.941C751.499 293.18 751.358 295.368 751.866 297.506C752.396 299.642 753.666 301.615 755.675 303.425C757.981 305.503 760.376 306.585 762.862 306.671C765.358 306.745 767.79 306.018 770.158 304.49L772.205 307.595C769.191 309.53 766.048 310.413 762.776 310.244C759.515 310.062 756.393 308.627 753.409 305.939ZM769.379 319.359L792.513 293.685L795.134 296.046L774.265 319.207L786.461 330.196L784.195 332.71L769.379 319.359ZM787.235 335.449L810.369 309.774L826.416 324.233L824.151 326.747L810.725 314.65L802.725 323.529L814.011 333.699L811.745 336.213L800.459 326.043L792.121 335.297L805.547 347.394L803.282 349.908L787.235 335.449ZM805.789 352.167L837.767 334.461L841.244 337.594L826.953 371.237L824.225 368.779L837.644 337L838.678 337.931L808.517 354.625L805.789 352.167ZM815.336 349.495L817.553 347.035L830.818 358.987L828.601 361.448L815.336 349.495ZM830.172 374.138L853.307 348.464L855.946 350.841L851.127 384.62L870.085 363.581L872.723 365.959L849.589 391.634L846.95 389.256L851.785 355.459L832.811 376.516L830.172 374.138ZM854.94 396.456L878.075 370.781L880.696 373.143L857.561 398.817L854.94 396.456ZM862.906 403.634L886.041 377.959L888.68 380.337L883.861 414.116L902.819 393.077L905.457 395.455L882.323 421.129L879.684 418.751L884.519 384.955L865.545 406.011L862.906 403.634ZM897.123 435.435C895.317 433.807 893.972 432.024 893.09 430.088C892.207 428.151 891.779 426.14 891.807 424.054C891.846 421.978 892.337 419.88 893.281 417.757C894.234 415.623 895.627 413.54 897.459 411.507C899.879 408.821 902.453 406.897 905.179 405.735C907.928 404.573 910.674 404.226 913.418 404.695C916.161 405.164 918.757 406.502 921.206 408.708C923.94 411.171 925.584 413.816 926.139 416.642C926.716 419.467 926.375 422.26 925.114 425.022L921.896 423.286C922.752 421.214 922.96 419.13 922.523 417.034C922.097 414.949 920.933 413.05 919.031 411.336C917.033 409.514 914.956 408.461 912.8 408.177C910.655 407.881 908.505 408.247 906.349 409.277C904.216 410.306 902.18 411.885 900.24 414.013C898.3 416.142 896.929 418.321 896.128 420.549C895.349 422.776 895.213 424.958 895.721 427.096C896.239 429.221 897.497 431.195 899.496 433.017C901.338 434.677 903.181 435.691 905.024 436.06C906.867 436.429 908.697 436.226 910.515 435.451C912.345 434.688 914.12 433.434 915.842 431.69L909.923 426.357L911.947 424.11L920.612 431.918C920.402 432.224 920.157 432.531 919.879 432.84C919.623 433.148 919.436 433.367 919.318 433.498C917.23 435.816 914.945 437.515 912.463 438.596C909.992 439.665 907.442 439.973 904.813 439.521C902.207 439.067 899.643 437.705 897.123 435.435Z" fill="black"/>
<path d="M772.09 232.962L795.225 207.287L797.846 209.649L774.711 235.324L772.09 232.962ZM797.051 220.563L802.834 214.144L805.455 216.506L799.672 222.924L797.051 220.563ZM787.683 247.012L810.817 221.337L813.224 223.506L803.86 254.191L833.354 241.644L835.797 243.845L812.678 269.502L810.182 267.253L828.031 247.444L801.019 259.029L799.326 257.503L808.062 229.45L790.197 249.277L787.683 247.012ZM834.61 290.266C832.804 288.638 831.459 286.855 830.576 284.919C829.694 282.982 829.266 280.971 829.294 278.885C829.333 276.81 829.824 274.711 830.767 272.588C831.721 270.454 833.114 268.371 834.945 266.338C837.366 263.652 839.94 261.728 842.666 260.567C845.415 259.404 848.161 259.057 850.905 259.526C853.648 259.995 856.244 261.333 858.693 263.539C861.427 266.002 863.071 268.647 863.626 271.473C864.203 274.298 863.862 277.091 862.601 279.853L859.383 278.118C860.239 276.045 860.447 273.961 860.01 271.865C859.584 269.78 858.42 267.881 856.518 266.167C854.52 264.345 852.443 263.292 850.287 263.008C848.142 262.712 845.992 263.079 843.836 264.108C841.703 265.137 839.667 266.716 837.727 268.845C835.787 270.973 834.416 273.152 833.615 275.38C832.836 277.607 832.7 279.789 833.208 281.927C833.726 284.052 834.984 286.026 836.983 287.848C838.825 289.508 840.668 290.523 842.511 290.891C844.354 291.26 846.184 291.057 848.002 290.282C849.832 289.519 851.607 288.265 853.329 286.522L847.41 281.188L849.434 278.941L858.099 286.749C857.889 287.055 857.644 287.362 857.366 287.671C857.11 287.979 856.923 288.198 856.805 288.329C854.716 290.647 852.432 292.346 849.95 293.427C847.479 294.496 844.929 294.804 842.3 294.352C839.693 293.898 837.13 292.536 834.61 290.266ZM859.86 313.017C857.304 310.714 855.656 308.206 854.914 305.491C854.183 302.765 854.271 299.991 855.177 297.168C856.084 294.345 857.721 291.62 860.088 288.993C862.455 286.367 864.995 284.456 867.709 283.261C870.422 282.066 873.167 281.697 875.944 282.153C878.731 282.597 881.403 283.97 883.958 286.273C886.526 288.586 888.169 291.101 888.888 293.816C889.63 296.531 889.547 299.299 888.641 302.122C887.746 304.955 886.115 307.686 883.748 310.312C881.381 312.939 878.835 314.845 876.109 316.029C873.396 317.224 870.646 317.599 867.858 317.155C865.093 316.71 862.427 315.331 859.86 313.017ZM862.125 310.503C864.134 312.313 866.222 313.366 868.39 313.661C870.558 313.956 872.708 313.589 874.841 312.56C876.997 311.531 879.039 309.946 880.967 307.806C882.894 305.667 884.253 303.477 885.043 301.239C885.845 299.01 885.986 296.833 885.468 294.708C884.949 292.582 883.691 290.609 881.693 288.787C879.684 286.977 877.602 285.929 875.446 285.645C873.29 285.361 871.134 285.734 868.979 286.763C866.846 287.792 864.809 289.371 862.869 291.5C860.93 293.628 859.559 295.807 858.757 298.035C857.978 300.262 857.843 302.445 858.35 304.582C858.869 306.707 860.127 308.681 862.125 310.503ZM885.664 336.268C883.108 333.966 881.46 331.457 880.718 328.743C879.987 326.016 880.075 323.242 880.982 320.419C881.888 317.596 883.525 314.872 885.892 312.245C888.259 309.618 890.799 307.707 893.513 306.512C896.226 305.317 898.971 304.948 901.748 305.404C904.535 305.848 907.207 307.221 909.762 309.524C912.33 311.837 913.973 314.352 914.692 317.067C915.434 319.782 915.352 322.55 914.445 325.373C913.55 328.207 911.919 330.937 909.552 333.564C907.185 336.191 904.639 338.096 901.914 339.28C899.2 340.475 896.45 340.85 893.662 340.406C890.898 339.961 888.231 338.582 885.664 336.268ZM887.929 333.754C889.938 335.564 892.026 336.617 894.194 336.912C896.362 337.207 898.513 336.84 900.646 335.812C902.801 334.782 904.843 333.197 906.771 331.058C908.699 328.918 910.057 326.729 910.847 324.49C911.649 322.262 911.791 320.085 911.272 317.959C910.754 315.834 909.495 313.86 907.497 312.038C905.488 310.228 903.406 309.181 901.25 308.896C899.094 308.612 896.938 308.985 894.783 310.015C892.65 311.043 890.613 312.622 888.674 314.751C886.734 316.88 885.363 319.058 884.561 321.286C883.782 323.514 883.647 325.696 884.154 327.833C884.673 329.959 885.931 331.932 887.929 333.754ZM901.556 349.618L924.69 323.944L932.482 330.964C932.755 331.211 933.213 331.634 933.856 332.235C934.511 332.847 935.104 333.468 935.635 334.097C937.339 336.127 938.314 338.319 938.561 340.674C938.808 343.029 938.439 345.411 937.454 347.818C936.469 350.226 934.991 352.523 933.021 354.71C931.05 356.897 928.918 358.606 926.626 359.835C924.333 361.065 922.003 361.679 919.635 361.678C917.268 361.676 914.986 360.934 912.79 359.451C912.132 358.987 911.453 358.461 910.754 357.874C910.066 357.276 909.597 356.864 909.347 356.639L901.556 349.618ZM906.531 349.546L911.612 354.125C912.1 354.564 912.633 355.024 913.213 355.503C913.816 355.982 914.357 356.361 914.836 356.642C916.569 357.73 918.322 358.211 920.094 358.085C921.878 357.97 923.627 357.391 925.34 356.351C927.064 355.298 928.697 353.916 930.239 352.204C931.792 350.481 933.003 348.707 933.871 346.883C934.739 345.059 935.132 343.26 935.051 341.486C934.97 339.711 934.305 338.024 933.055 336.424C932.725 335.976 932.28 335.478 931.719 334.93C931.181 334.38 930.68 333.896 930.216 333.478L925.135 328.9L906.531 349.546Z" fill="black"/>
<path d="M753.18 188.458L739.268 203.897C736.249 207.247 731.087 207.516 727.737 204.497C713.444 191.618 691.417 192.765 678.539 207.057L674.929 211.064C660.056 227.569 661.38 253.006 677.885 267.878L894.473 463.038C910.979 477.91 936.415 476.586 951.288 460.081L953.271 457.88C967.048 442.59 965.822 419.027 950.532 405.25C946.948 402.021 946.661 396.498 949.89 392.914L963.42 377.898C977.69 362.062 976.419 337.658 960.584 323.388L807.689 185.621C791.853 171.352 767.449 172.622 753.18 188.458Z" stroke="black"/>
<circle cx="691" cy="349" r="41" transform="rotate(-90 691 349)" fill="#2ED06E"/>
<rect x="1005" y="397" width="296" height="82" rx="41" fill="#2ED06E"/>
<path d="M1062.47 456.72C1059.03 456.72 1056.13 455.96 1053.76 454.44C1051.39 452.904 1049.6 450.784 1048.38 448.08C1047.17 445.376 1046.56 442.256 1046.56 438.72C1046.56 435.184 1047.17 432.064 1048.38 429.36C1049.6 426.656 1051.39 424.544 1053.76 423.024C1056.13 421.488 1059.03 420.72 1062.47 420.72C1066.49 420.72 1069.77 421.752 1072.31 423.816C1074.85 425.864 1076.6 428.616 1077.54 432.072L1073.94 433.008C1073.21 430.272 1071.89 428.104 1069.98 426.504C1068.08 424.904 1065.57 424.104 1062.47 424.104C1059.77 424.104 1057.52 424.72 1055.73 425.952C1053.93 427.184 1052.58 428.904 1051.67 431.112C1050.77 433.304 1050.31 435.84 1050.28 438.72C1050.26 441.6 1050.7 444.136 1051.6 446.328C1052.51 448.52 1053.87 450.24 1055.68 451.488C1057.5 452.72 1059.77 453.336 1062.47 453.336C1065.57 453.336 1068.08 452.536 1069.98 450.936C1071.89 449.32 1073.21 447.152 1073.94 444.432L1077.54 445.368C1076.6 448.824 1074.85 451.584 1072.31 453.648C1069.77 455.696 1066.49 456.72 1062.47 456.72ZM1082.84 456V421.44H1096.18C1096.52 421.44 1096.89 421.456 1097.31 421.488C1097.74 421.504 1098.17 421.552 1098.6 421.632C1100.41 421.904 1101.94 422.536 1103.19 423.528C1104.45 424.504 1105.4 425.736 1106.04 427.224C1106.7 428.712 1107.03 430.36 1107.03 432.168C1107.03 434.776 1106.34 437.04 1104.96 438.96C1103.59 440.88 1101.62 442.088 1099.06 442.584L1097.84 442.872H1086.36V456H1082.84ZM1103.76 456L1096.95 441.936L1100.33 440.64L1107.82 456H1103.76ZM1086.36 439.512H1096.08C1096.37 439.512 1096.71 439.496 1097.09 439.464C1097.48 439.432 1097.85 439.376 1098.22 439.296C1099.4 439.04 1100.37 438.552 1101.12 437.832C1101.89 437.112 1102.46 436.256 1102.83 435.264C1103.21 434.272 1103.4 433.24 1103.4 432.168C1103.4 431.096 1103.21 430.064 1102.83 429.072C1102.46 428.064 1101.89 427.2 1101.12 426.48C1100.37 425.76 1099.4 425.272 1098.22 425.016C1097.85 424.936 1097.48 424.888 1097.09 424.872C1096.71 424.84 1096.37 424.824 1096.08 424.824H1086.36V439.512ZM1113.12 456V421.44H1134.72V424.824H1116.65V436.776H1131.84V440.16H1116.65V452.616H1134.72V456H1113.12ZM1138.09 456L1150 421.44H1154.68L1166.58 456H1162.91L1151.6 423.408H1153L1141.76 456H1138.09ZM1143.4 447.624V444.312H1161.25V447.624H1143.4ZM1177.25 456V424.824H1165.18V421.44H1192.85V424.824H1180.78V456H1177.25ZM1197.18 456V421.44H1200.7V456H1197.18ZM1216.68 456L1204.78 421.44H1208.45L1218.99 451.992L1229.6 421.44H1233.27L1221.36 456H1216.68ZM1236.87 456V421.44H1258.47V424.824H1240.4V436.776H1255.59V440.16H1240.4V452.616H1258.47V456H1236.87Z" fill="white"/>
<rect x="1066" y="310" width="357" height="82" rx="41" fill="white"/>
<path d="M1109.72 369V334.44H1131.32V337.824H1113.25V349.776H1128.44V353.16H1113.25V365.616H1131.32V369H1109.72ZM1134.21 369L1146.19 351.504L1134.53 334.44H1138.8L1148.28 348.552L1157.76 334.44H1162.05L1150.39 351.504L1162.34 369H1158.07L1148.28 354.48L1138.51 369H1134.21ZM1166.2 369V334.44H1179.55C1179.88 334.44 1180.26 334.456 1180.68 334.488C1181.11 334.504 1181.54 334.552 1181.97 334.632C1183.78 334.904 1185.31 335.536 1186.56 336.528C1187.82 337.504 1188.77 338.736 1189.41 340.224C1190.07 341.712 1190.4 343.36 1190.4 345.168C1190.4 346.96 1190.07 348.6 1189.41 350.088C1188.76 351.576 1187.8 352.816 1186.53 353.808C1185.28 354.784 1183.76 355.408 1181.97 355.68C1181.54 355.744 1181.11 355.792 1180.68 355.824C1180.26 355.856 1179.88 355.872 1179.55 355.872H1169.73V369H1166.2ZM1169.73 352.512H1179.45C1179.74 352.512 1180.08 352.496 1180.46 352.464C1180.84 352.432 1181.22 352.376 1181.59 352.296C1182.77 352.04 1183.74 351.552 1184.49 350.832C1185.26 350.112 1185.83 349.256 1186.2 348.264C1186.58 347.272 1186.77 346.24 1186.77 345.168C1186.77 344.096 1186.58 343.064 1186.2 342.072C1185.83 341.064 1185.26 340.2 1184.49 339.48C1183.74 338.76 1182.77 338.272 1181.59 338.016C1181.22 337.936 1180.84 337.888 1180.46 337.872C1180.08 337.84 1179.74 337.824 1179.45 337.824H1169.73V352.512ZM1195.17 369V334.44H1216.77V337.824H1198.7V349.776H1213.89V353.16H1198.7V365.616H1216.77V369H1195.17ZM1222.55 369V334.44H1235.89C1236.23 334.44 1236.6 334.456 1237.02 334.488C1237.45 334.504 1237.88 334.552 1238.32 334.632C1240.12 334.904 1241.65 335.536 1242.9 336.528C1244.16 337.504 1245.12 338.736 1245.76 340.224C1246.41 341.712 1246.74 343.36 1246.74 345.168C1246.74 347.776 1246.05 350.04 1244.68 351.96C1243.3 353.88 1241.33 355.088 1238.77 355.584L1237.55 355.872H1226.08V369H1222.55ZM1243.48 369L1236.66 354.936L1240.04 353.64L1247.53 369H1243.48ZM1226.08 352.512H1235.8C1236.08 352.512 1236.42 352.496 1236.8 352.464C1237.19 352.432 1237.56 352.376 1237.93 352.296C1239.12 352.04 1240.08 351.552 1240.84 350.832C1241.6 350.112 1242.17 349.256 1242.54 348.264C1242.92 347.272 1243.12 346.24 1243.12 345.168C1243.12 344.096 1242.92 343.064 1242.54 342.072C1242.17 341.064 1241.6 340.2 1240.84 339.48C1240.08 338.76 1239.12 338.272 1237.93 338.016C1237.56 337.936 1237.19 337.888 1236.8 337.872C1236.42 337.84 1236.08 337.824 1235.8 337.824H1226.08V352.512ZM1253.31 369V334.44H1256.84V369H1253.31ZM1264.03 369V334.44H1285.63V337.824H1267.56V349.776H1282.75V353.16H1267.56V365.616H1285.63V369H1264.03ZM1291.41 369V334.44H1294.96L1313.99 362.76V334.44H1317.54V369H1313.99L1294.96 340.656V369H1291.41ZM1338.26 369.72C1334.82 369.72 1331.91 368.96 1329.55 367.44C1327.18 365.904 1325.39 363.784 1324.17 361.08C1322.95 358.376 1322.35 355.256 1322.35 351.72C1322.35 348.184 1322.95 345.064 1324.17 342.36C1325.39 339.656 1327.18 337.544 1329.55 336.024C1331.91 334.488 1334.82 333.72 1338.26 333.72C1342.27 333.72 1345.55 334.752 1348.1 336.816C1350.64 338.864 1352.39 341.616 1353.33 345.072L1349.73 346.008C1348.99 343.272 1347.67 341.104 1345.77 339.504C1343.87 337.904 1341.36 337.104 1338.26 337.104C1335.55 337.104 1333.31 337.72 1331.51 338.952C1329.72 340.184 1328.37 341.904 1327.46 344.112C1326.56 346.304 1326.1 348.84 1326.07 351.72C1326.05 354.6 1326.49 357.136 1327.39 359.328C1328.3 361.52 1329.66 363.24 1331.47 364.488C1333.29 365.72 1335.55 366.336 1338.26 366.336C1341.36 366.336 1343.87 365.536 1345.77 363.936C1347.67 362.32 1348.99 360.152 1349.73 357.432L1353.33 358.368C1352.39 361.824 1350.64 364.584 1348.1 366.648C1345.55 368.696 1342.27 369.72 1338.26 369.72ZM1358.63 369V334.44H1380.23V337.824H1362.15V349.776H1377.35V353.16H1362.15V365.616H1380.23V369H1358.63Z" fill="black"/>
<rect x="435" y="223.522" width="508" height="82" rx="41" transform="rotate(-26.1042 435 223.522)" fill="white"/>
<path d="M500.037 257.357L484.831 226.322L496.814 220.451C497.115 220.303 497.46 220.152 497.848 219.998C498.243 219.822 498.652 219.675 499.075 219.557C500.818 219.005 502.468 218.901 504.025 219.242C505.59 219.563 506.987 220.25 508.216 221.305C509.46 222.352 510.48 223.688 511.275 225.311C512.064 226.921 512.491 228.538 512.557 230.163C512.622 231.787 512.306 233.323 511.607 234.77C510.916 236.196 509.826 237.425 508.336 238.458C507.976 238.705 507.609 238.938 507.236 239.157C506.876 239.369 506.545 239.549 506.244 239.697L497.429 244.016L503.205 255.805L500.037 257.357ZM495.951 240.999L504.679 236.722C504.938 236.595 505.232 236.433 505.563 236.235C505.894 236.037 506.207 235.822 506.502 235.588C507.453 234.837 508.107 233.973 508.466 232.995C508.839 232.011 508.972 230.992 508.866 229.94C508.774 228.88 508.493 227.869 508.021 226.906C507.549 225.943 506.923 225.101 506.142 224.379C505.368 223.636 504.477 223.11 503.471 222.801C502.479 222.486 501.395 222.473 500.219 222.765C499.853 222.855 499.495 222.977 499.143 223.132C498.784 223.272 498.475 223.405 498.216 223.532L489.488 227.809L495.951 240.999ZM526.051 244.611L510.845 213.576L522.827 207.704C523.129 207.557 523.474 207.406 523.861 207.251C524.256 207.076 524.665 206.929 525.089 206.81C526.832 206.259 528.482 206.154 530.039 206.496C531.604 206.816 533.001 207.504 534.23 208.558C535.474 209.606 536.494 210.941 537.289 212.565C538.437 214.907 538.815 217.243 538.424 219.572C538.033 221.902 536.798 223.853 534.717 225.424L533.745 226.222L523.443 231.269L529.219 243.058L526.051 244.611ZM544.844 235.402L532.535 225.772L535.004 223.119L548.487 233.618L544.844 235.402ZM521.964 228.252L530.693 223.975C530.952 223.849 531.246 223.686 531.577 223.489C531.908 223.291 532.221 223.075 532.516 222.841C533.467 222.091 534.121 221.226 534.48 220.249C534.852 219.265 534.986 218.246 534.88 217.193C534.788 216.133 534.507 215.122 534.035 214.16C533.563 213.197 532.937 212.355 532.155 211.633C531.381 210.89 530.491 210.364 529.485 210.055C528.493 209.739 527.409 209.727 526.233 210.018C525.867 210.108 525.508 210.231 525.156 210.385C524.798 210.525 524.489 210.659 524.23 210.786L515.502 215.062L521.964 228.252ZM566.125 225.777C563.036 227.29 560.094 227.886 557.299 227.563C554.496 227.225 551.954 226.11 549.672 224.217C547.391 222.324 545.472 219.789 543.916 216.614C542.36 213.439 541.533 210.37 541.436 207.406C541.338 204.443 542.018 201.758 543.475 199.351C544.926 196.93 547.196 194.963 550.285 193.449C553.388 191.928 556.334 191.34 559.122 191.685C561.917 192.008 564.456 193.116 566.737 195.009C569.034 196.895 570.96 199.426 572.515 202.601C574.071 205.776 574.891 208.849 574.974 211.819C575.072 214.782 574.396 217.475 572.945 219.896C571.502 222.296 569.229 224.256 566.125 225.777ZM564.636 222.738C567.064 221.548 568.819 220.002 569.901 218.1C570.982 216.199 571.443 214.066 571.283 211.704C571.13 209.32 570.421 206.835 569.153 204.248C567.886 201.662 566.361 199.585 564.577 198.018C562.808 196.444 560.841 195.502 558.675 195.191C556.51 194.88 554.209 195.312 551.774 196.488C549.346 197.677 547.598 199.22 546.531 201.115C545.464 203.009 545.007 205.149 545.159 207.533C545.319 209.896 546.025 212.374 547.278 214.967C548.531 217.56 550.042 219.644 551.811 221.218C553.587 222.771 555.562 223.71 557.735 224.035C559.9 224.346 562.201 223.913 564.636 222.738ZM584.435 216.003L569.228 184.969L581.211 179.097C582.95 178.245 584.641 177.862 586.287 177.947C587.932 178.031 589.413 178.509 590.729 179.378C592.039 180.233 593.053 181.393 593.771 182.858C594.588 184.525 594.871 186.23 594.621 187.974C594.364 189.704 593.611 191.186 592.363 192.421L591.803 191.386C594.096 190.976 596.169 191.207 598.023 192.08C599.876 192.954 601.303 194.411 602.302 196.451C603.182 198.247 603.562 199.986 603.441 201.666C603.313 203.332 602.732 204.855 601.698 206.235C600.663 207.615 599.234 208.752 597.409 209.646L584.435 216.003ZM586.136 211.402L595.144 206.988C596.409 206.368 597.435 205.589 598.222 204.651C599.003 203.698 599.476 202.665 599.642 201.55C599.823 200.428 599.625 199.278 599.048 198.099C598.484 196.95 597.712 196.046 596.729 195.387C595.747 194.728 594.663 194.35 593.476 194.255C592.296 194.138 591.124 194.365 589.96 194.935L580.37 199.634L586.136 211.402ZM578.902 196.639L587.673 192.341C588.665 191.855 589.461 191.189 590.062 190.342C590.655 189.481 590.996 188.539 591.083 187.517C591.184 186.487 590.981 185.455 590.474 184.42C589.756 182.955 588.662 182.012 587.191 181.593C585.735 181.166 584.223 181.336 582.657 182.104L573.886 186.402L578.902 196.639ZM611.301 202.84L596.094 171.805L599.262 170.253L612.98 198.248L627.721 191.025L629.21 194.064L611.301 202.84ZM632.884 192.264L617.678 161.229L637.075 151.725L638.564 154.764L622.335 162.716L627.594 173.448L641.236 166.764L642.725 169.803L629.083 176.487L634.564 187.673L650.792 179.721L652.281 182.76L632.884 192.264ZM657.467 180.219L642.261 149.184L645.17 147.758L670.157 167.881L669.502 135.836L672.455 134.389L687.651 165.402L684.633 166.881L672.901 142.937L673.588 172.32L671.54 173.323L648.763 154.764L660.506 178.73L657.467 180.219ZM686.341 148.512L685.01 145.796L697.941 139.46L699.272 142.176L686.341 148.512ZM722.903 148.958C720.733 150.021 718.603 150.619 716.512 150.753C714.429 150.865 712.493 150.531 710.703 149.751C708.928 148.964 707.417 147.735 706.171 146.065L709.14 143.942C710.643 145.7 712.509 146.746 714.739 147.078C716.962 147.397 719.23 146.989 721.543 145.856C723.066 145.11 724.315 144.204 725.289 143.138C726.257 142.058 726.867 140.904 727.12 139.675C727.374 138.446 727.201 137.221 726.603 136C726.208 135.196 725.73 134.584 725.168 134.164C724.599 133.73 723.986 133.442 723.329 133.301C722.672 133.16 722.003 133.105 721.323 133.135C720.636 133.151 719.988 133.21 719.379 133.312L710.362 134.818C709.279 135.009 708.234 135.094 707.225 135.072C706.21 135.035 705.256 134.87 704.363 134.576C703.479 134.261 702.674 133.783 701.949 133.14C701.225 132.497 700.609 131.659 700.102 130.624C699.243 128.871 698.96 127.13 699.253 125.401C699.546 123.672 700.321 122.071 701.578 120.6C702.835 119.129 704.487 117.901 706.534 116.916C708.603 115.902 710.629 115.364 712.612 115.301C714.609 115.231 716.473 115.618 718.205 116.462C719.93 117.292 721.419 118.549 722.672 120.233L719.649 122.463C718.771 121.218 717.702 120.29 716.44 119.679C715.179 119.067 713.814 118.792 712.347 118.852C710.887 118.89 709.435 119.254 707.991 119.943C706.597 120.626 705.471 121.472 704.611 122.482C703.759 123.469 703.214 124.52 702.976 125.635C702.738 126.749 702.872 127.824 703.379 128.858C703.893 129.907 704.592 130.607 705.477 130.957C706.376 131.301 707.337 131.445 708.36 131.388C709.399 131.325 710.376 131.211 711.293 131.047L718.248 129.858C718.964 129.721 719.827 129.609 720.837 129.524C721.854 129.418 722.913 129.47 724.013 129.679C725.121 129.867 726.176 130.312 727.179 131.014C728.183 131.716 729.047 132.807 729.772 134.287C730.476 135.724 730.819 137.15 730.8 138.567C730.796 139.977 730.467 141.323 729.812 142.606C729.172 143.881 728.261 145.058 727.079 146.136C725.918 147.222 724.526 148.162 722.903 148.958ZM751.252 135.067C748.163 136.581 745.221 137.176 742.426 136.853C739.624 136.515 737.082 135.4 734.8 133.507C732.518 131.614 730.599 129.08 729.043 125.904C727.488 122.729 726.661 119.66 726.563 116.697C726.465 113.733 727.145 111.048 728.603 108.641C730.053 106.22 732.323 104.253 735.412 102.739C738.516 101.218 741.461 100.63 744.249 100.975C747.045 101.298 749.583 102.406 751.865 104.299C754.161 106.185 756.087 108.716 757.643 111.891C759.199 115.066 760.018 118.139 760.102 121.109C760.2 124.073 759.523 126.765 758.073 129.186C756.629 131.586 754.356 133.546 751.252 135.067ZM749.763 132.028C752.192 130.838 753.946 129.293 755.028 127.391C756.109 125.489 756.57 123.357 756.41 120.994C756.258 118.61 755.548 116.125 754.281 113.538C753.013 110.952 751.488 108.876 749.705 107.308C747.936 105.734 745.968 104.792 743.803 104.481C741.637 104.17 739.336 104.603 736.901 105.778C734.473 106.968 732.725 108.51 731.658 110.405C730.591 112.3 730.134 114.439 730.286 116.823C730.446 119.186 731.153 121.664 732.405 124.257C733.658 126.85 735.169 128.934 736.938 130.508C738.715 132.061 740.689 133 742.862 133.325C745.028 133.636 747.328 133.204 749.763 132.028ZM769.993 125.082L754.787 94.0477L757.955 92.4954L771.672 120.491L786.414 113.268L787.903 116.307L769.993 125.082ZM796.013 112.333L770.117 86.536L773.415 84.9203L796.319 107.72L792.402 75.6168L795.699 74.0011L800.216 110.274L796.013 112.333ZM814.57 103.24L799.364 72.2056L802.532 70.6532L817.738 101.688L814.57 103.24ZM824.2 98.5221L808.993 67.4873L812.183 65.9244L841.734 82.9815L829.273 57.5503L832.463 55.9874L847.67 87.0221L844.48 88.585L814.918 71.5064L827.389 96.9592L824.2 98.5221ZM866.459 78.6171C864.275 79.6872 862.12 80.271 859.994 80.3684C857.868 80.4657 855.843 80.1131 853.917 79.3105C852.006 78.5009 850.241 77.2631 848.623 75.5971C846.998 73.9168 845.584 71.8481 844.38 69.3912C842.789 66.1441 841.962 63.039 841.9 60.0761C841.845 57.0917 842.547 54.414 844.004 52.0429C845.461 49.6718 847.67 47.7611 850.63 46.3109C853.934 44.6916 857.001 44.151 859.831 44.689C862.667 45.2055 865.132 46.5635 867.225 48.7628L864.416 51.1015C862.811 49.5359 860.955 48.5656 858.847 48.1909C856.754 47.8091 854.557 48.1814 852.259 49.3079C849.823 50.4833 848.072 52.0184 847.005 53.9132C845.931 55.7937 845.47 57.9259 845.623 60.31C845.783 62.6726 846.489 65.1506 847.742 67.7438C848.995 70.3371 850.506 72.4208 852.275 73.995C854.051 75.5477 856.026 76.4867 858.198 76.8119C860.364 77.1227 862.664 76.6904 865.1 75.515C867.327 74.4237 868.955 73.0916 869.983 71.5185C871.012 69.9453 871.506 68.1711 871.464 66.1958C871.437 64.2135 870.936 62.0985 869.959 59.851L862.804 63.3569L861.473 60.6414L871.948 55.5092C872.153 55.8185 872.347 56.16 872.53 56.5335C872.72 56.8857 872.854 57.1408 872.931 57.2988C874.304 60.1006 875.03 62.8542 875.108 65.5597C875.18 68.2508 874.516 70.732 873.116 73.0034C871.724 75.2534 869.505 77.1246 866.459 78.6171Z" fill="black"/>
<circle cx="400" cy="213" r="41" transform="rotate(-90 400 213)" fill="#0E0E0E"/>
<path d="M388.611 212.431H411.456" stroke="#FEFCF2" stroke-width="2.27778"/>
<path d="M404.804 205.148L412.052 212.396L404.804 219.644" stroke="#FEFCF2" stroke-width="2.27778" stroke-linecap="round" stroke-linejoin="round"/>
<path d="M1434 444.059C1430.72 445.101 1427.72 445.257 1425.01 444.526C1422.29 443.78 1419.93 442.303 1417.96 440.095C1415.98 437.886 1414.45 435.097 1413.38 431.728C1412.31 428.358 1411.94 425.2 1412.28 422.255C1412.62 419.31 1413.69 416.754 1415.49 414.588C1417.28 412.406 1419.81 410.794 1423.09 409.752C1426.92 408.535 1430.36 408.524 1433.41 409.72C1436.45 410.901 1438.95 412.995 1440.89 416.002L1437.75 417.985C1436.22 415.601 1434.3 413.935 1432 412.987C1429.7 412.04 1427.07 412.036 1424.12 412.977C1421.54 413.796 1419.58 415.065 1418.25 416.782C1416.91 418.499 1416.15 420.548 1415.95 422.928C1415.76 425.289 1416.08 427.846 1416.93 430.6C1417.78 433.35 1418.97 435.633 1420.49 437.45C1422.02 439.263 1423.84 440.49 1425.94 441.131C1428.05 441.753 1430.4 441.654 1432.98 440.834C1435.93 439.893 1438.08 438.372 1439.41 436.27C1440.73 434.153 1441.33 431.687 1441.21 428.872L1444.92 428.673C1445.07 432.253 1444.25 435.411 1442.45 438.149C1440.64 440.872 1437.83 442.842 1434 444.059ZM1453.19 437.2L1442.72 404.266L1455.43 400.222C1455.76 400.12 1456.12 400.021 1456.52 399.926C1456.94 399.81 1457.37 399.725 1457.8 399.67C1459.61 399.381 1461.26 399.521 1462.75 400.088C1464.25 400.635 1465.53 401.52 1466.59 402.744C1467.66 403.964 1468.48 405.435 1469.02 407.158C1469.81 409.643 1469.84 412.009 1469.12 414.256C1468.39 416.502 1466.88 418.25 1464.59 419.499L1463.51 420.144L1452.58 423.621L1456.55 436.131L1453.19 437.2ZM1473.14 430.858L1462.38 419.521L1465.21 417.261L1477 429.629L1473.14 430.858ZM1451.56 420.419L1460.82 417.473C1461.09 417.386 1461.41 417.269 1461.77 417.122C1462.12 416.975 1462.46 416.808 1462.79 416.62C1463.84 416.017 1464.62 415.259 1465.11 414.345C1465.63 413.426 1465.91 412.438 1465.96 411.381C1466.02 410.319 1465.9 409.278 1465.57 408.256C1465.25 407.234 1464.75 406.309 1464.08 405.48C1463.43 404.631 1462.62 403.98 1461.67 403.526C1460.74 403.068 1459.67 402.896 1458.46 403.011C1458.09 403.047 1457.71 403.115 1457.34 403.216C1456.97 403.302 1456.64 403.388 1456.37 403.476L1447.11 406.421L1451.56 420.419ZM1482.05 428.024L1471.58 395.089L1492.16 388.543L1493.19 391.768L1475.96 397.244L1479.59 408.634L1494.06 404.03L1495.09 407.255L1480.61 411.859L1484.39 423.73L1501.61 418.253L1502.63 421.478L1482.05 428.024ZM1505.85 420.455L1506.72 383.912L1511.18 382.494L1533 411.821L1529.5 412.934L1508.85 385.301L1510.18 384.879L1509.35 419.342L1505.85 420.455ZM1508.37 410.865L1507.36 407.709L1524.38 402.298L1525.38 405.454L1508.37 410.865ZM1543.16 408.589L1533.71 378.879L1522.21 382.537L1521.19 379.313L1547.56 370.926L1548.58 374.151L1537.08 377.81L1546.52 407.52L1543.16 408.589ZM1562.15 402.549L1551.68 369.615L1555.04 368.545L1565.52 401.48L1562.15 402.549ZM1572.37 399.3L1561.9 366.365L1565.28 365.289L1592 386.509L1583.42 359.521L1586.81 358.444L1597.28 391.379L1593.9 392.456L1567.17 371.212L1575.76 398.223L1572.37 399.3ZM1617.1 385.831C1614.78 386.568 1612.57 386.828 1610.45 386.612C1608.33 386.395 1606.38 385.748 1604.59 384.671C1602.82 383.589 1601.26 382.105 1599.9 380.219C1598.54 378.318 1597.45 376.063 1596.62 373.456C1595.52 370.01 1595.16 366.817 1595.54 363.877C1595.92 360.918 1597.01 358.372 1598.8 356.241C1600.59 354.111 1603.06 352.546 1606.2 351.547C1609.71 350.432 1612.82 350.348 1615.54 351.297C1618.27 352.225 1620.51 353.931 1622.25 356.415L1619.13 358.314C1617.77 356.53 1616.08 355.297 1614.05 354.616C1612.04 353.93 1609.81 353.975 1607.37 354.751C1604.79 355.555 1602.83 356.816 1601.5 358.533C1600.16 360.235 1599.39 362.276 1599.19 364.657C1599 367.017 1599.33 369.572 1600.19 372.321C1601.05 375.071 1602.23 377.354 1603.75 379.172C1605.28 380.969 1607.1 382.188 1609.2 382.83C1611.29 383.456 1613.63 383.367 1616.21 382.563C1618.58 381.811 1620.38 380.733 1621.63 379.328C1622.88 377.924 1623.63 376.241 1623.88 374.282C1624.15 372.317 1623.96 370.151 1623.33 367.784L1615.73 370.199L1614.82 367.317L1625.93 363.782C1626.09 364.119 1626.23 364.485 1626.36 364.881C1626.49 365.258 1626.59 365.53 1626.64 365.697C1627.59 368.671 1627.9 371.501 1627.58 374.189C1627.25 376.861 1626.23 379.217 1624.51 381.258C1622.8 383.279 1620.33 384.803 1617.1 385.831ZM1653.86 373.387L1644.41 343.677L1632.9 347.336L1631.88 344.111L1658.25 335.725L1659.28 338.95L1647.77 342.608L1657.22 372.318L1653.86 373.387ZM1685.94 363.939C1682.66 364.982 1679.67 365.137 1676.95 364.407C1674.23 363.66 1671.88 362.183 1669.9 359.975C1667.92 357.767 1666.4 354.977 1665.32 351.608C1664.25 348.238 1663.89 345.081 1664.23 342.135C1664.57 339.19 1665.63 336.634 1667.43 334.468C1669.22 332.287 1671.75 330.675 1675.03 329.632C1678.33 328.585 1681.33 328.437 1684.03 329.188C1686.75 329.918 1689.1 331.388 1691.08 333.596C1693.07 335.8 1694.6 338.586 1695.67 341.956C1696.75 345.326 1697.1 348.486 1696.75 351.436C1696.41 354.381 1695.35 356.945 1693.55 359.126C1691.77 361.287 1689.24 362.892 1685.94 363.939ZM1684.92 360.714C1687.49 359.895 1689.46 358.624 1690.81 356.902C1692.16 355.18 1692.93 353.139 1693.12 350.778C1693.32 348.398 1692.98 345.835 1692.11 343.091C1691.23 340.346 1690.03 338.068 1688.5 336.255C1686.98 334.438 1685.17 333.216 1683.08 332.59C1680.98 331.964 1678.64 332.053 1676.06 332.857C1673.48 333.676 1671.53 334.945 1670.19 336.662C1668.86 338.379 1668.09 340.428 1667.89 342.808C1667.7 345.169 1668.03 347.724 1668.89 350.473C1669.75 353.223 1670.94 355.506 1672.46 357.323C1673.98 359.121 1675.8 360.34 1677.9 360.981C1680 361.607 1682.34 361.518 1684.92 360.714ZM1718.91 353.456C1716.59 354.193 1714.37 354.454 1712.25 354.237C1710.14 354.021 1708.19 353.374 1706.4 352.296C1704.63 351.214 1703.06 349.73 1701.71 347.844C1700.35 345.943 1699.25 343.689 1698.43 341.081C1697.33 337.635 1696.97 334.443 1697.34 331.503C1697.73 328.543 1698.82 325.998 1700.61 323.867C1702.4 321.736 1704.86 320.171 1708 319.172C1711.51 318.057 1714.62 317.974 1717.34 318.922C1720.07 319.85 1722.31 321.556 1724.06 324.04L1720.93 325.94C1719.58 324.155 1717.89 322.922 1715.86 322.241C1713.84 321.555 1711.61 321.6 1709.17 322.376C1706.59 323.18 1704.63 324.441 1703.3 326.158C1701.96 327.86 1701.19 329.901 1700.99 332.282C1700.8 334.642 1701.14 337.197 1701.99 339.947C1702.85 342.696 1704.04 344.98 1705.56 346.797C1707.09 348.594 1708.9 349.814 1711 350.455C1713.1 351.081 1715.44 350.992 1718.02 350.188C1720.38 349.436 1722.19 348.358 1723.44 346.954C1724.69 345.549 1725.44 343.867 1725.69 341.907C1725.95 339.942 1725.77 337.776 1725.13 335.41L1717.54 337.824L1716.62 334.943L1727.74 331.408C1727.89 331.744 1728.03 332.11 1728.16 332.507C1728.3 332.883 1728.39 333.155 1728.45 333.323C1729.39 336.296 1729.7 339.126 1729.38 341.814C1729.06 344.486 1728.04 346.843 1726.32 348.883C1724.61 350.904 1722.14 352.428 1718.91 353.456ZM1737.74 346.71L1727.27 313.776L1747.85 307.23L1748.88 310.455L1731.66 315.931L1735.28 327.321L1749.76 322.717L1750.78 325.942L1736.31 330.546L1740.08 342.416L1757.3 336.94L1758.33 340.164L1737.74 346.71ZM1772.59 335.629L1763.14 305.919L1751.64 309.577L1750.61 306.352L1776.98 297.966L1778.01 301.191L1766.51 304.85L1775.95 334.559L1772.59 335.629ZM1791.13 329.735L1780.65 296.8L1784.01 295.731L1788.73 310.574L1806.94 304.785L1802.22 289.941L1805.56 288.879L1816.03 321.814L1812.69 322.876L1807.97 308.01L1789.76 313.799L1794.49 328.666L1791.13 329.735ZM1822.44 319.777L1811.97 286.842L1832.55 280.296L1833.58 283.521L1816.35 288.997L1819.98 300.387L1834.45 295.783L1835.48 299.008L1821 303.612L1824.78 315.482L1842 310.006L1843.02 313.231L1822.44 319.777ZM1848.53 311.48L1838.05 278.546L1850.77 274.502C1851.09 274.4 1851.45 274.301 1851.86 274.206C1852.28 274.09 1852.7 274.005 1853.14 273.95C1854.94 273.661 1856.59 273.801 1858.08 274.368C1859.58 274.915 1860.86 275.8 1861.92 277.024C1863 278.244 1863.81 279.715 1864.36 281.438C1865.15 283.923 1865.18 286.289 1864.45 288.536C1863.72 290.782 1862.21 292.53 1859.92 293.779L1858.84 294.424L1847.91 297.901L1851.89 310.411L1848.53 311.48ZM1868.47 305.138L1857.71 293.801L1860.55 291.541L1872.34 303.909L1868.47 305.138ZM1846.89 294.699L1856.16 291.753C1856.43 291.666 1856.75 291.549 1857.1 291.402C1857.46 291.255 1857.8 291.088 1858.13 290.9C1859.18 290.297 1859.95 289.539 1860.45 288.625C1860.96 287.706 1861.24 286.718 1861.29 285.661C1861.36 284.599 1861.23 283.558 1860.91 282.536C1860.58 281.514 1860.08 280.589 1859.42 279.76C1858.76 278.911 1857.96 278.26 1857.01 277.806C1856.07 277.348 1855 277.176 1853.8 277.291C1853.42 277.327 1853.05 277.395 1852.68 277.496C1852.3 277.582 1851.98 277.668 1851.7 277.756L1842.44 280.701L1846.89 294.699Z" fill="black"/>
<path d="M1498.02 353.688L1487.55 320.754L1490.91 319.685L1500.36 349.394L1516 344.42L1517.02 347.644L1498.02 353.688ZM1520.92 346.404L1510.45 313.47L1531.03 306.924L1532.06 310.149L1514.84 315.625L1518.46 327.015L1532.94 322.411L1533.96 325.636L1519.49 330.24L1523.26 342.11L1540.48 336.634L1541.51 339.858L1520.92 346.404ZM1555.77 335.323L1546.32 305.613L1534.82 309.271L1533.79 306.046L1560.16 297.66L1561.19 300.885L1549.69 304.544L1559.13 334.253L1555.77 335.323ZM1565.99 304.873L1563.37 296.639L1566.74 295.57L1569.35 303.804L1565.99 304.873ZM1594.85 323.651C1592.55 324.383 1590.35 324.662 1588.26 324.486C1586.19 324.29 1584.32 323.675 1582.67 322.64C1581.02 321.6 1579.71 320.163 1578.72 318.327L1581.97 316.664C1583.2 318.625 1584.89 319.933 1587.05 320.591C1589.2 321.233 1591.51 321.163 1593.96 320.383C1595.58 319.869 1596.95 319.157 1598.07 318.246C1599.18 317.32 1599.96 316.268 1600.39 315.09C1600.82 313.912 1600.83 312.675 1600.42 311.379C1600.14 310.525 1599.76 309.849 1599.27 309.352C1598.77 308.839 1598.2 308.464 1597.57 308.228C1596.95 307.991 1596.29 307.838 1595.62 307.768C1594.93 307.683 1594.28 307.646 1593.67 307.657L1584.53 307.819C1583.43 307.85 1582.38 307.779 1581.39 307.609C1580.39 307.423 1579.47 307.119 1578.63 306.698C1577.8 306.256 1577.07 305.664 1576.45 304.922C1575.83 304.179 1575.34 303.259 1574.99 302.162C1574.4 300.301 1574.38 298.538 1574.92 296.87C1575.47 295.203 1576.47 293.734 1577.93 292.464C1579.39 291.194 1581.2 290.222 1583.37 289.549C1585.57 288.851 1587.65 288.616 1589.62 288.846C1591.61 289.071 1593.4 289.728 1594.98 290.818C1596.57 291.892 1597.86 293.355 1598.85 295.205L1595.53 296.966C1594.85 295.605 1593.92 294.53 1592.77 293.74C1591.61 292.95 1590.3 292.476 1588.84 292.319C1587.39 292.142 1585.9 292.289 1584.37 292.758C1582.89 293.228 1581.65 293.899 1580.65 294.771C1579.66 295.623 1578.97 296.582 1578.57 297.649C1578.17 298.717 1578.15 299.799 1578.5 300.897C1578.85 302.01 1579.44 302.805 1580.26 303.282C1581.1 303.754 1582.03 304.038 1583.05 304.133C1584.09 304.223 1585.07 304.254 1586 304.227L1593.06 304.074C1593.78 304.044 1594.65 304.061 1595.67 304.125C1596.69 304.17 1597.73 304.377 1598.78 304.745C1599.85 305.094 1600.83 305.69 1601.72 306.532C1602.61 307.374 1603.3 308.58 1603.8 310.151C1604.29 311.676 1604.42 313.137 1604.19 314.536C1603.98 315.929 1603.45 317.213 1602.62 318.385C1601.8 319.553 1600.72 320.583 1599.39 321.475C1598.09 322.378 1596.57 323.103 1594.85 323.651ZM1632.19 311.775C1629.89 312.507 1627.7 312.786 1625.61 312.61C1623.53 312.414 1621.67 311.799 1620.01 310.764C1618.37 309.724 1617.06 308.287 1616.07 306.451L1619.32 304.789C1620.55 306.749 1622.24 308.057 1624.4 308.715C1626.55 309.357 1628.85 309.287 1631.3 308.507C1632.92 307.993 1634.29 307.281 1635.41 306.37C1636.53 305.444 1637.3 304.392 1637.73 303.214C1638.16 302.036 1638.17 300.799 1637.76 299.503C1637.49 298.649 1637.11 297.974 1636.61 297.476C1636.11 296.963 1635.55 296.588 1634.92 296.352C1634.29 296.115 1633.64 295.962 1632.96 295.892C1632.28 295.807 1631.63 295.77 1631.01 295.782L1621.87 295.943C1620.77 295.974 1619.72 295.903 1618.73 295.733C1617.73 295.547 1616.81 295.243 1615.97 294.822C1615.14 294.38 1614.42 293.788 1613.8 293.046C1613.17 292.304 1612.69 291.383 1612.34 290.286C1611.75 288.425 1611.72 286.662 1612.27 284.994C1612.81 283.327 1613.81 281.858 1615.27 280.588C1616.73 279.318 1618.55 278.346 1620.72 277.673C1622.91 276.975 1625 276.74 1626.97 276.97C1628.95 277.195 1630.74 277.852 1632.33 278.942C1633.91 280.016 1635.2 281.479 1636.19 283.33L1632.87 285.09C1632.19 283.729 1631.27 282.654 1630.11 281.864C1628.95 281.074 1627.64 280.6 1626.18 280.443C1624.73 280.266 1623.24 280.413 1621.71 280.882C1620.24 281.353 1619 282.024 1618 282.895C1617.01 283.747 1616.32 284.706 1615.92 285.773C1615.52 286.841 1615.49 287.923 1615.84 289.021C1616.19 290.134 1616.78 290.929 1617.61 291.406C1618.44 291.878 1619.37 292.162 1620.4 292.257C1621.43 292.347 1622.42 292.378 1623.35 292.351L1630.4 292.198C1631.13 292.168 1632 292.185 1633.01 292.249C1634.03 292.294 1635.07 292.501 1636.13 292.87C1637.2 293.218 1638.18 293.814 1639.06 294.656C1639.95 295.498 1640.65 296.704 1641.15 298.275C1641.63 299.8 1641.76 301.261 1641.53 302.66C1641.32 304.054 1640.8 305.337 1639.96 306.509C1639.14 307.677 1638.07 308.707 1636.74 309.599C1635.43 310.502 1633.92 311.227 1632.19 311.775ZM1657.49 302.976L1648.04 273.266L1636.53 276.925L1635.51 273.7L1661.88 265.314L1662.9 268.539L1651.4 272.197L1660.85 301.907L1657.49 302.976ZM1672.84 298.094L1673.71 261.552L1678.17 260.133L1699.99 289.46L1696.49 290.573L1675.84 262.94L1677.17 262.518L1676.34 296.981L1672.84 298.094ZM1675.36 288.504L1674.35 285.348L1691.37 279.937L1692.37 283.093L1675.36 288.504ZM1704.12 288.147L1693.64 255.212L1706.36 251.168C1706.68 251.066 1707.04 250.968 1707.45 250.872C1707.87 250.757 1708.29 250.671 1708.73 250.617C1710.53 250.328 1712.18 250.467 1713.67 251.034C1715.17 251.581 1716.45 252.467 1717.51 253.691C1718.59 254.91 1719.4 256.381 1719.95 258.104C1720.74 260.59 1720.77 262.956 1720.04 265.202C1719.31 267.449 1717.8 269.197 1715.51 270.445L1714.43 271.091L1703.5 274.567L1707.48 287.078L1704.12 288.147ZM1724.06 281.805L1713.3 270.468L1716.14 268.207L1727.93 280.576L1724.06 281.805ZM1702.48 271.365L1711.75 268.42C1712.02 268.332 1712.34 268.215 1712.69 268.068C1713.05 267.921 1713.39 267.754 1713.72 267.566C1714.77 266.964 1715.54 266.205 1716.04 265.291C1716.55 264.372 1716.84 263.384 1716.89 262.328C1716.95 261.266 1716.82 260.224 1716.5 259.203C1716.17 258.181 1715.68 257.256 1715.01 256.427C1714.35 255.578 1713.55 254.926 1712.6 254.473C1711.67 254.015 1710.59 253.843 1709.39 253.958C1709.01 253.993 1708.64 254.061 1708.27 254.163C1707.89 254.248 1707.57 254.335 1707.3 254.422L1698.03 257.368L1702.48 271.365ZM1741.74 276.185L1732.29 246.475L1720.78 250.133L1719.76 246.908L1746.13 238.522L1747.15 241.747L1735.65 245.405L1745.1 275.115L1741.74 276.185Z" fill="black"/>
<path d="M1449.88 347.585L1452.79 356.717C1456.03 366.909 1450.4 377.798 1440.2 381.039L1399.81 393.886C1378.63 400.619 1366.93 423.241 1373.66 444.414C1380.39 465.586 1403.02 477.292 1424.19 470.559L1881.18 325.231C1902.35 318.498 1914.06 295.876 1907.33 274.703C1900.59 253.531 1877.97 241.825 1856.8 248.558L1816.64 261.329C1806.48 264.56 1795.62 258.943 1792.39 248.782L1789.47 239.593C1783.01 219.28 1761.31 208.049 1740.99 214.509L1474.97 299.107C1454.66 305.566 1443.42 327.271 1449.88 347.585Z" stroke="black"/>
<rect x="932" y="223" width="409" height="82" rx="41" fill="white"/>
<path d="M975.844 282V247.44H997.444V250.824H979.372V262.776H994.564V266.16H979.372V278.616H997.444V282H975.844ZM1003.22 282V247.44H1006.77L1025.8 275.76V247.44H1029.36V282H1025.8L1006.77 253.656V282H1003.22ZM1045.27 282V250.824H1033.2V247.44H1060.87V250.824H1048.8V282H1045.27ZM1064.72 282V247.44H1068.25V263.016H1087.35V247.44H1090.86V282H1087.35V266.4H1068.25V282H1064.72ZM1111.07 282.72C1108.43 282.72 1106.09 282.176 1104.06 281.088C1102.04 280 1100.46 278.464 1099.31 276.48C1098.15 274.496 1097.58 272.176 1097.58 269.52V247.464L1101.13 247.44V269.064C1101.13 270.856 1101.43 272.408 1102.04 273.72C1102.65 275.016 1103.44 276.088 1104.42 276.936C1105.41 277.768 1106.49 278.384 1107.66 278.784C1108.83 279.184 1109.96 279.384 1111.07 279.384C1112.19 279.384 1113.33 279.184 1114.5 278.784C1115.67 278.384 1116.74 277.768 1117.71 276.936C1118.69 276.088 1119.48 275.016 1120.09 273.72C1120.7 272.408 1121 270.856 1121 269.064V247.44H1124.55V269.52C1124.55 272.176 1123.98 274.496 1122.83 276.48C1121.67 278.448 1120.08 279.984 1118.05 281.088C1116.03 282.176 1113.71 282.72 1111.07 282.72ZM1141.83 282.72C1139.41 282.72 1137.24 282.32 1135.3 281.52C1133.38 280.704 1131.79 279.552 1130.52 278.064C1129.28 276.576 1128.46 274.808 1128.08 272.76L1131.68 272.16C1132.25 274.4 1133.47 276.16 1135.32 277.44C1137.18 278.704 1139.4 279.336 1141.97 279.336C1143.67 279.336 1145.19 279.072 1146.53 278.544C1147.88 278 1148.93 277.232 1149.7 276.24C1150.47 275.248 1150.85 274.072 1150.85 272.712C1150.85 271.816 1150.69 271.056 1150.37 270.432C1150.05 269.792 1149.63 269.264 1149.1 268.848C1148.57 268.432 1148 268.088 1147.37 267.816C1146.75 267.528 1146.14 267.296 1145.55 267.12L1136.79 264.504C1135.73 264.2 1134.76 263.816 1133.86 263.352C1132.96 262.872 1132.18 262.304 1131.51 261.648C1130.85 260.976 1130.34 260.192 1129.97 259.296C1129.6 258.4 1129.42 257.376 1129.42 256.224C1129.42 254.272 1129.93 252.584 1130.96 251.16C1131.98 249.736 1133.38 248.64 1135.16 247.872C1136.93 247.104 1138.96 246.728 1141.23 246.744C1143.53 246.744 1145.59 247.152 1147.4 247.968C1149.22 248.784 1150.72 249.952 1151.91 251.472C1153.09 252.976 1153.88 254.76 1154.26 256.824L1150.56 257.496C1150.32 255.992 1149.77 254.688 1148.91 253.584C1148.04 252.48 1146.94 251.632 1145.6 251.04C1144.27 250.432 1142.8 250.12 1141.2 250.104C1139.65 250.104 1138.27 250.368 1137.05 250.896C1135.85 251.408 1134.9 252.112 1134.2 253.008C1133.49 253.904 1133.14 254.928 1133.14 256.08C1133.14 257.248 1133.46 258.184 1134.1 258.888C1134.76 259.592 1135.56 260.144 1136.5 260.544C1137.46 260.944 1138.39 261.272 1139.28 261.528L1146.05 263.52C1146.76 263.712 1147.58 263.992 1148.52 264.36C1149.48 264.712 1150.41 265.224 1151.31 265.896C1152.22 266.552 1152.97 267.416 1153.56 268.488C1154.16 269.56 1154.45 270.92 1154.45 272.568C1154.45 274.168 1154.13 275.6 1153.49 276.864C1152.87 278.128 1151.98 279.192 1150.83 280.056C1149.69 280.92 1148.36 281.576 1146.82 282.024C1145.3 282.488 1143.64 282.72 1141.83 282.72ZM1159.89 282V247.44H1163.41V282H1159.89ZM1168.21 282L1180.11 247.44H1184.79L1196.7 282H1193.03L1181.72 249.408H1183.11L1171.88 282H1168.21ZM1173.51 273.624V270.312H1191.37V273.624H1173.51ZM1212.09 282.72C1209.68 282.72 1207.5 282.32 1205.57 281.52C1203.65 280.704 1202.05 279.552 1200.79 278.064C1199.54 276.576 1198.73 274.808 1198.34 272.76L1201.94 272.16C1202.52 274.4 1203.73 276.16 1205.59 277.44C1207.45 278.704 1209.66 279.336 1212.24 279.336C1213.93 279.336 1215.45 279.072 1216.8 278.544C1218.14 278 1219.2 277.232 1219.97 276.24C1220.73 275.248 1221.12 274.072 1221.12 272.712C1221.12 271.816 1220.96 271.056 1220.64 270.432C1220.32 269.792 1219.89 269.264 1219.37 268.848C1218.84 268.432 1218.26 268.088 1217.64 267.816C1217.01 267.528 1216.41 267.296 1215.81 267.12L1207.05 264.504C1206 264.2 1205.02 263.816 1204.13 263.352C1203.23 262.872 1202.45 262.304 1201.77 261.648C1201.12 260.976 1200.61 260.192 1200.24 259.296C1199.87 258.4 1199.69 257.376 1199.69 256.224C1199.69 254.272 1200.2 252.584 1201.22 251.16C1202.25 249.736 1203.65 248.64 1205.42 247.872C1207.2 247.104 1209.22 246.728 1211.49 246.744C1213.8 246.744 1215.85 247.152 1217.66 247.968C1219.49 248.784 1220.99 249.952 1222.17 251.472C1223.36 252.976 1224.14 254.76 1224.53 256.824L1220.83 257.496C1220.59 255.992 1220.04 254.688 1219.17 253.584C1218.31 252.48 1217.21 251.632 1215.86 251.04C1214.53 250.432 1213.07 250.12 1211.47 250.104C1209.92 250.104 1208.53 250.368 1207.32 250.896C1206.12 251.408 1205.17 252.112 1204.46 253.008C1203.76 253.904 1203.41 254.928 1203.41 256.08C1203.41 257.248 1203.73 258.184 1204.37 258.888C1205.02 259.592 1205.82 260.144 1206.77 260.544C1207.73 260.944 1208.65 261.272 1209.55 261.528L1216.32 263.52C1217.02 263.712 1217.85 263.992 1218.79 264.36C1219.75 264.712 1220.68 265.224 1221.57 265.896C1222.49 266.552 1223.24 267.416 1223.83 268.488C1224.42 269.56 1224.72 270.92 1224.72 272.568C1224.72 274.168 1224.4 275.6 1223.76 276.864C1223.13 278.128 1222.25 279.192 1221.09 280.056C1219.96 280.92 1218.62 281.576 1217.09 282.024C1215.57 282.488 1213.9 282.72 1212.09 282.72ZM1238.86 282V250.824H1226.79V247.44H1254.46V250.824H1242.39V282H1238.86ZM1258.79 282V247.44H1262.32V282H1258.79ZM1283.51 282.72C1280.07 282.72 1277.16 281.96 1274.8 280.44C1272.43 278.904 1270.64 276.784 1269.42 274.08C1268.2 271.376 1267.6 268.256 1267.6 264.72C1267.6 261.184 1268.2 258.064 1269.42 255.36C1270.64 252.656 1272.43 250.544 1274.8 249.024C1277.16 247.488 1280.07 246.72 1283.51 246.72C1287.52 246.72 1290.8 247.752 1293.35 249.816C1295.89 251.864 1297.64 254.616 1298.58 258.072L1294.98 259.008C1294.24 256.272 1292.92 254.104 1291.02 252.504C1289.12 250.904 1286.61 250.104 1283.51 250.104C1280.8 250.104 1278.56 250.72 1276.76 251.952C1274.97 253.184 1273.62 254.904 1272.71 257.112C1271.81 259.304 1271.35 261.84 1271.32 264.72C1271.3 267.6 1271.74 270.136 1272.64 272.328C1273.55 274.52 1274.91 276.24 1276.72 277.488C1278.54 278.72 1280.8 279.336 1283.51 279.336C1286.61 279.336 1289.12 278.536 1291.02 276.936C1292.92 275.32 1294.24 273.152 1294.98 270.432L1298.58 271.368C1297.64 274.824 1295.89 277.584 1293.35 279.648C1290.8 281.696 1287.52 282.72 1283.51 282.72Z" fill="black"/>
<rect x="1251.13" y="101" width="304" height="82" rx="41" transform="rotate(26.1433 1251.13 101)" fill="#2ED06E"/>
<path d="M1264.22 173.148L1279.45 142.124L1282.61 143.678L1275.42 158.329L1296.77 150.626L1300.82 152.614L1279.01 160.492L1286.78 184.22L1282.64 182.19L1275 159.191L1267.39 174.703L1264.22 173.148ZM1290.23 185.917L1305.46 154.893L1308.63 156.448L1293.4 187.472L1290.23 185.917ZM1299.86 190.642L1315.09 159.618L1318.28 161.183L1322.88 194.991L1335.36 169.569L1338.55 171.134L1323.32 202.158L1320.13 200.593L1315.54 166.763L1303.05 192.207L1299.86 190.642ZM1329.36 205.121L1344.59 174.096L1354 178.717C1354.33 178.88 1354.89 179.162 1355.67 179.564C1356.47 179.973 1357.21 180.408 1357.89 180.868C1360.09 182.354 1361.62 184.196 1362.51 186.394C1363.39 188.591 1363.68 190.982 1363.4 193.568C1363.11 196.153 1362.31 198.767 1361.02 201.41C1359.72 204.053 1358.14 206.279 1356.27 208.089C1354.4 209.899 1352.33 211.127 1350.05 211.773C1347.77 212.42 1345.37 212.33 1342.85 211.504C1342.09 211.238 1341.3 210.918 1340.46 210.545C1339.64 210.158 1339.08 209.89 1338.77 209.742L1329.36 205.121ZM1334.12 203.69L1340.26 206.704C1340.85 206.993 1341.49 207.289 1342.18 207.592C1342.89 207.887 1343.52 208.104 1344.05 208.243C1346.02 208.815 1347.84 208.799 1349.51 208.192C1351.19 207.593 1352.71 206.559 1354.08 205.089C1355.45 203.605 1356.64 201.829 1357.66 199.76C1358.68 197.678 1359.36 195.64 1359.69 193.649C1360.03 191.657 1359.91 189.819 1359.35 188.134C1358.79 186.45 1357.69 185.009 1356.05 183.812C1355.61 183.471 1355.04 183.114 1354.35 182.74C1353.68 182.358 1353.07 182.03 1352.51 181.755L1346.37 178.741L1334.12 203.69ZM1358.31 219.331L1373.54 188.306L1376.73 189.871L1381.33 223.68L1393.81 198.257L1397 199.822L1381.77 230.847L1378.58 229.281L1373.99 195.451L1361.5 220.896L1358.31 219.331ZM1387.81 233.809L1403.03 202.785L1422.42 212.302L1420.93 215.34L1404.71 207.377L1399.44 218.106L1413.08 224.8L1411.59 227.838L1397.95 221.144L1392.47 232.326L1408.69 240.289L1407.2 243.326L1387.81 233.809ZM1421.7 251.247C1419.53 250.182 1417.75 248.865 1416.37 247.293C1415 245.715 1414.08 243.979 1413.6 242.087C1413.14 240.201 1413.19 238.254 1413.74 236.247L1417.24 237.294C1416.77 239.559 1417.09 241.675 1418.19 243.641C1419.3 245.594 1421.01 247.138 1423.32 248.273C1424.84 249.02 1426.32 249.453 1427.76 249.571C1429.21 249.675 1430.5 249.451 1431.62 248.899C1432.75 248.346 1433.61 247.46 1434.21 246.239C1434.61 245.435 1434.8 244.682 1434.78 243.981C1434.78 243.265 1434.63 242.604 1434.34 241.998C1434.05 241.392 1433.68 240.83 1433.24 240.311C1432.81 239.777 1432.37 239.301 1431.91 238.882L1425.2 232.674C1424.39 231.936 1423.68 231.161 1423.08 230.35C1422.49 229.524 1422.04 228.669 1421.72 227.784C1421.43 226.891 1421.31 225.962 1421.38 224.995C1421.44 224.029 1421.73 223.029 1422.24 221.995C1423.1 220.242 1424.3 218.952 1425.85 218.125C1427.39 217.298 1429.13 216.931 1431.07 217.024C1433 217.117 1434.98 217.672 1437.01 218.687C1439.08 219.702 1440.75 220.975 1442.01 222.504C1443.29 224.04 1444.12 225.751 1444.52 227.637C1444.92 229.509 1444.84 231.456 1444.27 233.478L1440.66 232.453C1441.1 230.997 1441.18 229.583 1440.89 228.211C1440.6 226.84 1439.99 225.592 1439.04 224.468C1438.12 223.337 1436.94 222.412 1435.51 221.693C1434.12 221.009 1432.76 220.636 1431.44 220.574C1430.13 220.505 1428.97 220.718 1427.94 221.212C1426.91 221.706 1426.15 222.47 1425.64 223.504C1425.12 224.553 1425 225.534 1425.26 226.448C1425.54 227.369 1426.02 228.217 1426.69 228.992C1427.37 229.774 1428.06 230.478 1428.75 231.102L1433.95 235.872C1434.5 236.355 1435.12 236.969 1435.8 237.716C1436.51 238.455 1437.12 239.323 1437.62 240.321C1438.15 241.312 1438.45 242.419 1438.51 243.642C1438.57 244.865 1438.23 246.217 1437.51 247.696C1436.8 249.132 1435.88 250.277 1434.75 251.129C1433.63 251.989 1432.37 252.553 1430.95 252.821C1429.55 253.096 1428.06 253.096 1426.49 252.822C1424.92 252.569 1423.32 252.044 1421.7 251.247ZM1448.88 264.589C1446.71 263.525 1444.94 262.207 1443.55 260.636C1442.19 259.057 1441.27 257.322 1440.79 255.429C1440.32 253.543 1440.37 251.597 1440.93 249.589L1444.42 250.637C1443.95 252.901 1444.27 255.017 1445.37 256.984C1446.48 258.936 1448.19 260.48 1450.5 261.615C1452.03 262.362 1453.51 262.795 1454.95 262.913C1456.39 263.017 1457.68 262.793 1458.81 262.241C1459.93 261.689 1460.79 260.802 1461.39 259.582C1461.79 258.777 1461.98 258.024 1461.97 257.323C1461.96 256.608 1461.81 255.947 1461.52 255.341C1461.23 254.735 1460.87 254.172 1460.43 253.653C1459.99 253.12 1459.55 252.643 1459.1 252.225L1452.39 246.016C1451.57 245.278 1450.86 244.503 1450.26 243.692C1449.67 242.866 1449.22 242.011 1448.9 241.126C1448.61 240.234 1448.5 239.304 1448.56 238.338C1448.63 237.371 1448.91 236.371 1449.42 235.337C1450.28 233.585 1451.48 232.295 1453.03 231.468C1454.58 230.641 1456.32 230.274 1458.25 230.367C1460.18 230.46 1462.16 231.014 1464.2 232.03C1466.26 233.045 1467.93 234.317 1469.19 235.846C1470.47 237.382 1471.31 239.094 1471.7 240.98C1472.1 242.852 1472.02 244.799 1471.45 246.821L1467.84 245.795C1468.29 244.339 1468.37 242.926 1468.08 241.554C1467.79 240.182 1467.17 238.934 1466.22 237.811C1465.3 236.68 1464.12 235.755 1462.69 235.035C1461.3 234.352 1459.94 233.979 1458.62 233.917C1457.32 233.848 1456.15 234.06 1455.12 234.554C1454.1 235.049 1453.33 235.813 1452.82 236.847C1452.31 237.895 1452.18 238.877 1452.45 239.791C1452.73 240.712 1453.2 241.56 1453.87 242.335C1454.56 243.117 1455.25 243.82 1455.94 244.445L1461.14 249.215C1461.68 249.697 1462.3 250.312 1462.98 251.058C1463.69 251.797 1464.3 252.666 1464.81 253.664C1465.34 254.654 1465.63 255.761 1465.69 256.985C1465.75 258.208 1465.42 259.559 1464.69 261.038C1463.98 262.475 1463.07 263.619 1461.93 264.472C1460.82 265.332 1459.55 265.896 1458.14 266.164C1456.74 266.439 1455.25 266.439 1453.67 266.164C1452.1 265.911 1450.51 265.386 1448.88 264.589Z" fill="white"/>
<rect x="1422.81" y="99" width="281" height="82" rx="41" transform="rotate(13.9821 1422.81 99)" fill="white"/>
<path d="M1450.79 166.768L1459.14 133.232L1472.09 136.456C1472.42 136.537 1472.78 136.644 1473.17 136.775C1473.59 136.895 1474 137.046 1474.4 137.228C1476.08 137.929 1477.41 138.912 1478.39 140.176C1479.38 141.428 1480 142.854 1480.26 144.452C1480.54 146.055 1480.46 147.733 1480.02 149.487C1479.59 151.226 1478.88 152.739 1477.88 154.024C1476.89 155.309 1475.65 156.281 1474.19 156.938C1472.74 157.583 1471.12 157.822 1469.31 157.653C1468.88 157.61 1468.45 157.553 1468.02 157.479C1467.61 157.41 1467.24 157.334 1466.91 157.253L1457.39 154.882L1454.21 167.621L1450.79 166.768ZM1458.2 151.621L1467.63 153.97C1467.91 154.039 1468.24 154.105 1468.62 154.167C1469 154.228 1469.38 154.265 1469.76 154.276C1470.97 154.314 1472.02 154.074 1472.93 153.557C1473.85 153.044 1474.6 152.351 1475.2 151.477C1475.81 150.607 1476.25 149.652 1476.51 148.612C1476.77 147.572 1476.83 146.524 1476.7 145.468C1476.58 144.401 1476.24 143.426 1475.67 142.541C1475.11 141.661 1474.29 140.954 1473.21 140.419C1472.87 140.253 1472.51 140.115 1472.15 140.007C1471.78 139.883 1471.46 139.786 1471.18 139.717L1461.75 137.368L1458.2 151.621ZM1492.31 177.847C1488.97 177.016 1486.33 175.577 1484.4 173.529C1482.48 171.467 1481.25 168.977 1480.72 166.059C1480.2 163.141 1480.36 159.967 1481.21 156.536C1482.07 153.104 1483.41 150.224 1485.25 147.894C1487.08 145.564 1489.33 143.947 1491.99 143.044C1494.66 142.126 1497.67 142.082 1501 142.914C1504.36 143.749 1506.99 145.195 1508.9 147.254C1510.83 149.301 1512.06 151.784 1512.59 154.701C1513.13 157.623 1512.97 160.799 1512.12 164.231C1511.26 167.662 1509.91 170.541 1508.06 172.867C1506.23 175.197 1503.98 176.821 1501.31 177.739C1498.66 178.646 1495.66 178.682 1492.31 177.847ZM1493.12 174.563C1495.75 175.217 1498.08 175.164 1500.14 174.405C1502.19 173.647 1503.91 172.312 1505.31 170.401C1506.73 168.479 1507.79 166.121 1508.49 163.326C1509.18 160.531 1509.35 157.96 1509 155.613C1508.66 153.269 1507.76 151.281 1506.3 149.649C1504.84 148.017 1502.81 146.866 1500.19 146.197C1497.56 145.544 1495.23 145.599 1493.2 146.361C1491.16 147.124 1489.43 148.466 1488.01 150.388C1486.61 152.299 1485.56 154.649 1484.85 157.44C1484.14 160.231 1483.95 162.798 1484.29 165.142C1484.65 167.474 1485.55 169.463 1487.01 171.111C1488.46 172.744 1490.5 173.894 1493.12 174.563ZM1524.08 185.758C1521.73 185.174 1519.72 184.26 1518.03 183.016C1516.37 181.761 1515.1 180.258 1514.23 178.509C1513.38 176.763 1513.02 174.851 1513.14 172.77L1516.78 173.058C1516.8 175.371 1517.55 177.372 1519.04 179.063C1520.54 180.738 1522.54 181.887 1525.04 182.509C1526.68 182.919 1528.22 183.03 1529.65 182.842C1531.09 182.639 1532.3 182.149 1533.28 181.372C1534.27 180.595 1534.92 179.547 1535.25 178.227C1535.47 177.357 1535.5 176.581 1535.34 175.899C1535.18 175.2 1534.9 174.585 1534.49 174.054C1534.07 173.523 1533.6 173.05 1533.06 172.635C1532.52 172.205 1531.99 171.833 1531.46 171.519L1523.59 166.864C1522.64 166.314 1521.78 165.705 1521.03 165.039C1520.27 164.356 1519.65 163.616 1519.15 162.817C1518.68 162.006 1518.37 161.122 1518.23 160.163C1518.09 159.205 1518.16 158.167 1518.44 157.049C1518.91 155.155 1519.82 153.641 1521.15 152.506C1522.49 151.372 1524.11 150.647 1526.02 150.33C1527.93 150.014 1529.99 150.139 1532.19 150.703C1534.42 151.26 1536.32 152.152 1537.88 153.381C1539.45 154.614 1540.63 156.11 1541.41 157.871C1542.19 159.617 1542.52 161.537 1542.4 163.633L1538.65 163.392C1538.78 161.875 1538.56 160.476 1537.99 159.196C1537.42 157.916 1536.55 156.826 1535.39 155.927C1534.25 155.016 1532.9 154.36 1531.35 153.958C1529.85 153.583 1528.44 153.504 1527.13 153.723C1525.84 153.93 1524.75 154.383 1523.85 155.082C1522.95 155.782 1522.36 156.69 1522.08 157.808C1521.8 158.942 1521.89 159.927 1522.34 160.765C1522.8 161.607 1523.45 162.336 1524.27 162.952C1525.1 163.572 1525.92 164.114 1526.73 164.579L1532.82 168.148C1533.45 168.504 1534.18 168.975 1535.01 169.56C1535.86 170.133 1536.63 170.854 1537.34 171.723C1538.07 172.58 1538.59 173.6 1538.9 174.783C1539.22 175.967 1539.18 177.358 1538.78 178.957C1538.39 180.51 1537.74 181.822 1536.81 182.894C1535.9 183.97 1534.78 184.787 1533.45 185.348C1532.14 185.911 1530.69 186.225 1529.09 186.289C1527.5 186.372 1525.83 186.195 1524.08 185.758ZM1541.77 189.423L1550.13 155.887L1553.55 156.739L1545.2 190.275L1541.77 189.423ZM1561.1 194.234L1568.63 163.982L1556.92 161.065L1557.74 157.782L1584.59 164.468L1583.77 167.751L1572.06 164.835L1564.52 195.087L1561.1 194.234ZM1580.44 199.05L1588.79 165.513L1592.21 166.366L1583.86 199.902L1580.44 199.05ZM1599.37 203.763L1596.17 167.351L1599.73 168.238L1602.57 200.43L1620.25 173.347L1623.81 174.234L1603.91 204.894L1599.37 203.763ZM1618.95 208.64L1627.3 175.104L1648.26 180.323L1647.45 183.606L1629.91 179.24L1627.02 190.838L1641.76 194.508L1640.95 197.792L1626.2 194.122L1623.19 206.208L1640.73 210.575L1639.91 213.859L1618.95 208.64Z" fill="black"/>
<rect x="121" y="247" width="194" height="82" rx="41" fill="white"/>
<path d="M165.238 306V271.44H168.766V302.616H185.182V306H165.238ZM202.329 306.72C198.889 306.72 195.985 305.96 193.617 304.44C191.249 302.904 189.457 300.784 188.241 298.08C187.025 295.376 186.417 292.256 186.417 288.72C186.417 285.184 187.025 282.064 188.241 279.36C189.457 276.656 191.249 274.544 193.617 273.024C195.985 271.488 198.889 270.72 202.329 270.72C205.785 270.72 208.689 271.488 211.041 273.024C213.409 274.544 215.201 276.656 216.417 279.36C217.649 282.064 218.265 285.184 218.265 288.72C218.265 292.256 217.649 295.376 216.417 298.08C215.201 300.784 213.409 302.904 211.041 304.44C208.689 305.96 205.785 306.72 202.329 306.72ZM202.329 303.336C205.033 303.336 207.289 302.72 209.097 301.488C210.905 300.256 212.257 298.544 213.153 296.352C214.065 294.144 214.521 291.6 214.521 288.72C214.521 285.84 214.065 283.304 213.153 281.112C212.257 278.92 210.905 277.208 209.097 275.976C207.289 274.744 205.033 274.12 202.329 274.104C199.625 274.104 197.377 274.72 195.585 275.952C193.793 277.184 192.441 278.904 191.529 281.112C190.633 283.304 190.177 285.84 190.161 288.72C190.145 291.6 190.585 294.136 191.481 296.328C192.393 298.504 193.753 300.216 195.561 301.464C197.369 302.696 199.625 303.32 202.329 303.336ZM230.402 306L218.498 271.44H222.17L232.706 301.992L243.314 271.44H246.986L235.082 306H230.402ZM250.587 306V271.44H272.187V274.824H254.115V286.776H269.307V290.16H254.115V302.616H272.187V306H250.587Z" fill="black"/>
<path d="M941.404 210.837C938.825 208.258 934.165 205.961 929.014 204.779C934.157 203.605 938.818 201.308 941.404 198.722C947.514 192.627 946.704 181.916 937.68 172.893C928.94 164.153 917.947 163.06 911.845 169.162C909.266 171.741 906.969 176.401 905.787 181.552C904.613 176.409 902.309 171.741 899.73 169.162C893.627 163.06 882.924 163.863 873.894 172.893C865.16 181.627 864.06 192.627 870.163 198.729C872.742 201.308 877.402 203.605 882.553 204.787C877.409 205.961 872.749 208.258 870.163 210.844C864.06 216.946 864.871 227.657 873.894 236.68C882.635 245.421 893.627 246.513 899.73 240.411C902.309 237.832 904.605 233.172 905.787 228.021C906.961 233.164 909.266 237.832 911.845 240.411C917.947 246.513 928.657 245.703 937.68 236.68C946.414 227.932 947.514 216.946 941.404 210.837Z" fill="#0E0E0E"/>
<g clip-path="url(#clip1_529_3558)">
<path d="M1378.05 149.542C1394.15 151.917 1410 134.806 1413.47 111.323C1416.93 87.8393 1406.7 66.877 1390.6 64.5018C1374.51 62.1266 1358.65 79.2381 1355.19 102.721C1351.72 126.204 1361.96 147.167 1378.05 149.542Z" fill="#FF9CDD"/>
<path d="M1379.73 142.907C1392.01 144.719 1404.33 130.152 1407.25 110.369C1410.17 90.5871 1402.58 73.0812 1390.3 71.2688C1378.02 69.4565 1365.7 84.024 1362.78 103.806C1359.86 123.588 1367.45 141.094 1379.73 142.907Z" fill="white" stroke="#0C0D0D" stroke-width="2.09662" stroke-miterlimit="10"/>
<path d="M1396.7 85.305C1391.07 84.475 1385.45 89.114 1382.03 96.5106L1393.3 108.311L1379.06 116.092C1380.15 124.293 1384.23 130.479 1389.91 131.317C1397.71 132.469 1405.57 123.109 1407.44 110.398C1409.32 97.6873 1404.5 86.4563 1396.7 85.305Z" fill="black"/>
<path d="M1345.09 144.677C1360.7 146.98 1376.16 129.81 1379.62 106.327C1383.09 82.8439 1373.25 61.94 1357.64 59.6369C1342.04 57.3338 1326.58 74.5037 1323.11 97.9869C1319.64 121.47 1329.49 142.374 1345.09 144.677Z" fill="#FF9CDD"/>
<path d="M1346.11 137.945C1358.39 139.757 1370.71 125.19 1373.63 105.407C1376.55 85.6251 1368.96 68.1193 1356.68 66.3069C1344.4 64.4946 1332.08 79.0621 1329.16 98.8443C1326.24 118.627 1333.83 136.132 1346.11 137.945Z" fill="white" stroke="#0C0D0D" stroke-width="2.09662" stroke-miterlimit="10"/>
<path d="M1363.08 80.3436C1357.46 79.5136 1351.84 84.1526 1348.41 91.5492L1359.68 103.35L1345.44 111.131C1346.53 119.331 1350.61 125.518 1356.29 126.356C1364.09 127.507 1371.95 118.147 1373.82 105.437C1375.7 92.7258 1370.88 81.4949 1363.08 80.3436Z" fill="black"/>
</g>
</g>
<defs>
<clipPath id="clip0_529_3558">
<rect width="1920" height="480" fill="white"/>
</clipPath>
<clipPath id="clip1_529_3558">
<rect width="91.3367" height="85.9613" fill="white" transform="translate(1329.39 55.4668) rotate(8.39531)"/>
</clipPath>
</defs>
</svg>
