<svg width="124" height="119" viewBox="0 0 124 119" fill="none" xmlns="http://www.w3.org/2000/svg">
<g clip-path="url(#clip0_553_3655)">
<path d="M61.9545 118.38C60.2158 118.38 58.477 117.922 56.9213 117.007C2.37961 86.808 -0.0912419 49.1962 0.000271046 41.2345C0.000271046 41.143 0.000271046 41.0515 0.000271046 40.96C0.000271046 18.5393 16.4726 0.96885 37.6121 0.785825C43.9265 0.419773 53.3523 1.97549 61.497 8.01534C67.5368 3.62272 75.4984 0.785825 86.0224 0.785825C107.345 0.785825 124 18.4478 124 40.96C124 41.0515 124 41.143 124 41.2345C124.092 49.1962 121.621 86.808 66.9877 117.007C65.7981 117.648 64.5169 118.105 63.2357 118.288C62.7781 118.288 62.4121 118.38 61.9545 118.38ZM19.401 40.8685C19.401 40.96 19.401 41.143 19.401 41.2345C19.401 41.326 19.401 41.4176 19.401 41.5091C19.3095 44.712 19.8586 72.4404 61.9545 97.515C104.05 72.5319 104.6 44.712 104.508 41.5091C104.508 41.4176 104.508 41.2345 104.508 41.143V40.8685C104.508 27.4161 94.8992 20.1866 85.9309 20.1866C80.5316 20.1866 76.5051 21.4677 73.4852 23.3895C75.1324 27.3246 76.4136 31.8087 77.0541 37.1165C77.0541 37.391 77.1457 37.757 77.1457 38.0316C77.2372 40.6855 77.1457 49.6537 71.7464 55.236C69.0925 58.0729 65.5235 59.6286 61.5885 59.7201C57.4704 59.7201 53.5353 58.1644 50.6984 55.236C45.1161 49.4707 45.1161 40.2279 45.2077 37.574C45.2077 37.4825 45.2077 37.4825 45.2077 37.391C45.4822 33.4559 46.5803 28.3312 48.9597 23.2065C48.5021 22.932 48.0446 22.6574 47.587 22.3829C43.2859 20.1866 38.9848 20.2781 38.5272 20.2781C38.2527 20.2781 38.1612 20.2781 37.8866 20.2781C29.0099 20.1866 19.4925 27.4161 19.401 40.8685Z" fill="#2ED06E"/>
<path d="M80.9893 15.245C80.4402 15.3365 79.8912 15.245 79.4336 15.062C78.976 14.879 78.5185 14.6959 78.1524 14.3299C77.7864 13.9638 77.5118 13.5978 77.2373 13.0487C76.9627 12.4996 76.8712 12.0421 76.8712 11.4015C76.7797 10.4863 76.8712 9.75424 77.1458 9.11365C77.4203 8.47306 77.7864 7.92398 78.3354 7.55793C78.8845 7.19188 79.5251 6.91734 80.2572 6.82583C81.1723 6.73431 81.9044 6.91734 82.545 7.28339C83.1856 7.64944 83.5517 8.19852 83.9177 8.93062L82.9111 9.20516C82.7281 8.7476 82.362 8.38155 81.996 8.10701C81.5384 7.83247 81.0808 7.74096 80.5317 7.83247C79.8912 7.92398 79.4336 8.10701 79.0675 8.38155C78.7015 8.65608 78.427 9.11365 78.2439 9.66273C78.0609 10.2118 78.0609 10.7609 78.0609 11.4015C78.1524 12.0421 78.2439 12.5911 78.5185 13.0487C78.793 13.5063 79.1591 13.8723 79.5251 14.1469C79.9827 14.4214 80.4402 14.5129 81.0808 14.4214C81.6299 14.3299 82.0875 14.2384 82.362 13.9638C82.7281 13.6893 82.9111 13.4148 83.0941 12.9572C83.2771 12.5911 83.3686 12.0421 83.2771 11.493L81.5384 11.676L81.4469 10.8524L84.2838 10.5779C84.2838 10.6694 84.2838 10.7609 84.2838 10.8524C84.2838 10.9439 84.2838 11.0354 84.2838 11.0354C84.3753 11.7675 84.2838 12.4996 84.0092 13.0487C83.8262 13.6893 83.4602 14.1469 82.9111 14.5129C82.4535 14.9705 81.8129 15.1535 80.9893 15.245Z" fill="#FFFCF3"/>
<path d="M88.7685 15.3365C87.9449 15.245 87.3043 14.9705 86.7553 14.5129C86.2062 14.0554 85.8401 13.5063 85.6571 12.8657C85.4741 12.2251 85.3826 11.4015 85.5656 10.5779C85.7486 9.75424 85.9316 9.02214 86.2977 8.47306C86.6637 7.92399 87.2128 7.46642 87.7619 7.19188C88.311 6.91734 89.1346 6.82583 89.8667 6.91734C90.6903 7.00886 91.3309 7.28339 91.88 7.74096C92.4291 8.19852 92.7951 8.7476 92.9781 9.38819C93.1612 10.0288 93.2527 10.8524 93.0696 11.676C92.9781 12.4996 92.7036 13.2317 92.3375 13.7808C91.9715 14.3299 91.4224 14.7875 90.8733 15.062C90.3243 15.3365 89.5922 15.5196 88.7685 15.3365ZM88.86 14.4214C89.5006 14.5129 89.9582 14.4214 90.4158 14.2384C90.8733 14.0554 91.2394 13.6893 91.5139 13.2317C91.7885 12.7742 91.9715 12.2251 92.063 11.5845C92.1545 10.9439 92.1545 10.3948 91.9715 9.84576C91.7885 9.29668 91.6054 8.93063 91.2394 8.56458C90.8733 8.19852 90.4158 8.0155 89.7752 7.92399C89.1346 7.83247 88.677 7.92399 88.2195 8.10701C87.7619 8.29004 87.3958 8.65609 87.1213 9.11365C86.8468 9.57122 86.6637 10.1203 86.5722 10.7609C86.4807 11.4015 86.4807 11.9506 86.6637 12.4996C86.7553 13.0487 87.0298 13.4148 87.3958 13.7808C87.7619 14.1469 88.2195 14.3299 88.86 14.4214Z" fill="#FFFCF3"/>
<path d="M96.0889 17.6243C95.3568 17.2583 94.8077 16.8007 94.4417 16.2517C94.0756 15.7026 93.8926 15.062 93.8926 14.3299C93.8926 13.5978 94.0756 12.8657 94.4417 12.1336C94.8077 11.4015 95.2653 10.7609 95.8143 10.3033C96.3634 9.84575 97.004 9.57121 97.6446 9.57121C98.2852 9.57121 99.0173 9.66273 99.7494 10.0288C100.482 10.3948 101.031 10.8524 101.397 11.4015C101.763 11.9505 101.946 12.5911 101.946 13.3232C101.946 14.0553 101.763 14.7874 101.397 15.5196C101.031 16.2517 100.573 16.8922 100.024 17.3498C99.4749 17.8074 98.8343 18.0819 98.1937 18.0819C97.5531 18.0819 96.821 17.9904 96.0889 17.6243ZM96.4549 16.7092C97.004 16.9838 97.5531 17.0753 98.0107 16.9838C98.4682 16.8922 98.9258 16.7092 99.3834 16.3432C99.7494 15.9771 100.115 15.5196 100.39 14.9705C100.665 14.4214 100.848 13.7808 100.848 13.3232C100.848 12.8657 100.756 12.3166 100.573 11.859C100.39 11.4015 99.9324 11.0354 99.3834 10.7609C98.8343 10.4863 98.2852 10.3948 97.8276 10.4863C97.3701 10.5779 96.9125 10.7609 96.4549 11.1269C96.0889 11.493 95.7228 11.9505 95.4483 12.4996C95.1738 13.0487 94.9907 13.5978 94.9907 14.1469C94.9907 14.6959 95.0822 15.1535 95.3568 15.6111C95.5398 16.0686 95.9059 16.4347 96.4549 16.7092Z" fill="#FFFCF3"/>
<path d="M100.024 19.5461L105.79 13.6893L107.62 15.428C107.711 15.5196 107.803 15.6111 107.895 15.7026C108.078 15.8856 108.169 15.9771 108.261 16.1601C108.627 16.7092 108.901 17.1668 108.901 17.8074C108.901 18.3565 108.81 18.9055 108.627 19.5461C108.352 20.0952 107.986 20.6443 107.528 21.1934C107.071 21.7424 106.522 22.1085 105.973 22.383C105.424 22.6576 104.875 22.7491 104.234 22.7491C103.685 22.7491 103.136 22.4745 102.587 22.1085C102.404 22.017 102.312 21.8339 102.129 21.7424C101.946 21.5594 101.855 21.4679 101.855 21.4679L100.024 19.5461ZM101.397 19.6376L102.495 20.6443C102.587 20.7358 102.678 20.8273 102.861 21.0103C102.953 21.1018 103.136 21.1934 103.227 21.2849C103.593 21.5594 103.959 21.6509 104.417 21.6509C104.875 21.6509 105.241 21.5594 105.607 21.2849C105.973 21.1018 106.339 20.7358 106.705 20.3697C107.071 20.0037 107.345 19.6376 107.528 19.1801C107.711 18.814 107.803 18.3565 107.803 17.9904C107.803 17.6243 107.711 17.1668 107.437 16.8007C107.345 16.7092 107.254 16.5262 107.162 16.4347C107.071 16.3432 106.888 16.1601 106.796 16.0686L105.698 15.062L101.397 19.6376Z" fill="#FFFCF3"/>
<path d="M109.449 35.7439C109.266 34.9203 109.358 34.1882 109.541 33.5476C109.815 32.907 110.181 32.3579 110.731 31.9919C111.28 31.5343 112.012 31.2598 112.835 31.0768C113.659 30.8937 114.391 30.8937 115.123 31.0768C115.855 31.2598 116.404 31.5343 116.862 32.0834C117.319 32.541 117.686 33.1816 117.777 34.0052C117.96 34.9203 117.869 35.7439 117.503 36.476C117.136 37.2081 116.587 37.7572 115.855 38.1233L115.398 37.1166C115.947 36.8421 116.404 36.476 116.679 35.9269C116.953 35.3779 116.953 34.8288 116.862 34.1882C116.77 33.5476 116.496 33.09 116.13 32.724C115.764 32.3579 115.306 32.1749 114.849 32.0834C114.3 31.9919 113.75 31.9919 113.11 32.0834C112.469 32.1749 111.92 32.4495 111.463 32.724C111.005 32.9985 110.731 33.3646 110.548 33.8221C110.365 34.2797 110.365 34.8288 110.456 35.3779C110.639 36.0185 110.914 36.5675 111.28 36.9336C111.646 37.2996 112.286 37.4827 112.835 37.4827L112.744 38.5808C111.92 38.4893 111.188 38.2148 110.548 37.7572C109.998 37.3912 109.632 36.7506 109.449 35.7439Z" fill="#FFFCF3"/>
<path d="M110.182 45.0782L113.568 43.5225L113.842 44.5291L110.182 46.2679V45.0782ZM110.273 40.1365L118.509 40.3195L118.418 43.614C118.418 43.7055 118.418 43.797 118.418 43.8886C118.418 43.9801 118.418 44.0716 118.418 44.1631C118.326 44.6207 118.143 44.9867 117.96 45.2612C117.686 45.5358 117.411 45.8103 117.045 45.9018C116.679 46.0849 116.313 46.0849 115.855 46.0849C115.215 46.0849 114.666 45.9018 114.208 45.5358C113.751 45.1697 113.476 44.7122 113.385 44.0716L113.293 43.7055L113.385 41.1432L110.365 41.0516L110.273 40.1365ZM114.3 41.2347L114.208 43.431C114.208 43.5225 114.208 43.614 114.208 43.7055C114.208 43.797 114.208 43.8886 114.208 43.9801C114.3 44.2546 114.391 44.4376 114.483 44.6207C114.666 44.8037 114.849 44.8952 115.032 44.9867C115.215 45.0782 115.489 45.0782 115.672 45.0782C115.855 45.0782 116.13 45.0782 116.313 44.9867C116.496 44.8952 116.771 44.8037 116.862 44.6207C117.045 44.4376 117.137 44.2546 117.228 43.9801C117.228 43.8886 117.228 43.797 117.32 43.7055C117.32 43.614 117.32 43.5225 117.32 43.431L117.411 41.2347H114.3Z" fill="#FFFCF3"/>
<path d="M109.999 47.183L118.052 48.7388L117.046 53.8635L116.13 53.6805L116.954 49.5624L114.392 49.1048L113.751 52.5823L112.836 52.3993L113.477 48.9218L110.823 48.3727L109.999 52.4908L109.084 52.3078L109.999 47.183Z" fill="#FFFCF3"/>
<path d="M108.901 52.7653L115.765 57.9816L115.307 59.3543H106.613L106.979 58.3476H115.032L114.941 58.6222L108.535 53.772L108.901 52.7653ZM110.274 54.6871L111.189 54.9616L109.816 58.9882L108.901 58.7137L110.274 54.6871Z" fill="#FFFCF3"/>
<path d="M105.698 61.459L112.287 64.479L113.477 61.9166L114.392 62.2827L111.646 68.3225L110.731 67.9565L111.921 65.3941L105.332 62.3742L105.698 61.459Z" fill="#FFFCF3"/>
<path d="M103.593 65.6686L110.823 69.6037L110.365 70.5188L103.136 66.5838L103.593 65.6686Z" fill="#FFFCF3"/>
<path d="M101.215 69.6952L109.634 71.8L109.085 72.7151L101.764 70.8849L106.431 76.8332L105.882 77.7483L100.482 70.9764L101.215 69.6952Z" fill="#FFFCF3"/>
<path d="M98.5597 73.7218L105.057 78.755L101.854 82.8731L101.122 82.324L103.684 79.0295L101.671 77.4738L99.4748 80.2192L98.7427 79.6701L100.939 76.9247L98.7427 75.2775L96.1803 78.572L95.4482 78.0229L98.5597 73.7218Z" fill="#FFFCF3"/>
<path d="M84.9246 88.3638L90.1408 94.6782L89.3172 95.3188L84.6501 89.7365L81.7216 92.2074L81.0811 91.4753L84.9246 88.3638Z" fill="#FFFCF3"/>
<path d="M80.5319 92.0244L85.4736 98.6133L81.264 101.725L80.7149 100.993L84.1009 98.5218L82.5451 96.5085L79.7082 98.6133L79.1592 97.8812L81.9961 95.7764L80.3488 93.5801L76.8713 95.8679L76.3223 95.1358L80.5319 92.0244Z" fill="#FFFCF3"/>
<path d="M73.486 97.0576L77.5126 103.097L79.8919 101.542L80.441 102.365L74.9502 106.026L74.4011 105.202L76.7805 103.646L72.7539 97.6066L73.486 97.0576Z" fill="#FFFCF3"/>
<path d="M72.8458 104.745L73.944 106.483L73.0288 107.032L71.9307 105.294L72.8458 104.745Z" fill="#FFFCF3"/>
<path d="M65.432 101.45C65.9811 101.267 66.5302 101.176 66.9878 101.267C67.5368 101.267 67.9029 101.45 68.3605 101.725C68.7265 101.999 69.0926 102.365 69.3671 102.823L68.452 103.28C68.1774 102.823 67.8114 102.548 67.2623 102.365C66.8047 102.182 66.2557 102.274 65.7066 102.365C65.3405 102.457 65.066 102.64 64.7915 102.823C64.5169 103.006 64.3339 103.28 64.2424 103.555C64.1509 103.83 64.1509 104.104 64.2424 104.379C64.3339 104.562 64.3339 104.653 64.5169 104.836C64.6999 105.019 64.6999 105.019 64.883 105.111C64.9745 105.202 65.1575 105.202 65.3405 105.202C65.5236 105.202 65.6151 105.202 65.7981 105.202L67.9944 105.111C68.269 105.111 68.452 105.111 68.7265 105.111C69.001 105.111 69.1841 105.202 69.3671 105.294C69.5501 105.385 69.7332 105.568 69.9162 105.751C70.0992 105.934 70.1907 106.209 70.2822 106.483C70.4653 106.941 70.4653 107.399 70.2822 107.765C70.1907 108.131 69.9162 108.497 69.5501 108.863C69.1841 109.229 68.7265 109.412 68.2689 109.595C67.7199 109.778 67.2623 109.778 66.8047 109.778C66.3472 109.686 65.8896 109.595 65.5236 109.32C65.1575 109.046 64.7915 108.68 64.6084 108.314L65.6151 107.765C65.7981 108.039 65.9811 108.314 66.2557 108.497C66.5302 108.68 66.8047 108.771 67.1708 108.771C67.5368 108.771 67.8114 108.771 68.1774 108.68C68.5435 108.588 68.818 108.405 69.0011 108.222C69.1841 108.039 69.3671 107.856 69.4586 107.582C69.5501 107.307 69.5501 107.124 69.4586 106.849C69.3671 106.575 69.2756 106.483 69.0926 106.3C68.9095 106.209 68.7265 106.117 68.452 106.117C68.269 106.117 67.9944 106.117 67.8114 106.117L66.1642 106.209C65.9811 106.209 65.7981 106.209 65.5236 106.209C65.249 106.209 64.9745 106.117 64.7915 106.026C64.5169 105.934 64.3339 105.843 64.0594 105.568C63.8763 105.385 63.6933 105.111 63.5103 104.653C63.4188 104.287 63.3273 103.921 63.4188 103.555C63.5103 103.189 63.6018 102.914 63.7848 102.64C63.9678 102.365 64.2424 102.091 64.6084 101.908C64.6999 101.725 65.066 101.542 65.432 101.45Z" fill="#FFFCF3"/>
<path d="M53.4449 98.9793L48.8692 105.751L48.1371 105.202L49.2353 98.0642L43.0124 101.725L42.2803 101.176L46.8559 94.4037L47.588 94.9528L44.202 99.8945L49.8758 96.5085L50.3334 96.783L49.3268 103.28L52.7127 98.3387L53.4449 98.9793Z" fill="#FFFCF3"/>
<path d="M46.0308 93.8546L38.8013 98.6133L37.7031 97.6982L40.6315 89.5535L41.4552 90.1941L38.8013 97.7897L38.5267 97.6066L45.2072 93.214L46.0308 93.8546ZM43.8345 94.5867L43.2854 95.3188L39.8994 92.6649L40.4485 91.9328L43.8345 94.5867Z" fill="#FFFCF3"/>
<path d="M39.9 89.0044L34.4092 95.1358L33.6771 94.4952L36.2395 91.6583L30.9317 92.1159L30.0166 91.2922L35.5074 90.8347L35.3244 84.9779L36.331 85.893L36.514 91.4753L39.1679 88.4553L39.9 89.0044Z" fill="#FFFCF3"/>
<path d="M34.8679 84.3373L29.0111 90.0111L25.3506 86.259L26.0827 85.6185L29.0111 88.6384L30.8414 86.8081L28.3705 84.2458L29.1026 83.6052L31.5735 86.1675L33.5867 84.2458L30.6583 81.2258L31.3904 80.5852L34.8679 84.3373Z" fill="#FFFCF3"/>
<path d="M22.1472 68.231C22.4218 68.6886 22.6048 69.2376 22.6963 69.6952C22.7878 70.1528 22.6963 70.7018 22.6048 71.1594C22.4218 71.617 22.1472 71.983 21.7812 72.3491L21.0491 71.5255C21.4151 71.1594 21.5981 70.7018 21.6897 70.1528C21.7812 69.6037 21.5981 69.1461 21.3236 68.6886C21.1406 68.414 20.866 68.1395 20.683 67.9565C20.4085 67.7734 20.1339 67.6819 19.8594 67.5904C19.5849 67.5904 19.3103 67.5904 19.0358 67.7734C18.8528 67.8649 18.7612 67.9565 18.6697 68.1395C18.5782 68.231 18.5782 68.414 18.4867 68.5055C18.3952 68.597 18.4867 68.7801 18.4867 68.9631C18.4867 69.1461 18.4867 69.2376 18.5782 69.4207L19.1273 71.5255C19.2188 71.8 19.2188 71.983 19.2188 72.2576C19.2188 72.5321 19.2188 72.7151 19.2188 72.9897C19.1273 73.1727 19.0358 73.4472 18.9443 73.6303C18.7612 73.8133 18.5782 73.9963 18.3037 74.1793C17.8461 74.4539 17.4801 74.5454 17.0225 74.4539C16.5649 74.3624 16.1989 74.2708 15.8328 73.9963C15.4668 73.7218 15.1007 73.3557 14.8262 72.8982C14.5517 72.4406 14.3686 71.983 14.2771 71.434C14.1856 70.9764 14.2771 70.5188 14.4601 70.0613C14.6432 69.6037 14.9177 69.2376 15.2838 68.8716L16.0159 69.6952C15.7413 69.8782 15.5583 70.1528 15.4668 70.4273C15.3753 70.7018 15.3753 71.0679 15.3753 71.3424C15.3753 71.617 15.5583 71.983 15.7413 72.2576C15.9243 72.5321 16.1074 72.8066 16.3819 72.9897C16.6564 73.1727 16.8395 73.2642 17.114 73.2642C17.3886 73.2642 17.5716 73.2642 17.8461 73.0812C18.0291 72.9897 18.2122 72.8066 18.2122 72.6236C18.2122 72.4406 18.3037 72.1661 18.2122 71.983C18.2122 71.8 18.1207 71.5255 18.1207 71.3424L17.6631 69.7867C17.5716 69.6037 17.5716 69.4207 17.4801 69.1461C17.3886 68.8716 17.3886 68.597 17.4801 68.414C17.4801 68.1395 17.5716 67.8649 17.7546 67.5904C17.9376 67.3159 18.1207 67.1328 18.4867 66.8583C18.8528 66.6753 19.1273 66.5838 19.4933 66.4923C19.8594 66.4923 20.1339 66.4922 20.5 66.6753C20.866 66.8583 21.1406 67.0413 21.4151 67.3159C21.6897 67.5904 21.9642 67.8649 22.1472 68.231Z" fill="#FFFCF3"/>
<path d="M18.6698 61.6421C19.0359 62.3742 19.1274 63.1063 19.0359 63.7469C18.9444 64.3875 18.6698 65.0281 18.2123 65.5771C17.7547 66.1262 17.1141 66.5838 16.382 66.9498C15.6499 67.3159 14.9178 67.4989 14.1857 67.4989C13.4536 67.4989 12.813 67.3159 12.2639 66.9498C11.7149 66.5838 11.2573 66.0347 10.8912 65.3026C10.5252 64.5705 10.4337 63.8384 10.5252 63.1978C10.6167 62.5572 10.8912 61.9166 11.3488 61.3675C11.8064 60.8185 12.447 60.3609 13.1791 59.9948C13.9112 59.6288 14.6433 59.4458 15.3754 59.4458C16.1075 59.4458 16.7481 59.6288 17.2971 59.9948C17.9377 60.3609 18.3953 60.91 18.6698 61.6421ZM17.8462 62.0996C17.5717 61.5506 17.2971 61.093 16.8396 60.91C16.382 60.7269 15.9245 60.5439 15.3754 60.5439C14.8263 60.5439 14.2772 60.7269 13.6366 61.0015C12.996 61.276 12.5385 61.6421 12.1724 62.0081C11.8064 62.3742 11.6233 62.8317 11.5318 63.2893C11.4403 63.7469 11.5318 64.2959 11.8064 64.845C12.0809 65.3941 12.3555 65.8517 12.813 66.0347C13.2706 66.3092 13.7281 66.4007 14.2772 66.4007C14.8263 66.4007 15.3754 66.2177 16.016 65.9432C16.6566 65.6686 17.1141 65.3026 17.4802 64.9365C17.8462 64.5705 18.0293 64.1129 18.1208 63.6554C18.2123 63.1978 18.1208 62.6487 17.8462 62.0996Z" fill="#FFFCF3"/>
<path d="M16.656 57.4325L8.78587 59.6288L8.51133 58.7137L13.9106 53.955L6.77259 52.7653L6.49805 51.8502L14.3682 49.6539L14.6427 50.569L8.87738 52.2162L15.3748 53.3144L15.5578 53.8635L10.5246 58.1646L16.2899 56.5173L16.656 57.4325Z" fill="#FFFCF3"/>
<path d="M14.2767 48.3727L6.13209 49.1963L5.58301 43.9801L6.49814 43.8886L6.9557 48.0982L9.51806 47.8236L9.15201 44.3461L10.0671 44.2546L10.4332 47.7321L13.1786 47.4576L12.8125 43.248L13.7277 43.1565L14.2767 48.3727Z" fill="#FFFCF3"/>
<path d="M13.9107 40.045L6.68116 39.5875L6.49814 42.4244L5.58301 42.3328L6.04057 35.6524L6.9557 35.7439L6.77268 38.5808L14.0022 39.0384L13.9107 40.045Z" fill="#FFFCF3"/>
<path d="M14.1855 35.6524L6.31543 33.4561L6.58997 32.4495L10.0675 33.4561L11.2571 29.2465L7.77964 28.2399L8.05417 27.2332L15.9243 29.4295L15.6497 30.4362L12.1723 29.4295L10.9826 33.7306L14.4601 34.7373L14.1855 35.6524Z" fill="#FFFCF3"/>
<path d="M16.6567 28.3314L9.24414 24.7624L9.70171 23.8472L17.1143 27.4162L16.6567 28.3314Z" fill="#FFFCF3"/>
<path d="M17.5704 26.135L10.9814 21.1934L11.622 20.3697L19.3091 20.8273L14.1844 16.9838L14.825 16.1601L21.3224 21.1018L20.6818 21.9255L12.9947 21.4679L18.1195 25.3114L17.5704 26.135Z" fill="#FFFCF3"/>
<path d="M24.9845 18.631C24.5269 18.9055 24.0693 19.1801 23.5202 19.2716C23.0627 19.3631 22.5136 19.3631 22.056 19.1801C21.5985 18.997 21.1409 18.814 20.6833 18.448C20.2258 18.0819 19.8597 17.6244 19.4937 17.0753C19.0361 16.3432 18.7616 15.6111 18.6701 14.879C18.5785 14.1469 18.6701 13.5063 18.9446 12.9572C19.2191 12.4081 19.6767 11.859 20.3173 11.4015C21.0494 10.8524 21.873 10.6694 22.5136 10.6694C23.2457 10.7609 23.8863 11.0354 24.4354 11.493L23.7033 12.2251C23.2457 11.859 22.7881 11.7675 22.3306 11.676C21.873 11.676 21.3239 11.7675 20.8664 12.1336C20.3173 12.4996 19.9512 12.8657 19.7682 13.3232C19.5852 13.7808 19.4937 14.2384 19.6767 14.7875C19.7682 15.3365 20.0428 15.8856 20.3173 16.4347C20.6833 16.9838 21.0494 17.4413 21.507 17.7159C21.9645 17.9904 22.4221 18.1734 22.8797 18.1734C23.3372 18.1734 23.8863 17.9904 24.4354 17.7159C24.8929 17.4413 25.1675 17.0753 25.3505 16.7092C25.5335 16.3432 25.625 15.9771 25.5335 15.5196C25.442 15.062 25.3505 14.6044 25.076 14.1469L23.6118 15.1535L23.1542 14.4214L25.5335 12.8657C25.625 12.9572 25.625 12.9572 25.7166 13.0487C25.8081 13.1402 25.8081 13.2317 25.8081 13.2317C26.1741 13.8723 26.4487 14.5129 26.5402 15.1535C26.6317 15.7941 26.5402 16.4347 26.2656 16.9838C25.9911 17.5328 25.625 18.1734 24.9845 18.631Z" fill="#FFFCF3"/>
<path d="M42.3715 15.428C41.8224 15.3365 41.2733 15.1535 40.9073 14.879C40.5412 14.6044 40.0837 14.2384 39.8091 13.8723C39.5346 13.4148 39.3516 12.9572 39.26 12.4081C39.1685 11.859 39.1685 11.2184 39.26 10.5779C39.3516 9.75424 39.6261 9.02214 40.0837 8.38155C40.5412 7.74096 40.9988 7.37491 41.6394 7.10037C42.28 6.82583 42.9206 6.73432 43.7442 6.82583C44.6593 6.91734 45.3914 7.28339 45.849 7.74096C46.3065 8.19852 46.6726 8.83911 46.7641 9.66273L45.7575 9.75424C45.6659 9.20516 45.3914 8.83911 45.1169 8.47306C44.4763 8.29004 44.0187 8.0155 43.4696 8.0155C42.829 7.92398 42.3715 8.0155 41.9139 8.19852C41.4563 8.38155 41.0903 8.7476 40.8158 9.20516C40.5412 9.66273 40.3582 10.2118 40.2667 10.8524C40.1752 11.493 40.1752 12.0421 40.3582 12.5911C40.4497 13.1402 40.7242 13.5063 41.0903 13.8723C41.4564 14.2384 41.9139 14.4214 42.5545 14.5129C43.1036 14.6044 43.5611 14.5129 43.9272 14.4214C44.2932 14.3299 44.6593 14.0553 44.8423 13.6893C45.1169 13.3232 45.2999 12.8657 45.3914 12.3166L43.6527 12.0421L43.7442 11.2184L46.5811 11.5845C46.5811 11.676 46.5811 11.7675 46.5811 11.859C46.5811 11.9506 46.5811 12.0421 46.5811 12.0421C46.4896 12.7742 46.215 13.4148 45.849 13.9638C45.4829 14.5129 45.0254 14.879 44.3848 15.1535C43.8357 15.5196 43.1036 15.6111 42.3715 15.428Z" fill="#FFFCF3"/>
<path d="M49.8755 17.3498C49.1434 17.0753 48.5028 16.6177 48.1368 16.0686C47.7707 15.5196 47.4962 14.879 47.4047 14.2384C47.3132 13.5063 47.4962 12.7742 47.7707 11.9506C48.0453 11.1269 48.5028 10.4863 48.9604 10.0288C49.5095 9.57122 50.0585 9.20517 50.6991 9.11365C51.3397 9.02214 52.0718 9.02214 52.8039 9.29668C53.536 9.57122 54.1766 10.0288 54.5427 10.5779C54.9087 11.1269 55.1833 11.7675 55.2748 12.4081C55.3663 13.1402 55.1833 13.8723 54.9087 14.6959C54.6342 15.5196 54.1766 16.1601 53.7191 16.6177C53.2615 17.0753 52.6209 17.4413 51.9803 17.5328C51.3397 17.7159 50.6076 17.6244 49.8755 17.3498ZM50.2416 16.4347C50.7906 16.6177 51.3397 16.7092 51.7973 16.6177C52.2548 16.5262 52.7124 16.2517 53.0785 15.8856C53.4445 15.5196 53.7191 14.9705 53.9936 14.4214C54.2681 13.7808 54.3596 13.2317 54.2681 12.6827C54.2681 12.1336 54.0851 11.676 53.8106 11.31C53.536 10.9439 53.0785 10.5779 52.5294 10.3948C51.9803 10.2118 51.4312 10.1203 50.9737 10.2118C50.5161 10.3033 50.0585 10.5779 49.6925 10.9439C49.3264 11.31 49.0519 11.859 48.7774 12.4996C48.5028 13.1402 48.4113 13.6893 48.5028 14.2384C48.5028 14.7875 48.6858 15.245 48.9604 15.6111C49.2349 15.9771 49.601 16.2517 50.2416 16.4347Z" fill="#FFFCF3"/>
<path d="M56.6474 21.0103C56.0068 20.5528 55.5493 19.9122 55.2747 19.2716C55.0002 18.631 55.0002 17.9904 55.1832 17.2583C55.3662 16.5262 55.6408 15.8856 56.1899 15.245C56.7389 14.6044 57.288 14.0554 57.9286 13.7808C58.5692 13.5063 59.2098 13.3233 59.8504 13.4148C60.491 13.5063 61.2231 13.7808 61.8637 14.2384C62.5043 14.7875 62.9618 15.3365 63.2364 15.9771C63.5109 16.6177 63.5109 17.2583 63.3279 17.9904C63.1448 18.7225 62.8703 19.3631 62.3212 20.0037C61.7722 20.6443 61.2231 21.1934 60.5825 21.4679C59.9419 21.834 59.3013 21.9255 58.6607 21.834C57.9286 21.834 57.288 21.5594 56.6474 21.0103ZM57.1965 20.2782C57.6541 20.6443 58.2031 20.8273 58.6607 20.9188C59.1183 21.0103 59.6674 20.8273 60.1249 20.5528C60.5825 20.2782 61.04 19.9122 61.4061 19.3631C61.7722 18.814 62.0467 18.3565 62.2297 17.8074C62.4127 17.2583 62.3212 16.8007 62.2297 16.3432C62.0467 15.8856 61.7722 15.428 61.2231 15.062C60.7655 14.6959 60.2164 14.5129 59.7589 14.4214C59.3013 14.4214 58.7522 14.5129 58.2947 14.7875C57.8371 15.062 57.3795 15.4281 57.0135 15.9771C56.6474 16.5262 56.3729 16.9838 56.1899 17.5328C56.0068 18.0819 56.0984 18.5395 56.1899 18.9971C56.2814 19.4546 56.7389 19.9122 57.1965 20.2782Z" fill="#FFFCF3"/>
<path d="M60.0332 23.6642L67.0797 19.4546L68.3609 21.6509C68.3609 21.7424 68.4524 21.8339 68.5439 22.017C68.6354 22.2 68.7269 22.383 68.8184 22.5661C69.093 23.1151 69.1845 23.7557 69.093 24.3048C69.0015 24.8539 68.7269 25.403 68.3609 25.8605C67.9948 26.3181 67.4457 26.7756 66.8967 27.1417C66.2561 27.5077 65.707 27.7823 65.0664 27.8738C64.4258 27.9653 63.8767 27.9653 63.3277 27.7823C62.7786 27.5993 62.321 27.2332 61.8635 26.7756C61.7719 26.5926 61.5889 26.5011 61.4974 26.3181C61.4059 26.1351 61.3144 26.0435 61.2229 25.952L60.0332 23.6642ZM61.4059 24.1218L62.2295 25.403C62.321 25.4945 62.4125 25.6775 62.5041 25.769C62.5956 25.952 62.6871 26.0435 62.7786 26.1351C63.0531 26.5011 63.4192 26.6841 63.7852 26.7756C64.1513 26.8672 64.6088 26.8672 65.0664 26.7756C65.524 26.6841 65.9815 26.5011 66.3476 26.2266C66.8052 25.952 67.1712 25.6775 67.4457 25.3114C67.7203 24.9454 67.9948 24.5793 68.0863 24.2133C68.1779 23.8472 68.1779 23.3897 67.9948 23.0236C67.9033 22.9321 67.9033 22.7491 67.8118 22.5661C67.7203 22.383 67.6288 22.2915 67.5373 22.1085L66.8052 20.8273L61.4059 24.1218Z" fill="#FFFCF3"/>
<path d="M64.8836 38.5808L73.0283 39.1299L72.9368 40.1365L65.7072 39.679L65.4327 43.5225L64.5176 43.431L64.8836 38.5808Z" fill="#FFFCF3"/>
<path d="M62.8697 44.1631C63.6018 43.7971 64.3339 43.614 64.9745 43.614C65.6151 43.7056 66.2557 43.8886 66.8048 44.3461C67.3539 44.8037 67.8114 45.3528 68.269 46.0849C68.635 46.817 68.9096 47.5491 68.9096 48.2812C68.9096 49.0133 68.8181 49.6539 68.452 50.203C68.086 50.752 67.6284 51.3011 66.8963 51.6672C66.1642 52.0332 65.4321 52.2163 64.7915 52.2163C64.1509 52.1247 63.5103 51.9417 62.9612 51.4842C62.4122 51.0266 61.9546 50.4775 61.497 49.7454C61.131 49.0133 60.8564 48.2812 60.8564 47.5491C60.8564 46.817 60.948 46.1764 61.314 45.6273C61.5885 45.0782 62.1376 44.6207 62.8697 44.1631ZM63.3273 45.0782C62.7782 45.3528 62.4122 45.7188 62.1376 46.1764C61.8631 46.634 61.8631 47.0915 61.8631 47.6406C61.9546 48.1897 62.1376 48.7388 62.4122 49.2878C62.6867 49.8369 63.0528 50.2945 63.5103 50.6605C63.9679 51.0266 64.3339 51.2096 64.883 51.2096C65.4321 51.2096 65.8897 51.1181 66.4387 50.8436C66.9878 50.569 67.3539 50.203 67.6284 49.7454C67.8114 49.2878 67.9029 48.8303 67.9029 48.2812C67.9029 47.7321 67.6284 47.183 67.3539 46.634C67.0793 46.0849 66.7133 45.6273 66.2557 45.2613C65.7981 44.8952 65.3406 44.7122 64.883 44.7122C64.3339 44.6207 63.8764 44.8037 63.3273 45.0782Z" fill="#FFFCF3"/>
<path d="M59.6675 42.6989L52.621 47.7321L52.3465 46.7255L58.4778 42.4244L50.9738 42.1498L50.6992 41.1432L59.3929 41.4177L59.6675 42.6989Z" fill="#FFFCF3"/>
<path d="M59.0265 38.5808L50.8818 37.7572L51.4309 32.541L52.346 32.6325L51.8885 36.8421L54.4508 37.1166L54.8169 33.6391L55.732 33.7306L55.366 37.2081L58.1114 37.4827L58.5689 33.2731L59.4841 33.3646L59.0265 38.5808Z" fill="#FFFCF3"/>
</g>
<defs>
<clipPath id="clip0_553_3655">
<rect width="124" height="117.686" fill="white" transform="translate(0 0.694458)"/>
</clipPath>
</defs>
</svg>
