<svg width="360" height="270" viewBox="0 0 360 270" fill="none" xmlns="http://www.w3.org/2000/svg">
<g clip-path="url(#clip0_569_3772)">
<path d="M18.2187 259.804V248.079H22.7458C22.8598 248.079 22.9874 248.084 23.1285 248.095C23.2751 248.1 23.4217 248.117 23.5682 248.144C24.1816 248.236 24.7 248.451 25.1234 248.787C25.5522 249.118 25.8752 249.536 26.0923 250.041C26.3149 250.546 26.4262 251.105 26.4262 251.718C26.4262 252.603 26.1928 253.371 25.7259 254.023C25.2591 254.674 24.5914 255.084 23.7229 255.252L23.3077 255.35H19.4156V259.804H18.2187ZM25.3188 259.804L23.0064 255.032L24.1545 254.593L26.6949 259.804H25.3188ZM19.4156 254.21H22.7133C22.811 254.21 22.925 254.204 23.0553 254.194C23.1855 254.183 23.3131 254.164 23.4379 254.137C23.8396 254.05 24.168 253.884 24.4232 253.64C24.6837 253.396 24.8764 253.105 25.0013 252.769C25.1315 252.432 25.1967 252.082 25.1967 251.718C25.1967 251.355 25.1315 251.005 25.0013 250.668C24.8764 250.326 24.6837 250.033 24.4232 249.789C24.168 249.544 23.8396 249.379 23.4379 249.292C23.3131 249.265 23.1855 249.249 23.0553 249.243C22.925 249.232 22.811 249.227 22.7133 249.227H19.4156V254.21ZM28.492 259.804V248.079H35.8201V249.227H29.689V253.282H34.8431V254.43H29.689V258.656H35.8201V259.804H28.492ZM41.4212 260.048C40.6015 260.048 39.8633 259.912 39.2065 259.641C38.5551 259.364 38.015 258.973 37.5861 258.468C37.1627 257.964 36.8859 257.364 36.7556 256.669L37.977 256.465C38.1724 257.225 38.5849 257.822 39.2146 258.257C39.8443 258.685 40.5961 258.9 41.47 258.9C42.0454 258.9 42.5611 258.81 43.0171 258.631C43.4731 258.447 43.8313 258.186 44.0919 257.85C44.3524 257.513 44.4827 257.114 44.4827 256.653C44.4827 256.349 44.4284 256.091 44.3199 255.879C44.2113 255.662 44.0674 255.483 43.8883 255.342C43.7092 255.201 43.5138 255.084 43.3021 254.992C43.0904 254.894 42.8841 254.815 42.6832 254.755L39.7113 253.868C39.353 253.765 39.0219 253.635 38.7179 253.477C38.4139 253.314 38.148 253.122 37.92 252.899C37.6974 252.671 37.5237 252.405 37.3989 252.101C37.274 251.797 37.2116 251.45 37.2116 251.059C37.2116 250.397 37.3853 249.824 37.7327 249.341C38.0801 248.858 38.5551 248.486 39.1576 248.225C39.7601 247.965 40.4468 247.837 41.2176 247.843C41.9993 247.843 42.6968 247.981 43.3102 248.258C43.929 248.535 44.4393 248.931 44.841 249.447C45.2427 249.957 45.5086 250.562 45.6389 251.262L44.385 251.49C44.3036 250.98 44.1163 250.538 43.8232 250.163C43.53 249.789 43.1555 249.501 42.6995 249.3C42.249 249.094 41.7523 248.988 41.2095 248.983C40.6829 248.983 40.2134 249.072 39.8009 249.251C39.3937 249.425 39.0708 249.664 38.8319 249.968C38.5931 250.272 38.4737 250.619 38.4737 251.01C38.4737 251.406 38.5822 251.724 38.7994 251.963C39.0219 252.201 39.2933 252.389 39.6136 252.524C39.9393 252.66 40.2541 252.771 40.5581 252.858L42.8542 253.534C43.0931 253.599 43.3726 253.694 43.6929 253.819C44.0186 253.939 44.3334 254.112 44.6374 254.34C44.9468 254.563 45.2019 254.856 45.4028 255.22C45.6036 255.583 45.7041 256.045 45.7041 256.604C45.7041 257.147 45.5955 257.632 45.3784 258.061C45.1667 258.49 44.8654 258.851 44.4746 259.144C44.0892 259.437 43.6359 259.66 43.1148 259.812C42.5991 259.969 42.0346 260.048 41.4212 260.048ZM47.3848 259.804V248.079H51.9119C52.0259 248.079 52.1535 248.084 52.2946 248.095C52.4412 248.1 52.5878 248.117 52.7343 248.144C53.3477 248.236 53.8661 248.451 54.2895 248.787C54.7183 249.118 55.0413 249.536 55.2584 250.041C55.481 250.546 55.5923 251.105 55.5923 251.718C55.5923 252.326 55.481 252.883 55.2584 253.388C55.0359 253.892 54.7102 254.313 54.2814 254.65C53.858 254.981 53.3423 255.192 52.7343 255.285C52.5878 255.306 52.4412 255.323 52.2946 255.334C52.1535 255.344 52.0259 255.35 51.9119 255.35H48.5817V259.804H47.3848ZM48.5817 254.21H51.8794C51.9771 254.21 52.0911 254.204 52.2214 254.194C52.3516 254.183 52.4792 254.164 52.604 254.137C53.0057 254.05 53.3341 253.884 53.5893 253.64C53.8498 253.396 54.0425 253.105 54.1674 252.769C54.2977 252.432 54.3628 252.082 54.3628 251.718C54.3628 251.355 54.2977 251.005 54.1674 250.668C54.0425 250.326 53.8498 250.033 53.5893 249.789C53.3341 249.544 53.0057 249.379 52.604 249.292C52.4792 249.265 52.3516 249.249 52.2214 249.243C52.0911 249.232 51.9771 249.227 51.8794 249.227H48.5817V254.21ZM61.9598 260.048C60.7928 260.048 59.8076 259.79 59.0042 259.274C58.2008 258.753 57.5928 258.034 57.1803 257.117C56.7677 256.199 56.5615 255.141 56.5615 253.941C56.5615 252.742 56.7677 251.683 57.1803 250.766C57.5928 249.848 58.2008 249.132 59.0042 248.616C59.8076 248.095 60.7928 247.834 61.9598 247.834C63.1323 247.834 64.1176 248.095 64.9155 248.616C65.7189 249.132 66.3269 249.848 66.7394 250.766C67.1574 251.683 67.3664 252.742 67.3664 253.941C67.3664 255.141 67.1574 256.199 66.7394 257.117C66.3269 258.034 65.7189 258.753 64.9155 259.274C64.1176 259.79 63.1323 260.048 61.9598 260.048ZM61.9598 258.9C62.8772 258.9 63.6426 258.691 64.256 258.273C64.8694 257.855 65.3281 257.274 65.632 256.53C65.9414 255.781 66.0962 254.918 66.0962 253.941C66.0962 252.964 65.9414 252.104 65.632 251.36C65.3281 250.616 64.8694 250.036 64.256 249.618C63.6426 249.2 62.8772 248.988 61.9598 248.983C61.0425 248.983 60.2798 249.192 59.6719 249.61C59.0639 250.027 58.6052 250.611 58.2958 251.36C57.9918 252.104 57.8371 252.964 57.8317 253.941C57.8263 254.918 57.9755 255.779 58.2795 256.522C58.5889 257.261 59.0503 257.841 59.6637 258.265C60.2771 258.683 61.0425 258.894 61.9598 258.9ZM68.997 259.804V248.079H70.2021L76.6589 257.687V248.079H77.864V259.804H76.6589L70.2021 250.188V259.804H68.997ZM84.2162 260.048C83.3965 260.048 82.6583 259.912 82.0014 259.641C81.3501 259.364 80.81 258.973 80.3811 258.468C79.9577 257.964 79.6809 257.364 79.5506 256.669L80.772 256.465C80.9674 257.225 81.3799 257.822 82.0096 258.257C82.6393 258.685 83.3911 258.9 84.265 258.9C84.8404 258.9 85.3561 258.81 85.8121 258.631C86.268 258.447 86.6263 258.186 86.8868 257.85C87.1474 257.513 87.2777 257.114 87.2777 256.653C87.2777 256.349 87.2234 256.091 87.1148 255.879C87.0063 255.662 86.8624 255.483 86.6833 255.342C86.5042 255.201 86.3087 255.084 86.097 254.992C85.8853 254.894 85.6791 254.815 85.4782 254.755L82.5063 253.868C82.148 253.765 81.8169 253.635 81.5129 253.477C81.2089 253.314 80.9429 253.122 80.715 252.899C80.4924 252.671 80.3187 252.405 80.1938 252.101C80.069 251.797 80.0066 251.45 80.0066 251.059C80.0066 250.397 80.1803 249.824 80.5277 249.341C80.8751 248.858 81.3501 248.486 81.9526 248.225C82.5551 247.965 83.2418 247.837 84.0126 247.843C84.7943 247.843 85.4918 247.981 86.1052 248.258C86.724 248.535 87.2343 248.931 87.6359 249.447C88.0376 249.957 88.3036 250.562 88.4339 251.262L87.18 251.49C87.0985 250.98 86.9113 250.538 86.6182 250.163C86.325 249.789 85.9505 249.501 85.4945 249.3C85.044 249.094 84.5473 248.988 84.0045 248.983C83.4779 248.983 83.0084 249.072 82.5958 249.251C82.1887 249.425 81.8657 249.664 81.6269 249.968C81.3881 250.272 81.2686 250.619 81.2686 251.01C81.2686 251.406 81.3772 251.724 81.5943 251.963C81.8169 252.201 82.0883 252.389 82.4086 252.524C82.7343 252.66 83.0491 252.771 83.3531 252.858L85.6492 253.534C85.8881 253.599 86.1676 253.694 86.4879 253.819C86.8136 253.939 87.1284 254.112 87.4324 254.34C87.7418 254.563 87.9969 254.856 88.1978 255.22C88.3986 255.583 88.499 256.045 88.499 256.604C88.499 257.147 88.3905 257.632 88.1733 258.061C87.9616 258.49 87.6604 258.851 87.2695 259.144C86.8841 259.437 86.4309 259.66 85.9098 259.812C85.3941 259.969 84.8296 260.048 84.2162 260.048ZM90.3426 259.804V248.079H91.5396V259.804H90.3426ZM93.9806 259.804V248.079H98.5077C99.1646 248.079 99.7372 248.214 100.226 248.486C100.714 248.757 101.094 249.124 101.366 249.585C101.637 250.041 101.773 250.546 101.773 251.1C101.773 251.729 101.605 252.291 101.268 252.785C100.931 253.274 100.481 253.613 99.9164 253.803L99.9001 253.404C100.66 253.621 101.257 254.001 101.691 254.544C102.126 255.087 102.343 255.743 102.343 256.514C102.343 257.193 102.199 257.779 101.911 258.273C101.624 258.761 101.219 259.139 100.698 259.405C100.177 259.671 99.5717 259.804 98.8823 259.804H93.9806ZM95.1857 258.656H98.5892C99.0669 258.656 99.4957 258.572 99.8757 258.403C100.256 258.23 100.554 257.985 100.771 257.67C100.994 257.356 101.105 256.976 101.105 256.53C101.105 256.096 101.005 255.705 100.804 255.358C100.603 255.011 100.329 254.734 99.9815 254.527C99.6395 254.316 99.2487 254.21 98.809 254.21H95.1857V258.656ZM95.1857 253.078H98.4996C98.8742 253.078 99.2161 252.994 99.5255 252.826C99.835 252.652 100.079 252.416 100.258 252.117C100.443 251.819 100.535 251.474 100.535 251.083C100.535 250.53 100.342 250.079 99.9571 249.732C99.5771 249.384 99.0913 249.211 98.4996 249.211H95.1857V253.078ZM104.131 259.804V248.079H105.327V259.804H104.131ZM107.931 259.804V248.079H109.128V258.656H114.698V259.804H107.931ZM116.249 259.804V248.079H117.446V259.804H116.249ZM123.005 259.804V249.227H118.91V248.079H128.298V249.227H124.202V259.804H123.005ZM132.889 259.804V254.894L128.956 248.079H130.341L133.492 253.526L136.626 248.079H138.011L134.094 254.894V259.804H132.889Z" fill="black"/>
<path d="M46.8207 237.657C46.001 237.657 45.2628 237.521 44.606 237.25C43.9546 236.973 43.4145 236.582 42.9857 236.077C42.5623 235.572 42.2854 234.973 42.1552 234.278L43.3765 234.074C43.5719 234.834 43.9845 235.431 44.6141 235.866C45.2438 236.294 45.9956 236.509 46.8696 236.509C47.445 236.509 47.9606 236.419 48.4166 236.24C48.8726 236.056 49.2308 235.795 49.4914 235.458C49.752 235.122 49.8822 234.723 49.8822 234.262C49.8822 233.958 49.8279 233.7 49.7194 233.488C49.6108 233.271 49.467 233.092 49.2878 232.951C49.1087 232.809 48.9133 232.693 48.7016 232.6C48.4899 232.503 48.2836 232.424 48.0828 232.364L45.1108 231.477C44.7526 231.374 44.4214 231.243 44.1175 231.086C43.8135 230.923 43.5475 230.73 43.3195 230.508C43.0969 230.28 42.9232 230.014 42.7984 229.71C42.6735 229.406 42.6111 229.059 42.6111 228.668C42.6111 228.005 42.7848 227.433 43.1322 226.95C43.4796 226.467 43.9546 226.095 44.5571 225.834C45.1597 225.574 45.8463 225.446 46.6172 225.452C47.3988 225.452 48.0963 225.59 48.7097 225.867C49.3286 226.144 49.8388 226.54 50.2405 227.056C50.6422 227.566 50.9082 228.171 51.0384 228.871L49.7845 229.099C49.7031 228.589 49.5158 228.147 49.2227 227.772C48.9296 227.398 48.555 227.11 48.0991 226.909C47.6485 226.703 47.1518 226.597 46.609 226.591C46.0825 226.591 45.6129 226.681 45.2004 226.86C44.7933 227.034 44.4703 227.273 44.2314 227.577C43.9926 227.881 43.8732 228.228 43.8732 228.619C43.8732 229.015 43.9817 229.333 44.1989 229.572C44.4214 229.81 44.6928 229.998 45.0131 230.133C45.3388 230.269 45.6536 230.38 45.9576 230.467L48.2538 231.143C48.4926 231.208 48.7722 231.303 49.0924 231.428C49.4181 231.547 49.733 231.721 50.0369 231.949C50.3463 232.172 50.6015 232.465 50.8023 232.828C51.0032 233.192 51.1036 233.654 51.1036 234.213C51.1036 234.755 50.995 235.241 50.7779 235.67C50.5662 236.099 50.2649 236.46 49.8741 236.753C49.4887 237.046 49.0354 237.269 48.5143 237.421C47.9986 237.578 47.4341 237.657 46.8207 237.657ZM52.7843 237.413V225.688H60.1124V226.836H53.9813V230.891H59.1354V232.039H53.9813V236.265H60.1124V237.413H52.7843ZM62.0717 237.413V225.688H63.2768L69.7336 235.296V225.688H70.9387V237.413H69.7336L63.2768 227.796V237.413H62.0717ZM77.2909 237.657C76.4712 237.657 75.733 237.521 75.0761 237.25C74.4248 236.973 73.8847 236.582 73.4558 236.077C73.0324 235.572 72.7556 234.973 72.6253 234.278L73.8467 234.074C74.0421 234.834 74.4546 235.431 75.0843 235.866C75.714 236.294 76.4658 236.509 77.3397 236.509C77.9151 236.509 78.4308 236.419 78.8868 236.24C79.3427 236.056 79.701 235.795 79.9615 235.458C80.2221 235.122 80.3524 234.723 80.3524 234.262C80.3524 233.958 80.2981 233.7 80.1895 233.488C80.081 233.271 79.9371 233.092 79.758 232.951C79.5789 232.809 79.3834 232.693 79.1717 232.6C78.96 232.503 78.7538 232.424 78.5529 232.364L75.581 231.477C75.2227 231.374 74.8916 231.243 74.5876 231.086C74.2836 230.923 74.0176 230.73 73.7897 230.508C73.5671 230.28 73.3934 230.014 73.2685 229.71C73.1437 229.406 73.0813 229.059 73.0813 228.668C73.0813 228.005 73.255 227.433 73.6024 226.95C73.9498 226.467 74.4248 226.095 75.0273 225.834C75.6298 225.574 76.3165 225.446 77.0873 225.452C77.869 225.452 78.5665 225.59 79.1799 225.867C79.7987 226.144 80.309 226.54 80.7106 227.056C81.1123 227.566 81.3783 228.171 81.5086 228.871L80.2547 229.099C80.1732 228.589 79.986 228.147 79.6929 227.772C79.3997 227.398 79.0252 227.11 78.5692 226.909C78.1187 226.703 77.622 226.597 77.0792 226.591C76.5526 226.591 76.0831 226.681 75.6705 226.86C75.2634 227.034 74.9404 227.273 74.7016 227.577C74.4628 227.881 74.3433 228.228 74.3433 228.619C74.3433 229.015 74.4519 229.333 74.669 229.572C74.8916 229.81 75.163 229.998 75.4833 230.133C75.809 230.269 76.1238 230.38 76.4278 230.467L78.7239 231.143C78.9628 231.208 79.2423 231.303 79.5626 231.428C79.8883 231.547 80.2031 231.721 80.5071 231.949C80.8165 232.172 81.0716 232.465 81.2725 232.828C81.4733 233.192 81.5737 233.654 81.5737 234.213C81.5737 234.755 81.4652 235.241 81.248 235.67C81.0363 236.099 80.7351 236.46 80.3442 236.753C79.9588 237.046 79.5056 237.269 78.9845 237.421C78.4688 237.578 77.9043 237.657 77.2909 237.657ZM83.2545 237.413V225.688H90.5826V226.836H84.4514V230.891H89.6055V232.039H84.4514V236.265H90.5826V237.413H83.2545ZM100.549 237.657C99.3819 237.657 98.3966 237.399 97.5933 236.883C96.7899 236.362 96.1819 235.643 95.7694 234.726C95.3568 233.808 95.1506 232.75 95.1506 231.55C95.1506 230.35 95.3568 229.292 95.7694 228.375C96.1819 227.457 96.7899 226.741 97.5933 226.225C98.3966 225.704 99.3819 225.443 100.549 225.443C101.721 225.443 102.707 225.704 103.505 226.225C104.308 226.741 104.916 227.457 105.328 228.375C105.746 229.292 105.955 230.35 105.955 231.55C105.955 232.75 105.746 233.808 105.328 234.726C104.916 235.643 104.308 236.362 103.505 236.883C102.707 237.399 101.721 237.657 100.549 237.657ZM100.549 236.509C101.466 236.509 102.232 236.3 102.845 235.882C103.458 235.464 103.917 234.883 104.221 234.139C104.531 233.39 104.685 232.527 104.685 231.55C104.685 230.573 104.531 229.713 104.221 228.969C103.917 228.225 103.458 227.645 102.845 227.227C102.232 226.809 101.466 226.597 100.549 226.591C99.6316 226.591 98.8689 226.8 98.2609 227.218C97.653 227.636 97.1943 228.22 96.8849 228.969C96.5809 229.713 96.4262 230.573 96.4208 231.55C96.4153 232.527 96.5646 233.388 96.8686 234.131C97.178 234.869 97.6394 235.45 98.2528 235.874C98.8662 236.292 99.6316 236.503 100.549 236.509ZM107.586 237.413V225.688H114.32V226.885H108.783V230.956H113.343V232.145H108.783V237.413H107.586Z" fill="black"/>
<path d="M27.5594 230.793V236.04C27.5594 238.566 25.5117 240.613 22.9858 240.613H17.1197C9.58209 240.613 3.47168 246.724 3.47168 254.261C3.47168 261.799 9.5821 267.909 17.1197 267.909H138.082C145.62 267.909 151.73 261.799 151.73 254.261C151.73 246.724 145.62 240.613 138.082 240.613H130.567C127.827 240.613 125.607 238.393 125.607 235.653V230.793C125.607 223.561 119.744 217.698 112.512 217.698H40.6538C33.422 217.698 27.5594 223.561 27.5594 230.793Z" stroke="black"/>
<rect x="41.1299" y="189.2" width="66.1411" height="27.4282" rx="13.7141" fill="white"/>
<path d="M56.3001 208.914V197.189H57.497V207.766H63.0664V208.914H56.3001ZM68.8834 209.158C67.7164 209.158 66.7311 208.9 65.9278 208.385C65.1244 207.864 64.5164 207.144 64.1039 206.227C63.6913 205.31 63.4851 204.251 63.4851 203.052C63.4851 201.852 63.6913 200.793 64.1039 199.876C64.5164 198.959 65.1244 198.242 65.9278 197.726C66.7311 197.205 67.7164 196.945 68.8834 196.945C70.0559 196.945 71.0412 197.205 71.8391 197.726C72.6425 198.242 73.2504 198.959 73.663 199.876C74.081 200.793 74.29 201.852 74.29 203.052C74.29 204.251 74.081 205.31 73.663 206.227C73.2504 207.144 72.6425 207.864 71.8391 208.385C71.0412 208.9 70.0559 209.158 68.8834 209.158ZM68.8834 208.01C69.8008 208.01 70.5662 207.801 71.1796 207.383C71.793 206.965 72.2517 206.385 72.5556 205.641C72.865 204.892 73.0197 204.029 73.0197 203.052C73.0197 202.074 72.865 201.214 72.5556 200.47C72.2517 199.727 71.793 199.146 71.1796 198.728C70.5662 198.31 69.8008 198.098 68.8834 198.093C67.9661 198.093 67.2034 198.302 66.5954 198.72C65.9875 199.138 65.5288 199.721 65.2194 200.47C64.9154 201.214 64.7607 202.074 64.7553 203.052C64.7498 204.029 64.8991 204.889 65.2031 205.633C65.5125 206.371 65.9739 206.952 66.5873 207.375C67.2007 207.793 67.9661 208.005 68.8834 208.01ZM78.4077 208.914L74.3691 197.189H75.6149L79.1893 207.554L82.7883 197.189H84.034L79.9954 208.914H78.4077ZM85.2556 208.914V197.189H92.5837V198.337H86.4526V202.392H91.6067V203.54H86.4526V207.766H92.5837V208.914H85.2556Z" fill="black"/>
<rect x="159.733" y="241.171" width="128.141" height="27.4282" rx="13.7141" fill="white"/>
<path d="M175.036 260.885V249.16H176.233V260.885H175.036ZM178.511 252.092V249.16H179.708V252.092H178.511ZM182.157 260.885V249.16H183.256L187.864 259.021L192.449 249.16H193.564V260.877H192.424V251.831L188.247 260.885H187.474L183.305 251.831V260.885H182.157ZM199.109 260.885V249.16H200.314L206.771 258.768V249.16H207.976V260.885H206.771L200.314 251.269V260.885H199.109ZM215.004 261.13C213.837 261.13 212.852 260.872 212.049 260.356C211.245 259.835 210.637 259.116 210.225 258.198C209.812 257.281 209.606 256.222 209.606 255.023C209.606 253.823 209.812 252.765 210.225 251.847C210.637 250.93 211.245 250.213 212.049 249.698C212.852 249.177 213.837 248.916 215.004 248.916C216.177 248.916 217.162 249.177 217.96 249.698C218.763 250.213 219.371 250.93 219.784 251.847C220.202 252.765 220.411 253.823 220.411 255.023C220.411 256.222 220.202 257.281 219.784 258.198C219.371 259.116 218.763 259.835 217.96 260.356C217.162 260.872 216.177 261.13 215.004 261.13ZM215.004 259.981C215.922 259.981 216.687 259.772 217.3 259.354C217.914 258.937 218.372 258.356 218.676 257.612C218.986 256.863 219.141 256 219.141 255.023C219.141 254.046 218.986 253.185 218.676 252.442C218.372 251.698 217.914 251.117 217.3 250.699C216.687 250.281 215.922 250.07 215.004 250.064C214.087 250.064 213.324 250.273 212.716 250.691C212.108 251.109 211.65 251.693 211.34 252.442C211.036 253.185 210.881 254.046 210.876 255.023C210.871 256 211.02 256.86 211.324 257.604C211.633 258.342 212.095 258.923 212.708 259.346C213.321 259.764 214.087 259.976 215.004 259.981ZM224.842 260.885V250.308H220.746V249.16H230.134V250.308H226.039V260.885H224.842ZM234.37 260.885V249.16H235.567V259.737H241.136V260.885H234.37ZM241.71 260.885L245.749 249.16H247.337L251.375 260.885H250.129L246.294 249.828H246.767L242.956 260.885H241.71ZM243.51 258.044V256.92H249.568V258.044H243.51ZM254.994 260.885V250.308H250.898V249.16H260.286V250.308H256.191V260.885H254.994ZM261.592 260.885V249.16H268.92V250.308H262.789V254.363H267.943V255.511H262.789V259.737H268.92V260.885H261.592ZM271.107 260.885V259.493H272.5V260.885H271.107Z" fill="black"/>
<rect x="123.664" y="186.889" width="74.1411" height="27.4282" rx="13.7141" transform="rotate(25.4053 123.664 186.889)" fill="#2ED06E"/>
<path d="M130.928 212.163L132.898 200.119L134.024 200.653L132.349 210.575L138.963 203.008L140.099 203.539L138.424 213.461L145.041 205.886L146.174 206.424L138.092 215.565L137.003 215.048L138.628 205.175L132.016 212.68L130.928 212.163ZM146.313 219.741C145.259 219.24 144.479 218.584 143.975 217.774C143.473 216.958 143.232 216.048 143.253 215.042C143.274 214.037 143.542 212.992 144.056 211.908C144.571 210.825 145.211 209.957 145.978 209.305C146.744 208.654 147.601 208.267 148.547 208.146C149.497 208.02 150.498 208.207 151.553 208.708C152.612 209.211 153.39 209.869 153.887 210.682C154.392 211.493 154.633 212.401 154.612 213.406C154.596 214.414 154.331 215.46 153.816 216.544C153.302 217.627 152.659 218.494 151.888 219.143C151.121 219.795 150.264 220.184 149.314 220.31C148.372 220.433 147.372 220.244 146.313 219.741ZM146.805 218.703C147.634 219.097 148.415 219.237 149.148 219.122C149.882 219.008 150.545 218.68 151.139 218.139C151.74 217.595 152.25 216.881 152.669 215.999C153.088 215.116 153.318 214.273 153.357 213.468C153.402 212.666 153.236 211.945 152.862 211.304C152.487 210.663 151.886 210.144 151.06 209.745C150.231 209.352 149.453 209.213 148.724 209.33C147.996 209.447 147.331 209.777 146.73 210.321C146.137 210.862 145.628 211.573 145.204 212.453C144.78 213.334 144.545 214.175 144.501 214.977C144.464 215.777 144.631 216.499 145.004 217.145C145.378 217.785 145.979 218.305 146.805 218.703ZM152.774 222.539L157.804 211.948L161.894 213.89C161.997 213.939 162.11 213.999 162.232 214.069C162.363 214.137 162.488 214.214 162.609 214.302C163.123 214.648 163.499 215.064 163.738 215.55C163.983 216.033 164.095 216.549 164.075 217.098C164.059 217.65 163.92 218.203 163.657 218.757C163.277 219.556 162.737 220.15 162.036 220.538C161.334 220.926 160.556 221.01 159.699 220.789L159.282 220.699L155.766 219.029L153.855 223.052L152.774 222.539ZM159.188 225.585L159.146 220.283L160.372 220.378L160.431 226.175L159.188 225.585ZM156.255 218L159.234 219.414C159.322 219.456 159.428 219.5 159.55 219.546C159.672 219.592 159.796 219.63 159.92 219.659C160.32 219.753 160.688 219.744 161.023 219.633C161.363 219.524 161.662 219.345 161.919 219.094C162.181 218.846 162.39 218.558 162.546 218.229C162.702 217.901 162.794 217.556 162.82 217.197C162.854 216.834 162.806 216.487 162.675 216.154C162.55 215.824 162.324 215.534 161.998 215.283C161.897 215.205 161.789 215.135 161.674 215.075C161.561 215.009 161.46 214.955 161.372 214.913L158.393 213.498L156.255 218ZM162.054 226.946L167.084 216.355L168.165 216.869L165.79 221.87L172.998 219.164L174.38 219.821L167.017 222.588L169.755 230.604L168.343 229.933L165.65 222.164L163.135 227.46L162.054 226.946Z" fill="white"/>
<path d="M239.268 191.512L250.117 185.505L251.296 186.567L246.448 197.981L245.522 197.148L250.075 186.366L250.426 186.682L240.193 192.346L239.268 191.512ZM242.507 190.605L243.259 189.77L247.759 193.826L247.007 194.66L242.507 190.605ZM249.136 200.404L256.217 192.546L253.174 189.805L253.942 188.952L260.917 195.236L260.148 196.089L257.106 193.347L250.026 201.205L249.136 200.404ZM259.457 210.032C258.59 209.251 258.031 208.4 257.779 207.479C257.531 206.554 257.561 205.613 257.868 204.655C258.176 203.697 258.731 202.773 259.534 201.882C260.337 200.991 261.199 200.342 262.12 199.937C263.04 199.532 263.972 199.406 264.914 199.561C265.859 199.712 266.766 200.177 267.633 200.959C268.645 201.871 269.237 202.876 269.41 203.974C269.586 205.068 269.4 206.157 268.853 207.243L267.733 206.661C268.169 205.804 268.329 204.958 268.212 204.122C268.096 203.287 267.646 202.517 266.864 201.812C266.183 201.198 265.476 200.842 264.745 200.746C264.013 200.649 263.282 200.776 262.551 201.125C261.827 201.474 261.134 202.008 260.472 202.727C259.814 203.449 259.349 204.188 259.077 204.944C258.809 205.703 258.761 206.446 258.933 207.171C259.113 207.896 259.544 208.565 260.225 209.179C261.008 209.884 261.821 210.251 262.664 210.28C263.511 210.305 264.336 210.059 265.139 209.54L265.834 210.594C264.811 211.251 263.745 211.55 262.635 211.493C261.528 211.431 260.469 210.944 259.457 210.032ZM264.875 214.585L272.723 205.875L273.613 206.676L266.532 214.533L270.67 218.262L269.901 219.115L264.875 214.585ZM270.933 220.044L278.781 211.333L284.225 216.239L283.457 217.092L278.902 212.987L276.188 216L280.017 219.45L279.248 220.303L275.419 216.853L272.59 219.992L277.145 224.096L276.377 224.949L270.933 220.044ZM277.227 225.716L288.076 219.709L289.256 220.771L284.407 232.185L283.482 231.351L288.035 220.57L288.386 220.886L278.153 226.55L277.227 225.716ZM280.466 224.809L281.219 223.974L285.719 228.03L284.967 228.864L280.466 224.809ZM285.5 233.17L293.348 224.459L294.244 225.266L292.609 236.726L299.041 229.588L299.936 230.395L292.087 239.105L291.192 238.299L292.832 226.833L286.395 233.976L285.5 233.17ZM293.903 240.741L301.751 232.031L302.641 232.832L294.792 241.542L293.903 240.741ZM296.605 243.176L304.454 234.466L305.349 235.273L303.714 246.733L310.146 239.595L311.041 240.402L303.193 249.112L302.297 248.305L303.938 236.839L297.5 243.983L296.605 243.176ZM308.214 253.965C307.601 253.413 307.145 252.808 306.845 252.151C306.546 251.494 306.401 250.812 306.41 250.104C306.423 249.4 306.59 248.688 306.91 247.968C307.234 247.244 307.706 246.537 308.328 245.848C309.149 244.936 310.022 244.284 310.947 243.889C311.88 243.495 312.811 243.377 313.742 243.536C314.673 243.696 315.553 244.149 316.384 244.898C317.312 245.734 317.87 246.631 318.058 247.59C318.254 248.548 318.138 249.496 317.71 250.433L316.618 249.844C316.909 249.141 316.979 248.434 316.831 247.723C316.687 247.015 316.292 246.371 315.646 245.79C314.969 245.171 314.264 244.814 313.532 244.718C312.805 244.617 312.075 244.742 311.344 245.091C310.62 245.44 309.929 245.976 309.271 246.698C308.613 247.42 308.148 248.159 307.876 248.915C307.612 249.671 307.566 250.411 307.738 251.136C307.914 251.857 308.341 252.527 309.019 253.145C309.644 253.708 310.269 254.052 310.894 254.177C311.52 254.303 312.141 254.234 312.757 253.971C313.378 253.712 313.98 253.287 314.565 252.695L312.556 250.885L313.243 250.123L316.183 252.772C316.111 252.876 316.028 252.98 315.934 253.085C315.847 253.189 315.784 253.264 315.744 253.308C315.035 254.095 314.26 254.671 313.418 255.038C312.58 255.4 311.715 255.505 310.823 255.352C309.938 255.198 309.069 254.736 308.214 253.965Z" fill="black"/>
<path d="M266.104 185.554L273.953 176.843L274.842 177.645L266.994 186.355L266.104 185.554ZM274.573 181.347L276.535 179.17L277.424 179.971L275.462 182.148L274.573 181.347ZM271.394 190.32L279.243 181.61L280.06 182.346L276.883 192.756L286.889 188.499L287.718 189.246L279.874 197.951L279.028 197.187L285.083 190.467L275.919 194.397L275.344 193.88L278.308 184.363L272.247 191.089L271.394 190.32ZM287.315 204.995C286.702 204.443 286.246 203.838 285.947 203.181C285.647 202.524 285.502 201.842 285.512 201.134C285.525 200.43 285.691 199.718 286.011 198.998C286.335 198.274 286.808 197.567 287.429 196.877C288.25 195.966 289.123 195.313 290.048 194.919C290.981 194.525 291.913 194.407 292.843 194.566C293.774 194.725 294.655 195.179 295.485 195.928C296.413 196.763 296.971 197.661 297.159 198.619C297.355 199.578 297.239 200.525 296.811 201.462L295.72 200.874C296.01 200.17 296.081 199.463 295.932 198.752C295.788 198.045 295.393 197.401 294.748 196.819C294.07 196.201 293.365 195.844 292.634 195.747C291.906 195.647 291.176 195.771 290.445 196.121C289.722 196.47 289.031 197.005 288.373 197.728C287.714 198.45 287.249 199.189 286.977 199.945C286.713 200.7 286.667 201.441 286.839 202.166C287.015 202.887 287.442 203.557 288.12 204.175C288.745 204.738 289.37 205.082 289.996 205.207C290.621 205.332 291.242 205.263 291.859 205.001C292.479 204.742 293.082 204.316 293.666 203.725L291.658 201.915L292.344 201.153L295.284 203.802C295.213 203.906 295.13 204.01 295.035 204.115C294.948 204.219 294.885 204.294 294.845 204.338C294.137 205.124 293.361 205.701 292.519 206.067C291.681 206.43 290.816 206.535 289.924 206.381C289.04 206.227 288.17 205.765 287.315 204.995ZM295.881 212.714C295.014 211.932 294.455 211.081 294.203 210.161C293.955 209.236 293.985 208.294 294.293 207.337C294.601 206.379 295.156 205.455 295.959 204.563C296.762 203.672 297.624 203.024 298.544 202.618C299.465 202.213 300.396 202.088 301.338 202.242C302.284 202.393 303.19 202.859 304.057 203.64C304.928 204.425 305.486 205.278 305.73 206.2C305.981 207.12 305.953 208.06 305.646 209.017C305.342 209.979 304.789 210.905 303.986 211.796C303.183 212.687 302.319 213.334 301.394 213.736C300.474 214.141 299.541 214.268 298.595 214.118C297.657 213.967 296.753 213.499 295.881 212.714ZM296.65 211.861C297.331 212.475 298.04 212.832 298.775 212.932C299.511 213.032 300.241 212.908 300.964 212.559C301.695 212.209 302.388 211.672 303.042 210.946C303.696 210.22 304.157 209.477 304.425 208.718C304.697 207.962 304.745 207.223 304.569 206.502C304.393 205.781 303.967 205.111 303.289 204.493C302.607 203.879 301.901 203.524 301.169 203.427C300.438 203.331 299.706 203.457 298.975 203.807C298.251 204.156 297.561 204.691 296.903 205.414C296.244 206.136 295.779 206.875 295.507 207.631C295.243 208.386 295.197 209.127 295.369 209.852C295.545 210.573 295.972 211.243 296.65 211.861ZM304.636 220.602C303.769 219.821 303.21 218.97 302.958 218.049C302.71 217.124 302.74 216.183 303.047 215.225C303.355 214.267 303.91 213.343 304.713 212.452C305.516 211.56 306.378 210.912 307.299 210.507C308.219 210.101 309.151 209.976 310.093 210.131C311.038 210.281 311.945 210.747 312.812 211.529C313.683 212.313 314.24 213.167 314.484 214.088C314.736 215.009 314.708 215.948 314.4 216.906C314.097 217.867 313.543 218.793 312.74 219.684C311.937 220.576 311.073 221.222 310.149 221.624C309.228 222.029 308.295 222.157 307.349 222.006C306.411 221.855 305.507 221.387 304.636 220.602ZM305.404 219.749C306.086 220.363 306.794 220.72 307.53 220.82C308.265 220.92 308.995 220.796 309.719 220.447C310.45 220.098 311.143 219.56 311.797 218.834C312.451 218.108 312.912 217.366 313.18 216.606C313.452 215.85 313.5 215.111 313.324 214.39C313.148 213.669 312.721 213 312.043 212.382C311.362 211.767 310.655 211.412 309.924 211.316C309.192 211.219 308.461 211.346 307.73 211.695C307.006 212.044 306.315 212.58 305.657 213.302C304.999 214.024 304.534 214.763 304.262 215.519C303.998 216.275 303.951 217.015 304.124 217.74C304.3 218.461 304.727 219.131 305.404 219.749ZM310.027 225.131L317.876 216.421L320.519 218.803C320.612 218.886 320.768 219.03 320.986 219.234C321.208 219.441 321.409 219.652 321.589 219.865C322.167 220.554 322.498 221.298 322.582 222.097C322.666 222.896 322.541 223.704 322.206 224.52C321.872 225.337 321.371 226.117 320.702 226.859C320.034 227.601 319.311 228.18 318.533 228.597C317.755 229.015 316.965 229.223 316.161 229.222C315.358 229.222 314.584 228.97 313.839 228.467C313.615 228.31 313.385 228.131 313.148 227.932C312.914 227.729 312.755 227.589 312.671 227.513L310.027 225.131ZM311.715 225.107L313.439 226.66C313.605 226.809 313.786 226.965 313.982 227.128C314.187 227.29 314.37 227.419 314.533 227.514C315.121 227.883 315.716 228.046 316.317 228.004C316.922 227.964 317.515 227.768 318.097 227.415C318.681 227.058 319.235 226.589 319.759 226.008C320.286 225.424 320.696 224.822 320.991 224.203C321.285 223.584 321.419 222.974 321.391 222.372C321.364 221.77 321.138 221.198 320.714 220.655C320.602 220.503 320.451 220.334 320.261 220.148C320.078 219.961 319.908 219.797 319.751 219.656L318.027 218.102L311.715 225.107Z" fill="black"/>
<path d="M259.199 170.421L254.479 175.659C253.455 176.796 251.704 176.887 250.567 175.863C245.718 171.493 238.246 171.882 233.876 176.731L232.652 178.09C227.606 183.69 228.055 192.32 233.655 197.366L307.135 263.576C312.735 268.622 321.365 268.173 326.41 262.573L327.083 261.826C331.757 256.639 331.341 248.645 326.154 243.971C324.938 242.875 324.84 241.002 325.936 239.786L330.526 234.691C335.367 229.319 334.937 221.039 329.564 216.198L277.692 169.459C272.32 164.618 264.04 165.048 259.199 170.421Z" stroke="black"/>
<circle cx="238.104" cy="224.887" r="13.9098" transform="rotate(-90 238.104 224.887)" fill="#2ED06E"/>
<rect x="151.252" y="182.666" width="173.141" height="27.4282" rx="13.7141" transform="rotate(-26.1042 151.252 182.666)" fill="white"/>
<path d="M173.541 193.698L168.382 183.169L172.447 181.178C172.55 181.127 172.667 181.076 172.798 181.024C172.932 180.964 173.071 180.914 173.215 180.874C173.806 180.687 174.366 180.652 174.894 180.768C175.425 180.876 175.899 181.109 176.316 181.467C176.738 181.823 177.084 182.276 177.354 182.827C177.621 183.372 177.766 183.921 177.788 184.472C177.811 185.024 177.703 185.545 177.466 186.036C177.232 186.519 176.862 186.936 176.357 187.287C176.235 187.371 176.11 187.45 175.983 187.524C175.861 187.596 175.749 187.657 175.647 187.707L172.656 189.172L174.616 193.172L173.541 193.698ZM172.155 188.149L175.116 186.698C175.204 186.655 175.304 186.6 175.416 186.533C175.528 186.465 175.634 186.392 175.734 186.313C176.057 186.058 176.279 185.765 176.401 185.433C176.527 185.099 176.572 184.754 176.536 184.397C176.505 184.037 176.41 183.694 176.25 183.367C176.09 183.041 175.877 182.755 175.612 182.51C175.349 182.258 175.047 182.08 174.706 181.975C174.369 181.868 174.002 181.864 173.603 181.962C173.479 181.993 173.357 182.035 173.238 182.087C173.116 182.135 173.011 182.18 172.923 182.223L169.962 183.674L172.155 188.149ZM182.367 189.374L177.208 178.845L181.273 176.853C181.375 176.803 181.492 176.752 181.624 176.699C181.758 176.64 181.897 176.59 182.04 176.55C182.632 176.363 183.191 176.327 183.72 176.443C184.25 176.552 184.724 176.785 185.142 177.143C185.564 177.498 185.909 177.951 186.179 178.502C186.569 179.297 186.697 180.089 186.564 180.879C186.432 181.67 186.013 182.332 185.307 182.865L184.977 183.135L181.482 184.848L183.441 188.847L182.367 189.374ZM188.743 186.25L184.567 182.983L185.404 182.083L189.978 185.644L188.743 186.25ZM180.98 183.824L183.941 182.373C184.029 182.33 184.129 182.275 184.241 182.208C184.354 182.141 184.46 182.068 184.56 181.989C184.882 181.734 185.105 181.441 185.226 181.109C185.353 180.775 185.398 180.429 185.362 180.072C185.331 179.713 185.235 179.37 185.075 179.043C184.915 178.717 184.703 178.431 184.438 178.186C184.175 177.934 183.873 177.755 183.532 177.651C183.195 177.543 182.827 177.539 182.428 177.638C182.304 177.669 182.183 177.71 182.063 177.763C181.941 177.81 181.837 177.855 181.749 177.898L178.788 179.349L180.98 183.824ZM195.962 182.984C194.914 183.498 193.916 183.7 192.968 183.59C192.017 183.476 191.155 183.097 190.381 182.455C189.606 181.813 188.955 180.953 188.428 179.876C187.9 178.799 187.619 177.757 187.586 176.752C187.553 175.747 187.784 174.836 188.278 174.019C188.77 173.198 189.54 172.53 190.588 172.017C191.641 171.501 192.641 171.301 193.586 171.418C194.535 171.528 195.396 171.904 196.17 172.546C196.949 173.186 197.602 174.044 198.13 175.122C198.658 176.199 198.936 177.241 198.965 178.249C198.998 179.254 198.768 180.168 198.276 180.989C197.786 181.803 197.015 182.468 195.962 182.984ZM195.457 181.953C196.281 181.55 196.876 181.025 197.243 180.38C197.61 179.735 197.766 179.011 197.712 178.21C197.66 177.401 197.42 176.558 196.99 175.681C196.56 174.803 196.042 174.099 195.437 173.567C194.837 173.033 194.17 172.713 193.435 172.608C192.7 172.502 191.92 172.649 191.093 173.048C190.27 173.451 189.677 173.975 189.315 174.617C188.953 175.26 188.798 175.986 188.849 176.795C188.904 177.596 189.143 178.437 189.568 179.317C189.993 180.197 190.506 180.904 191.106 181.438C191.709 181.965 192.379 182.283 193.116 182.393C193.851 182.499 194.631 182.352 195.457 181.953ZM202.174 179.669L197.015 169.14L201.08 167.148C201.67 166.859 202.244 166.729 202.802 166.757C203.361 166.786 203.863 166.948 204.31 167.243C204.754 167.533 205.098 167.927 205.342 168.424C205.619 168.989 205.715 169.568 205.63 170.159C205.543 170.746 205.287 171.249 204.864 171.668L204.674 171.317C205.452 171.178 206.155 171.256 206.784 171.552C207.413 171.849 207.897 172.343 208.236 173.035C208.535 173.645 208.663 174.234 208.622 174.805C208.579 175.37 208.382 175.887 208.031 176.355C207.68 176.823 207.195 177.209 206.576 177.512L202.174 179.669ZM202.751 178.107L205.807 176.61C206.236 176.4 206.584 176.135 206.852 175.817C207.116 175.494 207.277 175.143 207.334 174.765C207.395 174.384 207.328 173.994 207.132 173.594C206.941 173.205 206.679 172.898 206.345 172.674C206.012 172.451 205.644 172.323 205.241 172.29C204.841 172.251 204.444 172.327 204.049 172.521L200.795 174.115L202.751 178.107ZM200.297 173.099L203.273 171.641C203.609 171.476 203.879 171.25 204.083 170.963C204.285 170.671 204.4 170.351 204.429 170.004C204.464 169.655 204.395 169.305 204.223 168.954C203.979 168.456 203.608 168.137 203.109 167.994C202.615 167.85 202.102 167.907 201.571 168.168L198.595 169.626L200.297 173.099ZM211.289 175.203L206.13 164.674L207.205 164.147L211.858 173.645L216.86 171.194L217.365 172.225L211.289 175.203ZM218.611 171.615L213.452 161.086L220.033 157.861L220.538 158.892L215.032 161.59L216.816 165.231L221.445 162.963L221.95 163.994L217.322 166.262L219.181 170.057L224.687 167.359L225.192 168.39L218.611 171.615ZM226.951 167.528L221.792 156.999L222.779 156.516L231.256 163.342L231.034 152.471L232.036 151.98L237.192 162.502L236.168 163.003L232.188 154.88L232.421 164.848L231.726 165.189L223.998 158.892L227.982 167.023L226.951 167.528ZM236.747 156.771L236.296 155.85L240.683 153.7L241.134 154.622L236.747 156.771ZM249.151 156.923C248.415 157.283 247.693 157.486 246.983 157.531C246.277 157.569 245.62 157.456 245.012 157.191C244.41 156.924 243.898 156.508 243.475 155.941L244.482 155.221C244.992 155.817 245.625 156.172 246.382 156.285C247.136 156.393 247.905 156.255 248.69 155.87C249.207 155.617 249.63 155.31 249.961 154.948C250.289 154.582 250.496 154.19 250.582 153.773C250.668 153.356 250.61 152.941 250.407 152.526C250.273 152.253 250.111 152.046 249.92 151.903C249.727 151.756 249.519 151.659 249.296 151.611C249.073 151.563 248.846 151.544 248.615 151.554C248.382 151.56 248.162 151.58 247.956 151.615L244.897 152.125C244.529 152.19 244.175 152.219 243.833 152.211C243.488 152.199 243.164 152.143 242.862 152.043C242.561 151.937 242.288 151.774 242.043 151.556C241.797 151.338 241.588 151.054 241.416 150.703C241.124 150.108 241.028 149.517 241.128 148.93C241.227 148.344 241.49 147.801 241.917 147.302C242.343 146.803 242.903 146.386 243.598 146.052C244.3 145.708 244.987 145.525 245.66 145.504C246.337 145.48 246.97 145.612 247.558 145.898C248.143 146.179 248.648 146.606 249.073 147.177L248.047 147.934C247.75 147.511 247.387 147.197 246.959 146.989C246.531 146.782 246.068 146.688 245.57 146.709C245.075 146.722 244.582 146.845 244.092 147.079C243.619 147.311 243.237 147.598 242.946 147.94C242.656 148.275 242.472 148.632 242.391 149.01C242.31 149.388 242.356 149.752 242.528 150.103C242.702 150.459 242.939 150.697 243.239 150.816C243.544 150.932 243.87 150.981 244.218 150.962C244.57 150.94 244.902 150.902 245.213 150.846L247.572 150.443C247.815 150.396 248.108 150.358 248.451 150.329C248.796 150.293 249.155 150.311 249.528 150.382C249.904 150.446 250.262 150.596 250.602 150.835C250.943 151.073 251.236 151.443 251.482 151.945C251.721 152.433 251.837 152.917 251.831 153.397C251.829 153.876 251.718 154.332 251.496 154.767C251.278 155.2 250.969 155.6 250.568 155.965C250.174 156.334 249.702 156.653 249.151 156.923ZM258.769 152.21C257.721 152.723 256.723 152.925 255.775 152.816C254.824 152.701 253.962 152.323 253.188 151.681C252.413 151.038 251.762 150.179 251.235 149.101C250.707 148.024 250.426 146.983 250.393 145.977C250.36 144.972 250.591 144.061 251.085 143.245C251.577 142.423 252.347 141.756 253.395 141.242C254.448 140.726 255.448 140.527 256.393 140.644C257.342 140.753 258.203 141.129 258.977 141.771C259.756 142.411 260.41 143.27 260.937 144.347C261.465 145.424 261.743 146.467 261.772 147.475C261.805 148.48 261.575 149.393 261.083 150.215C260.594 151.029 259.822 151.694 258.769 152.21ZM258.264 151.179C259.088 150.775 259.683 150.251 260.05 149.606C260.417 148.96 260.573 148.237 260.519 147.435C260.467 146.627 260.227 145.783 259.797 144.906C259.367 144.029 258.849 143.324 258.244 142.792C257.644 142.258 256.977 141.939 256.242 141.833C255.507 141.728 254.727 141.874 253.901 142.273C253.077 142.677 252.484 143.2 252.122 143.843C251.76 144.486 251.605 145.212 251.656 146.02C251.711 146.822 251.95 147.663 252.375 148.542C252.8 149.422 253.313 150.129 253.913 150.663C254.516 151.19 255.186 151.509 255.923 151.619C256.658 151.724 257.438 151.578 258.264 151.179ZM265.127 148.822L259.968 138.293L261.043 137.767L265.697 147.265L270.698 144.814L271.204 145.845L265.127 148.822ZM273.955 144.497L265.169 135.745L266.288 135.197L274.059 142.932L272.73 132.041L273.849 131.492L275.381 143.798L273.955 144.497ZM280.251 141.412L275.092 130.883L276.167 130.357L281.326 140.886L280.251 141.412ZM283.518 139.811L278.359 129.282L279.441 128.752L289.467 134.539L285.239 125.911L286.321 125.381L291.48 135.91L290.398 136.44L280.369 130.646L284.6 139.281L283.518 139.811ZM297.855 133.058C297.114 133.421 296.383 133.62 295.662 133.653C294.94 133.686 294.253 133.566 293.6 133.294C292.951 133.019 292.353 132.599 291.804 132.034C291.252 131.464 290.773 130.762 290.364 129.928C289.824 128.827 289.544 127.773 289.523 126.768C289.504 125.756 289.742 124.847 290.237 124.043C290.731 123.238 291.48 122.59 292.485 122.098C293.606 121.549 294.646 121.365 295.606 121.548C296.568 121.723 297.405 122.184 298.115 122.93L297.162 123.723C296.617 123.192 295.988 122.863 295.272 122.736C294.562 122.606 293.817 122.733 293.037 123.115C292.211 123.514 291.617 124.034 291.255 124.677C290.89 125.315 290.734 126.039 290.786 126.847C290.84 127.649 291.08 128.49 291.505 129.37C291.93 130.249 292.442 130.956 293.043 131.49C293.645 132.017 294.315 132.336 295.052 132.446C295.787 132.551 296.567 132.405 297.394 132.006C298.149 131.636 298.701 131.184 299.051 130.65C299.4 130.116 299.567 129.514 299.553 128.844C299.544 128.172 299.374 127.454 299.042 126.692L296.615 127.881L296.163 126.96L299.717 125.219C299.786 125.324 299.852 125.44 299.914 125.566C299.979 125.686 300.024 125.772 300.051 125.826C300.516 126.776 300.763 127.711 300.789 128.628C300.813 129.541 300.588 130.383 300.113 131.154C299.641 131.917 298.888 132.552 297.855 133.058Z" fill="black"/>
<circle cx="139.379" cy="178.746" r="13.9098" transform="rotate(-90 139.379 178.746)" fill="#0E0E0E"/>
<path d="M135.515 178.553H143.265" stroke="#FEFCF2" stroke-width="0.772768"/>
<path d="M141.007 176.083L143.466 178.541L141.007 181" stroke="#FEFCF2" stroke-width="0.772768" stroke-linecap="round" stroke-linejoin="round"/>
<path d="M323.056 178.012C322.181 177.137 320.6 176.358 318.853 175.957C320.598 175.558 322.179 174.779 323.056 173.902C325.129 171.834 324.854 168.2 321.793 165.139C318.827 162.174 315.098 161.803 313.028 163.873C312.153 164.748 311.374 166.329 310.973 168.077C310.574 166.332 309.793 164.748 308.918 163.873C306.847 161.803 303.216 162.075 300.152 165.139C297.189 168.102 296.816 171.834 298.887 173.904C299.762 174.779 301.343 175.558 303.09 175.959C301.345 176.358 299.764 177.137 298.887 178.014C296.816 180.085 297.091 183.718 300.152 186.78C303.118 189.745 306.847 190.116 308.918 188.045C309.793 187.17 310.572 185.589 310.973 183.842C311.371 185.587 312.153 187.17 313.028 188.045C315.098 190.116 318.732 189.841 321.793 186.78C324.756 183.812 325.129 180.085 323.056 178.012Z" fill="#0E0E0E"/>
<rect x="89.8945" y="136.452" width="101.141" height="27.4282" rx="13.7141" fill="#2ED06E"/>
<path d="M109.751 156.411C108.584 156.411 107.599 156.153 106.795 155.637C105.992 155.116 105.384 154.397 104.971 153.48C104.559 152.562 104.353 151.504 104.353 150.304C104.353 149.104 104.559 148.046 104.971 147.129C105.384 146.211 105.992 145.495 106.795 144.979C107.599 144.458 108.584 144.197 109.751 144.197C111.113 144.197 112.226 144.547 113.089 145.248C113.952 145.942 114.544 146.876 114.864 148.049L113.643 148.366C113.393 147.438 112.946 146.702 112.3 146.16C111.654 145.617 110.804 145.345 109.751 145.345C108.834 145.345 108.071 145.554 107.463 145.972C106.855 146.39 106.396 146.974 106.087 147.723C105.783 148.467 105.626 149.327 105.615 150.304C105.609 151.281 105.759 152.141 106.063 152.885C106.372 153.629 106.833 154.212 107.447 154.636C108.066 155.054 108.834 155.263 109.751 155.263C110.804 155.263 111.654 154.991 112.3 154.448C112.946 153.9 113.393 153.165 113.643 152.242L114.864 152.559C114.544 153.732 113.952 154.668 113.089 155.369C112.226 156.063 111.113 156.411 109.751 156.411ZM116.661 156.167V144.442H121.188C121.302 144.442 121.43 144.447 121.571 144.458C121.717 144.463 121.864 144.48 122.01 144.507C122.624 144.599 123.142 144.813 123.566 145.15C123.994 145.481 124.317 145.899 124.535 146.404C124.757 146.909 124.868 147.468 124.868 148.081C124.868 148.966 124.635 149.734 124.168 150.385C123.701 151.037 123.034 151.447 122.165 151.615L121.75 151.713H117.858V156.167H116.661ZM123.761 156.167L121.449 151.395L122.597 150.955L125.137 156.167H123.761ZM117.858 150.573H121.155C121.253 150.573 121.367 150.567 121.497 150.556C121.628 150.546 121.755 150.527 121.88 150.499C122.282 150.413 122.61 150.247 122.865 150.003C123.126 149.758 123.319 149.468 123.443 149.132C123.574 148.795 123.639 148.445 123.639 148.081C123.639 147.717 123.574 147.367 123.443 147.031C123.319 146.689 123.126 146.396 122.865 146.151C122.61 145.907 122.282 145.742 121.88 145.655C121.755 145.628 121.628 145.611 121.497 145.606C121.367 145.595 121.253 145.59 121.155 145.59H117.858V150.573ZM126.934 156.167V144.442H134.262V145.59H128.131V149.644H133.285V150.793H128.131V155.018H134.262V156.167H126.934ZM135.407 156.167L139.446 144.442H141.034L145.072 156.167H143.827L139.992 145.109H140.464L136.653 156.167H135.407ZM137.207 153.325V152.201H143.265V153.325H137.207ZM148.691 156.167V145.59H144.595V144.442H153.984V145.59H149.888V156.167H148.691ZM155.452 156.167V144.442H156.649V156.167H155.452ZM162.07 156.167L158.032 144.442H159.277L162.852 154.807L166.451 144.442H167.697L163.658 156.167H162.07ZM168.918 156.167V144.442H176.246V145.59H170.115V149.644H175.269V150.793H170.115V155.018H176.246V156.167H168.918Z" fill="white"/>
<rect x="119.353" y="106.937" width="121.141" height="27.4282" rx="13.7141" fill="white"/>
<path d="M134.197 126.65V114.925H141.525V116.073H135.394V120.128H140.548V121.276H135.394V125.502H141.525V126.65H134.197ZM142.507 126.65L146.57 120.715L142.613 114.925H144.062L147.278 119.713L150.495 114.925H151.952L147.995 120.715L152.05 126.65H150.6L147.278 121.724L143.964 126.65H142.507ZM153.36 126.65V114.925H157.887C158.001 114.925 158.128 114.931 158.27 114.942C158.416 114.947 158.563 114.963 158.709 114.991C159.323 115.083 159.841 115.297 160.264 115.634C160.693 115.965 161.016 116.383 161.233 116.888C161.456 117.393 161.567 117.952 161.567 118.565C161.567 119.173 161.456 119.729 161.233 120.234C161.011 120.739 160.685 121.16 160.256 121.496C159.833 121.827 159.317 122.039 158.709 122.131C158.563 122.153 158.416 122.169 158.27 122.18C158.128 122.191 158.001 122.197 157.887 122.197H154.557V126.65H153.36ZM154.557 121.057H157.854C157.952 121.057 158.066 121.051 158.196 121.04C158.327 121.029 158.454 121.01 158.579 120.983C158.981 120.896 159.309 120.731 159.564 120.487C159.825 120.242 160.017 119.952 160.142 119.615C160.273 119.279 160.338 118.929 160.338 118.565C160.338 118.201 160.273 117.851 160.142 117.515C160.017 117.173 159.825 116.88 159.564 116.635C159.309 116.391 158.981 116.225 158.579 116.139C158.454 116.111 158.327 116.095 158.196 116.09C158.066 116.079 157.952 116.073 157.854 116.073H154.557V121.057ZM163.188 126.65V114.925H170.516V116.073H164.385V120.128H169.539V121.276H164.385V125.502H170.516V126.65H163.188ZM172.475 126.65V114.925H177.002C177.116 114.925 177.244 114.931 177.385 114.942C177.532 114.947 177.678 114.963 177.825 114.991C178.438 115.083 178.956 115.297 179.38 115.634C179.809 115.965 180.132 116.383 180.349 116.888C180.571 117.393 180.683 117.952 180.683 118.565C180.683 119.45 180.449 120.218 179.982 120.869C179.516 121.521 178.848 121.931 177.979 122.099L177.564 122.197H173.672V126.65H172.475ZM179.575 126.65L177.263 121.879L178.411 121.439L180.951 126.65H179.575ZM173.672 121.057H176.97C177.067 121.057 177.181 121.051 177.312 121.04C177.442 121.029 177.57 121.01 177.694 120.983C178.096 120.896 178.424 120.731 178.68 120.487C178.94 120.242 179.133 119.952 179.258 119.615C179.388 119.279 179.453 118.929 179.453 118.565C179.453 118.201 179.388 117.851 179.258 117.515C179.133 117.173 178.94 116.88 178.68 116.635C178.424 116.391 178.096 116.225 177.694 116.139C177.57 116.111 177.442 116.095 177.312 116.09C177.181 116.079 177.067 116.073 176.97 116.073H173.672V121.057ZM182.911 126.65V114.925H184.108V126.65H182.911ZM186.549 126.65V114.925H193.877V116.073H187.746V120.128H192.9V121.276H187.746V125.502H193.877V126.65H186.549ZM195.837 126.65V114.925H197.042L203.499 124.533V114.925H204.704V126.65H203.499L197.042 117.034V126.65H195.837ZM211.732 126.895C210.565 126.895 209.579 126.637 208.776 126.121C207.973 125.6 207.365 124.881 206.952 123.963C206.54 123.046 206.333 121.988 206.333 120.788C206.333 119.588 206.54 118.53 206.952 117.612C207.365 116.695 207.973 115.979 208.776 115.463C209.579 114.942 210.565 114.681 211.732 114.681C213.094 114.681 214.207 115.031 215.07 115.732C215.933 116.426 216.525 117.36 216.845 118.532L215.624 118.85C215.374 117.922 214.926 117.186 214.28 116.643C213.634 116.101 212.785 115.829 211.732 115.829C210.814 115.829 210.052 116.038 209.444 116.456C208.836 116.874 208.377 117.458 208.068 118.207C207.764 118.95 207.606 119.811 207.595 120.788C207.59 121.765 207.739 122.625 208.043 123.369C208.353 124.113 208.814 124.696 209.427 125.12C210.046 125.538 210.814 125.747 211.732 125.747C212.785 125.747 213.634 125.475 214.28 124.932C214.926 124.384 215.374 123.649 215.624 122.726L216.845 123.043C216.525 124.216 215.933 125.152 215.07 125.852C214.207 126.547 213.094 126.895 211.732 126.895ZM218.642 126.65V114.925H225.97V116.073H219.838V120.128H224.993V121.276H219.838V125.502H225.97V126.65H218.642Z" fill="black"/>
<rect x="73.8916" y="77.4209" width="139.141" height="27.4282" rx="13.7141" fill="white"/>
<path d="M88.9572 97.1353V85.4103H96.2853V86.5584H90.1542V90.6132H95.3083V91.7613H90.1542V95.9872H96.2853V97.1353H88.9572ZM98.2446 97.1353V85.4103H99.4497L105.907 95.0182V85.4103H107.112V97.1353H105.907L99.4497 87.5192V97.1353H98.2446ZM112.511 97.1353V86.5584H108.416V85.4103H117.804V86.5584H113.708V97.1353H112.511ZM119.109 97.1353V85.4103H120.306V90.6947H126.788V85.4103H127.976V97.1353H126.788V91.8427H120.306V97.1353H119.109ZM134.833 97.3795C133.938 97.3795 133.145 97.195 132.456 96.8258C131.772 96.4567 131.234 95.9356 130.844 95.2625C130.453 94.5894 130.257 93.8023 130.257 92.9012V85.4184L131.462 85.4103V92.7465C131.462 93.3545 131.566 93.881 131.772 94.3261C131.978 94.7658 132.247 95.1295 132.578 95.4172C132.914 95.6995 133.281 95.9085 133.677 96.0442C134.073 96.1799 134.459 96.2477 134.833 96.2477C135.213 96.2477 135.601 96.1799 135.998 96.0442C136.394 95.9085 136.758 95.6995 137.089 95.4172C137.42 95.1295 137.689 94.7658 137.895 94.3261C138.101 93.881 138.204 93.3545 138.204 92.7465V85.4103H139.409V92.9012C139.409 93.8023 139.214 94.5894 138.823 95.2625C138.432 95.9302 137.892 96.4513 137.203 96.8258C136.519 97.195 135.729 97.3795 134.833 97.3795ZM145.27 97.3795C144.45 97.3795 143.712 97.2438 143.055 96.9724C142.404 96.6956 141.864 96.3047 141.435 95.7999C141.011 95.2951 140.734 94.6953 140.604 94.0005L141.826 93.7969C142.021 94.5568 142.434 95.154 143.063 95.5882C143.693 96.017 144.445 96.2315 145.319 96.2315C145.894 96.2315 146.41 96.1419 146.866 95.9628C147.322 95.7782 147.68 95.5176 147.94 95.1811C148.201 94.8445 148.331 94.4456 148.331 93.9842C148.331 93.6802 148.277 93.4223 148.168 93.2106C148.06 92.9935 147.916 92.8144 147.737 92.6733C147.558 92.5321 147.362 92.4154 147.151 92.3231C146.939 92.2254 146.733 92.1467 146.532 92.087L143.56 91.1995C143.202 91.0964 142.87 90.9661 142.567 90.8087C142.263 90.6458 141.997 90.4531 141.769 90.2306C141.546 90.0026 141.372 89.7366 141.247 89.4326C141.123 89.1286 141.06 88.7812 141.06 88.3904C141.06 87.7281 141.234 87.1555 141.581 86.6724C141.929 86.1892 142.404 85.8174 143.006 85.5569C143.609 85.2963 144.295 85.1687 145.066 85.1742C145.848 85.1742 146.545 85.3126 147.159 85.5894C147.778 85.8663 148.288 86.2625 148.69 86.7782C149.091 87.2885 149.357 87.8937 149.487 88.5939L148.234 88.8219C148.152 88.3117 147.965 87.8693 147.672 87.4947C147.379 87.1202 147.004 86.8325 146.548 86.6316C146.098 86.4254 145.601 86.3195 145.058 86.3141C144.532 86.3141 144.062 86.4037 143.649 86.5828C143.242 86.7565 142.919 86.9953 142.681 87.2993C142.442 87.6033 142.322 87.9507 142.322 88.3415C142.322 88.7378 142.431 89.0553 142.648 89.2942C142.87 89.533 143.142 89.7203 143.462 89.856C143.788 89.9917 144.103 90.103 144.407 90.1898L146.703 90.8657C146.942 90.9308 147.221 91.0258 147.541 91.1506C147.867 91.2701 148.182 91.4438 148.486 91.6717C148.795 91.8943 149.051 92.1874 149.251 92.5511C149.452 92.9148 149.553 93.3762 149.553 93.9353C149.553 94.4781 149.444 94.964 149.227 95.3928C149.015 95.8216 148.714 96.1826 148.323 96.4757C147.938 96.7688 147.484 96.9914 146.963 97.1434C146.448 97.3008 145.883 97.3795 145.27 97.3795ZM151.396 97.1353V85.4103H152.593V97.1353H151.396ZM154.22 97.1353L158.259 85.4103H159.846L163.885 97.1353H162.639L158.804 86.078H159.276L155.466 97.1353H154.22ZM156.019 94.2936V93.1699H162.077V94.2936H156.019ZM169.108 97.3795C168.289 97.3795 167.55 97.2438 166.894 96.9724C166.242 96.6956 165.702 96.3047 165.273 95.7999C164.85 95.2951 164.573 94.6953 164.443 94.0005L165.664 93.7969C165.86 94.5568 166.272 95.154 166.902 95.5882C167.531 96.017 168.283 96.2315 169.157 96.2315C169.733 96.2315 170.248 96.1419 170.704 95.9628C171.16 95.7782 171.518 95.5176 171.779 95.1811C172.04 94.8445 172.17 94.4456 172.17 93.9842C172.17 93.6802 172.116 93.4223 172.007 93.2106C171.898 92.9935 171.755 92.8144 171.575 92.6733C171.396 92.5321 171.201 92.4154 170.989 92.3231C170.778 92.2254 170.571 92.1467 170.37 92.087L167.398 91.1995C167.04 91.0964 166.709 90.9661 166.405 90.8087C166.101 90.6458 165.835 90.4531 165.607 90.2306C165.385 90.0026 165.211 89.7366 165.086 89.4326C164.961 89.1286 164.899 88.7812 164.899 88.3904C164.899 87.7281 165.072 87.1555 165.42 86.6724C165.767 86.1892 166.242 85.8174 166.845 85.5569C167.447 85.2963 168.134 85.1687 168.905 85.1742C169.686 85.1742 170.384 85.3126 170.997 85.5894C171.616 85.8663 172.126 86.2625 172.528 86.7782C172.93 87.2885 173.196 87.8937 173.326 88.5939L172.072 88.8219C171.991 88.3117 171.803 87.8693 171.51 87.4947C171.217 87.1202 170.843 86.8325 170.387 86.6316C169.936 86.4254 169.439 86.3195 168.897 86.3141C168.37 86.3141 167.901 86.4037 167.488 86.5828C167.081 86.7565 166.758 86.9953 166.519 87.2993C166.28 87.6033 166.161 87.9507 166.161 88.3415C166.161 88.7378 166.269 89.0553 166.487 89.2942C166.709 89.533 166.98 89.7203 167.301 89.856C167.626 89.9917 167.941 90.103 168.245 90.1898L170.541 90.8657C170.78 90.9308 171.06 91.0258 171.38 91.1506C171.706 91.2701 172.021 91.4438 172.325 91.6717C172.634 91.8943 172.889 92.1874 173.09 92.5511C173.291 92.9148 173.391 93.3762 173.391 93.9353C173.391 94.4781 173.283 94.964 173.066 95.3928C172.854 95.8216 172.553 96.1826 172.162 96.4757C171.776 96.7688 171.323 96.9914 170.802 97.1434C170.286 97.3008 169.722 97.3795 169.108 97.3795ZM178.191 97.1353V86.5584H174.095V85.4103H183.483V86.5584H179.387V97.1353H178.191ZM184.952 97.1353V85.4103H186.149V97.1353H184.952ZM193.337 97.3795C192.169 97.3795 191.184 97.1217 190.381 96.606C189.577 96.0849 188.97 95.3657 188.557 94.4483C188.144 93.5309 187.938 92.4724 187.938 91.2728C187.938 90.0731 188.144 89.0146 188.557 88.0973C188.97 87.1799 189.577 86.4634 190.381 85.9477C191.184 85.4266 192.169 85.166 193.337 85.166C194.699 85.166 195.812 85.5161 196.675 86.2164C197.538 86.9112 198.13 87.8448 198.45 89.0173L197.229 89.3349C196.979 88.4067 196.531 87.6711 195.885 87.1283C195.239 86.5855 194.39 86.3141 193.337 86.3141C192.419 86.3141 191.656 86.5231 191.049 86.941C190.441 87.359 189.982 87.9426 189.672 88.6917C189.368 89.4353 189.211 90.2957 189.2 91.2728C189.195 92.2499 189.344 93.1102 189.648 93.8539C189.957 94.5976 190.419 95.1811 191.032 95.6045C191.651 96.0225 192.419 96.2315 193.337 96.2315C194.39 96.2315 195.239 95.96 195.885 95.4172C196.531 94.869 196.979 94.1334 197.229 93.2106L198.45 93.5282C198.13 94.7007 197.538 95.6371 196.675 96.3373C195.812 97.0321 194.699 97.3795 193.337 97.3795Z" fill="black"/>
<rect x="-4" y="193.499" width="103.141" height="27.4282" rx="13.7141" transform="rotate(-38.1124 -4 193.499)" fill="#2ED06E"/>
<path d="M19.7918 199.891L12.5551 190.666L13.4968 189.927L16.9142 194.283L17.7058 186.625L18.9102 185.68L18.1043 193.505L26.4993 194.629L25.2693 195.594L17.1152 194.539L20.7336 199.152L19.7918 199.891ZM27.5275 193.822L20.2908 184.597L21.2326 183.858L28.4693 193.084L27.5275 193.822ZM30.3899 191.577L23.1532 182.352L24.1013 181.608L35.1117 185.182L29.1816 177.623L30.1298 176.879L37.3665 186.104L36.4183 186.848L25.4029 183.267L31.3381 190.833L30.3899 191.577ZM39.1612 184.696L31.9245 175.471L34.724 173.275C34.8223 173.198 34.9905 173.069 35.2288 172.89C35.4713 172.706 35.7132 172.544 35.9545 172.403C36.732 171.952 37.5214 171.753 38.3229 171.808C39.1244 171.862 39.8989 172.124 40.6464 172.593C41.3939 173.062 42.0759 173.69 42.6924 174.475C43.3088 175.261 43.7559 176.073 44.0336 176.911C44.3113 177.748 44.3811 178.563 44.243 179.354C44.1048 180.146 43.7241 180.865 43.1007 181.513C42.9073 181.706 42.6922 181.902 42.4554 182.102C42.2154 182.297 42.0505 182.43 41.9608 182.5L39.1612 184.696ZM39.4264 183.029L41.2522 181.597C41.4273 181.46 41.6119 181.308 41.8059 181.142C42.0008 180.968 42.1592 180.81 42.281 180.666C42.7454 180.15 43.008 179.592 43.0689 178.992C43.134 178.389 43.0424 177.771 42.7941 177.138C42.5424 176.501 42.1754 175.874 41.693 175.259C41.2072 174.64 40.6847 174.132 40.1255 173.736C39.5664 173.34 38.9879 173.104 38.3901 173.028C37.7923 172.952 37.1896 173.076 36.582 173.401C36.4134 173.485 36.2211 173.605 36.0051 173.76C35.79 173.908 35.5992 174.048 35.4326 174.178L33.6068 175.611L39.4264 183.029ZM47.7698 177.943L40.5331 168.718L41.4812 167.974L52.4916 171.549L46.5615 163.989L47.5096 163.245L54.7463 172.471L53.7982 173.214L42.7828 169.634L48.7179 177.2L47.7698 177.943ZM56.541 171.063L49.3043 161.838L55.0701 157.315L55.7787 158.218L50.9547 162.002L53.4574 165.193L57.5126 162.011L58.2212 162.915L54.1659 166.096L56.7742 169.421L61.5982 165.637L62.3068 166.54L56.541 171.063ZM66.8645 163.275C66.2196 163.781 65.555 164.13 64.8707 164.322C64.1873 164.506 63.5211 164.532 62.8721 164.399C62.2274 164.263 61.6394 163.962 61.108 163.496L61.9433 162.582C62.5661 163.059 63.2593 163.275 64.0227 163.228C64.7828 163.176 65.5067 162.881 66.1943 162.342C66.647 161.986 66.9975 161.598 67.2457 161.175C67.4905 160.749 67.6116 160.323 67.6089 159.897C67.6062 159.471 67.4624 159.077 67.1776 158.714C66.99 158.475 66.7882 158.305 66.5721 158.206C66.3527 158.102 66.1289 158.05 65.9009 158.049C65.6728 158.049 65.447 158.078 65.2235 158.136C64.9966 158.19 64.7858 158.255 64.5909 158.332L61.7048 159.468C61.3592 159.608 61.0183 159.71 60.682 159.774C60.3423 159.833 60.0141 159.846 59.6973 159.811C59.3815 159.769 59.0807 159.667 58.7948 159.505C58.509 159.343 58.2454 159.108 58.0042 158.801C57.5955 158.28 57.3787 157.722 57.3538 157.127C57.329 156.533 57.4732 155.947 57.7865 155.37C58.0997 154.793 58.5613 154.269 59.1711 153.797C59.7861 153.315 60.4203 152.993 61.0738 152.833C61.7316 152.669 62.3776 152.665 63.012 152.823C63.6429 152.977 64.2258 153.289 64.7605 153.759L63.9146 154.713C63.5356 154.361 63.1152 154.129 62.6534 154.015C62.1916 153.901 61.7193 153.906 61.2366 154.03C60.7548 154.145 60.2987 154.369 59.8682 154.699C59.454 155.024 59.1398 155.385 58.9258 155.78C58.7127 156.168 58.606 156.555 58.6057 156.942C58.6054 157.329 58.7258 157.676 58.967 157.983C59.2116 158.295 59.493 158.478 59.8113 158.532C60.1338 158.582 60.4629 158.562 60.7987 158.471C61.1387 158.377 61.4551 158.27 61.7479 158.151L63.9716 157.265C64.1997 157.169 64.4783 157.071 64.8073 156.972C65.1373 156.865 65.4922 156.807 65.8721 156.799C66.2529 156.783 66.6346 156.856 67.0171 157.019C67.3996 157.181 67.7634 157.482 68.1085 157.922C68.4435 158.349 68.6579 158.798 68.7518 159.269C68.8499 159.738 68.8356 160.208 68.709 160.679C68.5867 161.148 68.3675 161.603 68.0513 162.044C67.7427 162.486 67.3471 162.896 66.8645 163.275ZM74.9475 156.934C74.3026 157.44 73.638 157.789 72.9537 157.981C72.2703 158.165 71.6042 158.191 70.9552 158.058C70.3105 157.923 69.7224 157.622 69.1911 157.155L70.0264 156.241C70.6492 156.719 71.3423 156.934 72.1058 156.887C72.8659 156.836 73.5898 156.54 74.2774 156.001C74.7301 155.646 75.0806 155.257 75.3288 154.835C75.5736 154.408 75.6947 153.982 75.692 153.556C75.6892 153.131 75.5455 152.736 75.2607 152.373C75.0731 152.134 74.8712 151.965 74.6552 151.865C74.4357 151.761 74.212 151.709 73.9839 151.709C73.7559 151.708 73.5301 151.737 73.3066 151.795C73.0797 151.849 72.8688 151.914 72.674 151.991L69.7878 153.127C69.4423 153.267 69.1014 153.369 68.765 153.433C68.4254 153.492 68.0971 153.505 67.7804 153.47C67.4646 153.428 67.1637 153.326 66.8779 153.164C66.592 153.002 66.3285 152.767 66.0873 152.46C65.6785 151.939 65.4617 151.381 65.4369 150.786C65.4121 150.192 65.5563 149.606 65.8695 149.029C66.1828 148.452 66.6443 147.928 67.2542 147.457C67.8692 146.974 68.5034 146.653 69.1569 146.492C69.8147 146.328 70.4607 146.325 71.095 146.482C71.726 146.636 72.3088 146.948 72.8435 147.419L71.9977 148.372C71.6187 148.021 71.1983 147.788 70.7365 147.674C70.2747 147.561 69.8024 147.565 69.3197 147.689C68.8379 147.805 68.3818 148.028 67.9513 148.359C67.537 148.684 67.2229 149.044 67.0089 149.439C66.7957 149.827 66.689 150.215 66.6887 150.601C66.6884 150.988 66.8089 151.335 67.0501 151.642C67.2947 151.954 67.5761 152.137 67.8944 152.191C68.2169 152.241 68.546 152.221 68.8818 152.13C69.2218 152.036 69.5382 151.929 69.8309 151.81L72.0547 150.925C72.2828 150.829 72.5614 150.731 72.8904 150.631C73.2204 150.524 73.5753 150.467 73.9552 150.458C74.336 150.442 74.7177 150.516 75.1001 150.678C75.4826 150.84 75.8464 151.141 76.1915 151.581C76.5266 152.008 76.741 152.457 76.8348 152.929C76.9329 153.397 76.9187 153.867 76.7921 154.339C76.6698 154.807 76.4505 155.262 76.1343 155.703C75.8258 156.145 75.4302 156.556 74.9475 156.934Z" fill="white"/>
<g clip-path="url(#clip1_569_3772)">
<path d="M258.977 126.104C264.437 126.91 269.816 121.105 270.992 113.138C272.168 105.171 268.695 98.0588 263.235 97.253C257.775 96.4472 252.395 102.252 251.22 110.219C250.044 118.186 253.517 125.298 258.977 126.104Z" fill="#FF9CDD"/>
<path d="M259.546 123.852C263.712 124.467 267.892 119.525 268.883 112.814C269.873 106.102 267.299 100.163 263.132 99.5484C258.966 98.9335 254.786 103.876 253.795 110.587C252.805 117.299 255.379 123.238 259.546 123.852Z" fill="white" stroke="#0C0D0D" stroke-width="0.711307" stroke-miterlimit="10"/>
<path d="M265.302 104.31C263.394 104.029 261.487 105.603 260.327 108.112L264.15 112.116L259.319 114.755C259.687 117.538 261.071 119.636 262.998 119.921C265.645 120.311 268.311 117.136 268.947 112.824C269.583 108.511 267.949 104.701 265.302 104.31Z" fill="black"/>
<path d="M247.793 124.453C253.087 125.235 258.333 119.41 259.508 111.443C260.684 103.476 257.345 96.3836 252.051 95.6023C246.757 94.8209 241.512 100.646 240.336 108.613C239.16 116.58 242.499 123.672 247.793 124.453Z" fill="#FF9CDD"/>
<path d="M248.138 122.169C252.305 122.784 256.485 117.842 257.475 111.131C258.466 104.419 255.891 98.4801 251.725 97.8653C247.559 97.2504 243.379 102.193 242.388 108.904C241.398 115.615 243.972 121.555 248.138 122.169Z" fill="white" stroke="#0C0D0D" stroke-width="0.711307" stroke-miterlimit="10"/>
<path d="M253.897 102.627C251.989 102.346 250.082 103.92 248.922 106.429L252.745 110.433L247.914 113.072C248.281 115.854 249.666 117.953 251.593 118.238C254.239 118.628 256.905 115.453 257.542 111.14C258.178 106.828 256.543 103.018 253.897 102.627Z" fill="black"/>
</g>
<path d="M194.481 64.5774C193.375 64.2046 192.524 63.6455 191.927 62.9001C191.333 62.1496 190.986 61.2739 190.889 60.2728C190.791 59.2717 190.933 58.2027 191.317 57.066C191.7 55.9292 192.234 54.9921 192.918 54.2546C193.602 53.5171 194.407 53.0324 195.333 52.8005C196.261 52.5633 197.277 52.6312 198.383 53.0041C199.674 53.4394 200.617 54.1267 201.211 55.066C201.807 56.0002 202.069 57.074 201.998 58.2873L200.739 58.198C200.799 57.2386 200.61 56.3986 200.171 55.6778C199.733 54.9571 199.014 54.4285 198.017 54.092C197.147 53.7989 196.358 53.7533 195.648 53.9551C194.938 54.1569 194.317 54.5633 193.785 55.1743C193.259 55.7818 192.835 56.5468 192.513 57.4692C192.195 58.3933 192.062 59.2563 192.112 60.0581C192.168 60.8617 192.419 61.562 192.865 62.1592C193.318 62.753 193.979 63.1964 194.848 63.4896C195.846 63.826 196.737 63.8403 197.523 63.5323C198.31 63.2191 198.97 62.6653 199.501 61.8706L200.557 62.5617C199.879 63.5704 199.019 64.2687 197.977 64.6565C196.938 65.0391 195.772 65.0128 194.481 64.5774ZM201.107 66.5537L204.853 55.4433L209.143 56.8898C209.251 56.9262 209.37 56.9721 209.5 57.0275C209.637 57.0794 209.771 57.1417 209.901 57.2142C210.453 57.4977 210.876 57.8665 211.169 58.3207C211.47 58.7714 211.643 59.2707 211.687 59.8184C211.737 60.3679 211.663 60.9333 211.467 61.5145C211.185 62.3529 210.718 63.0062 210.068 63.4743C209.417 63.9424 208.654 64.1174 207.777 63.9994L207.352 63.9593L203.664 62.7157L202.241 66.9361L201.107 66.5537ZM207.835 68.8222L207.168 63.5621L208.396 63.5123L209.139 69.2619L207.835 68.8222ZM204.028 61.6356L207.153 62.6892C207.246 62.7204 207.355 62.7517 207.482 62.783C207.609 62.8143 207.736 62.8371 207.863 62.8513C208.272 62.8973 208.636 62.8454 208.955 62.6954C209.28 62.5472 209.556 62.3336 209.782 62.0545C210.013 61.7773 210.186 61.4663 210.302 61.1217C210.419 60.777 210.469 60.4245 210.453 60.0639C210.444 59.7 210.355 59.3607 210.186 59.0459C210.022 58.733 209.764 58.4712 209.411 58.2605C209.301 58.1949 209.186 58.1387 209.064 58.0919C208.944 58.04 208.838 57.9985 208.745 57.9673L205.62 56.9136L204.028 61.6356ZM210.842 69.8361L214.588 58.7257L221.532 61.0671L221.165 62.155L215.355 60.196L214.06 64.0384L218.944 65.6851L218.577 66.773L213.693 65.1263L212.343 69.1306L218.153 71.0896L217.786 72.1775L210.842 69.8361ZM218.871 72.5433L226.444 62.7233L227.948 63.2305L228.029 75.6313L226.849 75.2333L226.747 63.5302L227.195 63.6811L220.051 72.9413L218.871 72.5433ZM221.484 70.4255L221.843 69.3608L227.583 71.2963L227.224 72.361L221.484 70.4255ZM231.458 76.7875L234.838 66.765L230.957 65.4564L231.323 64.3685L240.219 67.3681L239.853 68.456L235.972 67.1474L232.592 77.1699L231.458 76.7875ZM237.865 78.9477L241.611 67.8373L242.745 68.2197L238.999 79.3301L237.865 78.9477ZM241.312 80.11L245.058 68.9996L246.2 69.3847L249.249 80.552L252.319 71.4477L253.461 71.8327L249.714 82.9431L248.572 82.5581L245.526 71.383L242.454 80.4951L241.312 80.11ZM256.25 85.4044C255.468 85.1408 254.809 84.7669 254.273 84.2827C253.738 83.7985 253.334 83.2298 253.061 82.5765C252.794 81.925 252.664 81.2053 252.672 80.4174C252.682 79.6244 252.835 78.7881 253.132 77.9086C253.524 76.7461 254.066 75.8004 254.758 75.0715C255.458 74.3393 256.266 73.8614 257.184 73.638C258.101 73.4146 259.09 73.4815 260.149 73.8388C261.332 74.2377 262.201 74.8398 262.754 75.645C263.314 76.4469 263.584 77.3628 263.563 78.3926L262.328 78.2854C262.315 77.5249 262.099 76.8478 261.681 76.2542C261.267 75.6622 260.649 75.2275 259.826 74.95C258.959 74.6518 258.17 74.6036 257.46 74.8054C256.752 75.0021 256.132 75.4059 255.6 76.0168C255.074 76.6244 254.653 77.3903 254.335 78.3144C254.018 79.2385 253.885 80.1015 253.935 80.9033C253.992 81.7017 254.244 82.3995 254.69 82.9967C255.138 83.5887 255.795 84.0339 256.663 84.3321C257.46 84.601 258.17 84.6686 258.794 84.5352C259.418 84.4017 259.96 84.0921 260.422 83.6061C260.889 83.122 261.273 82.4925 261.574 81.7176L259.013 80.8539L259.341 79.8818L263.09 81.1461C263.066 81.2696 263.031 81.3982 262.986 81.532C262.948 81.6623 262.919 81.7557 262.9 81.8123C262.562 82.8153 262.079 83.6522 261.452 84.3229C260.827 84.9885 260.074 85.4279 259.194 85.6412C258.322 85.851 257.34 85.7721 256.25 85.4044ZM268.8 89.3784L272.18 79.3559L268.299 78.0474L268.665 76.9595L277.562 79.959L277.195 81.0469L273.314 79.7383L269.934 89.7608L268.8 89.3784ZM279.473 93.2347C278.367 92.8618 277.516 92.3027 276.919 91.5574C276.324 90.8069 275.978 89.9311 275.88 88.93C275.782 87.9289 275.925 86.86 276.308 85.7233C276.692 84.5865 277.225 83.6494 277.909 82.9119C278.593 82.1744 279.398 81.6897 280.324 81.4577C281.252 81.2206 282.269 81.2885 283.375 81.6614C284.486 82.036 285.336 82.5977 285.926 83.3464C286.522 84.0918 286.87 84.965 286.967 85.9661C287.07 86.9689 286.93 88.0387 286.547 89.1755C286.164 90.3122 285.627 91.2485 284.938 91.9842C284.254 92.7217 283.448 93.209 282.521 93.4461C281.6 93.6798 280.584 93.6093 279.473 93.2347ZM279.84 92.1468C280.709 92.4399 281.501 92.4864 282.216 92.2864C282.93 92.0863 283.551 91.6825 284.076 91.0749C284.609 90.4639 285.031 89.6955 285.343 88.7696C285.656 87.8438 285.784 86.9791 285.728 86.1755C285.678 85.3737 285.429 84.6768 284.981 84.0847C284.533 83.4927 283.876 83.0475 283.008 82.7493C282.139 82.4562 281.349 82.4105 280.64 82.6124C279.93 82.8142 279.309 83.2206 278.777 83.8315C278.251 84.4391 277.829 85.205 277.512 86.1291C277.195 87.0532 277.061 87.9162 277.112 88.718C277.169 89.5164 277.421 90.2142 277.867 90.8114C278.314 91.4034 278.972 91.8486 279.84 92.1468ZM290.593 96.9842C289.811 96.7206 289.152 96.3467 288.617 95.8625C288.081 95.3782 287.677 94.8095 287.405 94.1563C287.137 93.5048 287.008 92.7851 287.016 91.9972C287.025 91.2042 287.178 90.3679 287.475 89.4883C287.867 88.3259 288.409 87.3802 289.102 86.6513C289.801 85.919 290.61 85.4412 291.527 85.2178C292.444 84.9944 293.433 85.0613 294.493 85.4186C295.676 85.8175 296.544 86.4196 297.097 87.2248C297.657 88.0267 297.927 88.9425 297.907 89.9724L296.671 89.8651C296.658 89.1047 296.442 88.4276 296.024 87.8339C295.611 87.242 294.992 86.8073 294.169 86.5298C293.302 86.2315 292.513 86.1833 291.804 86.3852C291.096 86.5818 290.476 86.9857 289.943 87.5966C289.417 88.2042 288.996 88.97 288.679 89.8942C288.361 90.8183 288.228 91.6813 288.278 92.4831C288.336 93.2815 288.587 93.9793 289.033 94.5765C289.481 95.1685 290.138 95.6137 291.006 95.9119C291.803 96.1807 292.514 96.2484 293.137 96.115C293.761 95.9815 294.303 95.6718 294.765 95.1859C295.232 94.7017 295.616 94.0722 295.918 93.2974L293.356 92.4337L293.684 91.4615L297.434 92.7259C297.409 92.8494 297.374 92.978 297.329 93.1117C297.291 93.2421 297.262 93.3355 297.243 93.3921C296.905 94.3951 296.422 95.232 295.795 95.9027C295.17 96.5683 294.417 97.0077 293.538 97.221C292.665 97.4308 291.683 97.3519 290.593 96.9842ZM297.099 98.9202L300.845 87.8098L307.789 90.1512L307.423 91.239L301.613 89.2801L300.317 93.1225L305.201 94.7692L304.834 95.8571L299.95 94.2104L298.6 98.2147L304.41 100.174L304.043 101.262L297.099 98.9202ZM308.855 102.884L312.234 92.8614L308.353 91.5529L308.72 90.465L317.616 93.4645L317.249 94.5524L313.368 93.2438L309.989 103.266L308.855 102.884ZM315.107 104.992L318.853 93.8817L319.988 94.2641L318.299 99.2715L324.441 101.342L326.129 96.3349L327.256 96.7147L323.509 107.825L322.383 107.445L324.074 102.43L317.932 100.359L316.241 105.375L315.107 104.992ZM325.671 108.554L329.417 97.4435L336.361 99.7849L335.994 100.873L330.184 98.9138L328.889 102.756L333.773 104.403L333.406 105.491L328.522 103.844L327.172 107.848L332.982 109.807L332.615 110.895L325.671 108.554ZM334.471 111.521L338.218 100.411L342.507 101.857C342.615 101.894 342.735 101.94 342.865 101.995C343.002 102.047 343.136 102.109 343.266 102.182C343.818 102.465 344.24 102.834 344.534 103.288C344.835 103.739 345.007 104.238 345.052 104.786C345.101 105.335 345.028 105.901 344.832 106.482C344.549 107.32 344.083 107.974 343.432 108.442C342.782 108.91 342.018 109.085 341.141 108.967L340.717 108.927L337.029 107.683L335.606 111.904L334.471 111.521ZM341.199 113.79L340.533 108.53L341.761 108.48L342.503 114.229L341.199 113.79ZM337.393 106.603L340.518 107.657C340.61 107.688 340.72 107.719 340.847 107.751C340.974 107.782 341.101 107.805 341.228 107.819C341.636 107.865 342 107.813 342.32 107.663C342.645 107.515 342.92 107.301 343.146 107.022C343.377 106.745 343.551 106.434 343.667 106.089C343.783 105.745 343.833 105.392 343.817 105.031C343.808 104.668 343.719 104.328 343.551 104.013C343.387 103.701 343.129 103.439 342.776 103.228C342.666 103.162 342.55 103.106 342.429 103.059C342.309 103.008 342.202 102.966 342.11 102.935L338.985 101.881L337.393 106.603Z" fill="black"/>
<path d="M230.229 52.7436L233.975 41.6332L235.109 42.0156L231.73 52.0381L237.007 53.8175L236.641 54.9054L230.229 52.7436ZM237.956 55.3489L241.702 44.2385L248.646 46.5799L248.279 47.6678L242.469 45.7088L241.174 49.5512L246.058 51.1979L245.691 52.2858L240.807 50.6391L239.457 54.6435L245.267 56.6024L244.9 57.6903L237.956 55.3489ZM249.711 59.3127L253.091 49.2902L249.21 47.9816L249.577 46.8937L258.473 49.8932L258.106 50.9811L254.225 49.6726L250.846 59.6951L249.711 59.3127ZM258.619 53.036L259.556 50.2584L260.69 50.6408L259.753 53.4184L258.619 53.036ZM262.742 63.9642C261.966 63.7023 261.31 63.3378 260.774 62.8708C260.245 62.4003 259.858 61.8574 259.613 61.242C259.373 60.6284 259.302 59.9716 259.401 59.2716L260.623 59.4689C260.566 60.2514 260.766 60.9491 261.224 61.5617C261.683 62.1693 262.327 62.6127 263.156 62.8919C263.701 63.0757 264.218 63.1556 264.707 63.1316C265.198 63.1024 265.621 62.9699 265.976 62.7343C266.33 62.4986 266.581 62.1622 266.728 61.725C266.825 61.4369 266.856 61.1752 266.821 60.9399C266.788 60.6995 266.709 60.4838 266.584 60.2928C266.459 60.1019 266.311 59.9288 266.14 59.7738C265.971 59.6135 265.801 59.4731 265.629 59.3523L263.097 57.5618C262.79 57.3496 262.518 57.1203 262.28 56.874C262.044 56.6226 261.854 56.355 261.709 56.0713C261.571 55.7841 261.491 55.4766 261.47 55.1486C261.449 54.8207 261.501 54.4716 261.626 54.1012C261.837 53.4737 262.185 52.9865 262.668 52.6397C263.152 52.2929 263.721 52.0924 264.375 52.038C265.029 51.9836 265.721 52.0821 266.449 52.3335C267.19 52.5833 267.807 52.9373 268.299 53.3956C268.797 53.8556 269.154 54.3942 269.37 55.0112C269.588 55.623 269.646 56.2815 269.546 56.9867L268.285 56.8021C268.371 56.2926 268.335 55.8135 268.177 55.3649C268.019 54.9164 267.756 54.5241 267.388 54.1881C267.027 53.8487 266.59 53.5897 266.077 53.4111C265.578 53.2429 265.105 53.1777 264.657 53.2156C264.215 53.2502 263.833 53.3733 263.51 53.585C263.186 53.7968 262.962 54.0878 262.837 54.4582C262.71 54.8337 262.712 55.1692 262.841 55.4649C262.976 55.7624 263.173 56.0265 263.433 56.2575C263.699 56.4901 263.961 56.6962 264.222 56.8756L266.182 58.2496C266.387 58.3876 266.622 58.567 266.885 58.7876C267.156 59.0048 267.399 59.27 267.614 59.5832C267.836 59.8929 267.984 60.2522 268.058 60.661C268.132 61.0698 268.08 61.5391 267.901 62.0689C267.728 62.5833 267.47 63.0089 267.127 63.3459C266.789 63.6846 266.389 63.9304 265.925 64.0833C265.466 64.2379 264.965 64.304 264.423 64.2815C263.884 64.2659 263.324 64.1602 262.742 63.9642ZM275.34 68.212C274.564 67.9501 273.908 67.5856 273.372 67.1186C272.843 66.6481 272.456 66.1052 272.211 65.4898C271.971 64.8762 271.901 64.2194 271.999 63.5193L273.221 63.7167C273.164 64.4992 273.364 65.1968 273.822 65.8095C274.282 66.4171 274.925 66.8604 275.754 67.1397C276.299 67.3235 276.816 67.4034 277.305 67.3793C277.796 67.3501 278.219 67.2177 278.574 66.9821C278.928 66.7464 279.179 66.41 279.326 65.9727C279.423 65.6847 279.454 65.423 279.419 65.1877C279.386 64.9473 279.307 64.7316 279.182 64.5406C279.057 64.3497 278.909 64.1766 278.738 64.0215C278.569 63.8613 278.399 63.7208 278.227 63.6001L275.695 61.8095C275.388 61.5973 275.116 61.3681 274.878 61.1218C274.642 60.8704 274.452 60.6028 274.307 60.319C274.169 60.0319 274.089 59.7244 274.068 59.3964C274.047 59.0685 274.099 58.7193 274.224 58.349C274.435 57.7215 274.783 57.2343 275.266 56.8875C275.75 56.5407 276.319 56.3401 276.973 56.2858C277.627 56.2314 278.319 56.3299 279.047 56.5813C279.788 56.831 280.405 57.1851 280.897 57.6434C281.395 58.1034 281.752 58.6419 281.968 59.2589C282.186 59.8708 282.244 60.5293 282.144 61.2345L280.883 61.0499C280.969 60.5403 280.933 60.0613 280.775 59.6127C280.617 59.1641 280.354 58.7719 279.986 58.4359C279.625 58.0965 279.188 57.8375 278.675 57.6589C278.176 57.4906 277.703 57.4255 277.255 57.4634C276.813 57.498 276.431 57.6211 276.108 57.8328C275.784 58.0446 275.56 58.3356 275.435 58.7059C275.309 59.0814 275.31 59.417 275.439 59.7127C275.574 60.0102 275.771 60.2743 276.031 60.5052C276.297 60.7379 276.559 60.9439 276.82 61.1234L278.78 62.4974C278.985 62.6354 279.22 62.8147 279.483 63.0354C279.754 63.2526 279.997 63.5178 280.212 63.831C280.434 64.1407 280.582 64.5 280.656 64.9088C280.73 65.3176 280.678 65.7869 280.499 66.3167C280.326 66.831 280.068 67.2567 279.725 67.5937C279.387 67.9324 278.987 68.1782 278.523 68.3311C278.064 68.4857 277.563 68.5518 277.021 68.5293C276.482 68.5137 275.922 68.4079 275.34 68.212ZM284.025 70.8823L287.404 60.8598L283.523 59.5512L283.89 58.4633L292.786 61.4629L292.419 62.5508L288.538 61.2422L285.159 71.2647L284.025 70.8823ZM289.204 72.6287L296.777 62.8086L298.282 63.3159L298.362 75.7167L297.182 75.3186L297.081 63.6156L297.528 63.7665L290.385 73.0267L289.204 72.6287ZM291.817 70.5109L292.176 69.4461L297.916 71.3816L297.557 72.4464L291.817 70.5109ZM299.756 76.1864L303.502 65.076L307.792 66.5225C307.9 66.5589 308.019 66.6048 308.149 66.6602C308.286 66.7121 308.42 66.7744 308.55 66.847C309.102 67.1304 309.525 67.4992 309.818 67.9534C310.119 68.4041 310.291 68.9034 310.336 69.4511C310.385 70.0006 310.312 70.566 310.116 71.1472C309.834 71.9856 309.367 72.6389 308.716 73.107C308.066 73.5751 307.302 73.7501 306.426 73.6321L306.001 73.592L302.313 72.3484L300.89 76.5689L299.756 76.1864ZM306.484 78.455L305.817 73.1948L307.045 73.145L307.788 78.8946L306.484 78.455ZM302.677 71.2683L305.802 72.3219C305.894 72.3531 306.004 72.3844 306.131 72.4157C306.258 72.447 306.385 72.4698 306.512 72.484C306.92 72.53 307.284 72.4781 307.604 72.3281C307.929 72.1799 308.205 71.9663 308.43 71.6873C308.661 71.41 308.835 71.099 308.951 70.7544C309.067 70.4098 309.118 70.0572 309.102 69.6966C309.093 69.3327 309.004 68.9934 308.835 68.6787C308.671 68.3657 308.413 68.1039 308.06 67.8932C307.95 67.8276 307.835 67.7714 307.713 67.7247C307.593 67.6727 307.487 67.6312 307.394 67.6L304.269 66.5463L302.677 71.2683ZM312.446 80.4652L315.825 70.4427L311.944 69.1341L312.311 68.0462L321.207 71.0458L320.84 72.1337L316.959 70.8251L313.58 80.8476L312.446 80.4652Z" fill="black"/>
<path d="M218.021 41.6409L216.982 44.7218C215.823 48.1598 212.096 50.0072 208.658 48.8479L195.03 44.2528C187.888 41.8445 180.145 45.6824 177.737 52.8249C175.329 59.9673 179.166 67.7098 186.309 70.1181L340.473 122.099C347.616 124.507 355.358 120.669 357.766 113.527C360.175 106.384 356.337 98.6419 349.194 96.2336L335.647 91.6658C332.22 90.5101 330.378 86.7946 331.534 83.367L332.579 80.2672C334.89 73.4145 331.207 65.9861 324.355 63.6755L234.613 33.4166C227.76 31.106 220.332 34.7882 218.021 41.6409Z" stroke="black"/>
<rect x="109.661" y="59.2866" width="96.1411" height="27.4282" rx="13.7141" transform="rotate(-32.9463 109.661 59.2866)" fill="#2ED06E"/>
<path d="M133.113 67.5802L126.737 57.7409L130.536 55.2788C130.631 55.2168 130.741 55.152 130.866 55.0843C130.992 55.0092 131.123 54.9431 131.261 54.8862C131.826 54.63 132.378 54.528 132.916 54.5802C133.456 54.6248 133.954 54.7999 134.411 55.1055C134.872 55.4081 135.27 55.8168 135.604 56.3315C135.934 56.8417 136.143 57.3691 136.231 57.9138C136.319 58.4585 136.274 58.9886 136.098 59.5043C135.922 60.0124 135.605 60.4705 135.145 60.8786C135.034 60.9766 134.919 61.0699 134.802 61.1587C134.69 61.2446 134.586 61.3185 134.49 61.3805L131.695 63.1917L134.118 66.9293L133.113 67.5802ZM131.075 62.2351L133.843 60.4416C133.925 60.3885 134.017 60.322 134.121 60.242C134.224 60.162 134.321 60.0767 134.411 59.986C134.701 59.6947 134.886 59.3772 134.968 59.0334C135.054 58.6867 135.057 58.3382 134.979 57.9879C134.905 57.6346 134.77 57.3054 134.572 57.0002C134.374 56.695 134.129 56.4366 133.837 56.225C133.546 56.0059 133.225 55.8647 132.873 55.8015C132.526 55.7352 132.161 55.7749 131.776 55.9205C131.657 55.9656 131.541 56.0213 131.429 56.0876C131.313 56.1493 131.215 56.2068 131.133 56.2599L128.365 58.0534L131.075 62.2351ZM145.477 59.8585C144.498 60.4932 143.531 60.8127 142.576 60.8169C141.619 60.8165 140.717 60.5435 139.872 59.9981C139.027 59.4526 138.278 58.6765 137.626 57.6698C136.973 56.6631 136.571 55.6626 136.418 54.6684C136.265 53.6742 136.386 52.7423 136.78 51.8726C137.17 50.9984 137.855 50.2439 138.835 49.6092C139.819 48.9715 140.787 48.6544 141.74 48.6577C142.695 48.6535 143.595 48.9242 144.44 49.4697C145.29 50.0122 146.041 50.7868 146.693 51.7935C147.345 52.8002 147.746 53.8022 147.894 54.7993C148.047 55.7935 147.928 56.7277 147.537 57.602C147.148 58.4687 146.461 59.2209 145.477 59.8585ZM144.853 58.8951C145.623 58.3962 146.151 57.8046 146.439 57.1202C146.726 56.4359 146.795 55.699 146.646 54.9096C146.498 54.1127 146.158 53.3043 145.627 52.4843C145.096 51.6644 144.498 51.0265 143.834 50.5707C143.174 50.112 142.474 49.874 141.731 49.8568C140.989 49.8397 140.232 50.0783 139.459 50.5726C138.689 51.0716 138.163 51.6617 137.88 52.3431C137.597 53.0245 137.53 53.7636 137.677 54.5605C137.827 55.3499 138.165 56.1561 138.692 56.979C139.219 57.8019 139.812 58.4427 140.471 58.9015C141.132 59.3527 141.835 59.5892 142.58 59.6109C143.323 59.6281 144.08 59.3895 144.853 58.8951ZM154.799 53.8172C154.111 54.263 153.418 54.5506 152.719 54.6801C152.022 54.802 151.356 54.7678 150.722 54.5774C150.092 54.384 149.533 54.0312 149.046 53.519L149.96 52.6839C150.538 53.2154 151.209 53.4921 151.973 53.5141C152.735 53.5315 153.482 53.3025 154.216 52.8272C154.698 52.5143 155.083 52.1587 155.368 51.7604C155.65 51.3575 155.809 50.944 155.845 50.5199C155.88 50.0958 155.773 49.6901 155.522 49.3029C155.356 49.0478 155.171 48.861 154.964 48.7424C154.755 48.6192 154.537 48.5471 154.31 48.5261C154.083 48.5051 153.855 48.5134 153.627 48.5511C153.397 48.5842 153.181 48.6304 152.98 48.6895L150.003 49.561C149.646 49.6693 149.298 49.7401 148.957 49.7733C148.613 49.8019 148.285 49.7849 147.973 49.7221C147.662 49.6518 147.372 49.5231 147.102 49.3359C146.832 49.1487 146.59 48.8911 146.378 48.5631C146.017 48.0074 145.852 47.4323 145.881 46.838C145.909 46.2436 146.106 45.6733 146.47 45.1269C146.834 44.5806 147.34 44.1001 147.99 43.6855C148.646 43.2603 149.307 42.9971 149.972 42.8959C150.642 42.7916 151.286 42.8467 151.903 43.061C152.518 43.2707 153.07 43.634 153.56 44.1507L152.632 45.024C152.286 44.6401 151.889 44.3707 151.439 44.2158C150.989 44.0609 150.518 44.0232 150.027 44.1026C149.536 44.1745 149.062 44.3558 148.603 44.6465C148.162 44.9328 147.816 45.2634 147.567 45.6381C147.32 46.0052 147.179 46.3813 147.144 46.7663C147.109 47.1513 147.198 47.5078 147.41 47.8358C147.626 48.1683 147.889 48.3757 148.202 48.4581C148.518 48.5375 148.848 48.547 149.19 48.4867C149.538 48.4235 149.862 48.3456 150.165 48.2532L152.459 47.5716C152.695 47.4963 152.981 47.424 153.318 47.3546C153.656 47.2777 154.015 47.2522 154.394 47.2782C154.775 47.2967 155.148 47.404 155.514 47.5999C155.881 47.7959 156.216 48.1285 156.52 48.5977C156.815 49.0532 156.988 49.5199 157.039 49.9979C157.095 50.4729 157.038 50.9397 156.87 51.3982C156.706 51.8538 156.446 52.2871 156.092 52.698C155.745 53.1106 155.314 53.4837 154.799 53.8172ZM159.807 50.2804L153.431 40.441L154.435 39.79L160.812 49.6294L159.807 50.2804ZM165.477 46.6058L159.725 37.7299L156.288 39.9573L155.664 38.9939L163.542 33.8881L164.166 34.8515L160.729 37.0789L166.482 45.9549L165.477 46.6058ZM171.151 42.9288L164.774 33.0894L165.779 32.4385L172.155 42.2778L171.151 42.9288ZM176.705 39.3295L166.939 31.6866L167.984 31.0091L176.621 37.7633L174.004 27.1078L175.05 26.4303L178.037 38.466L176.705 39.3295ZM182.451 35.6053L176.075 25.7659L182.224 21.7805L182.849 22.7439L177.704 26.0784L179.909 29.4812L184.234 26.6781L184.858 27.6415L180.533 30.4446L182.832 33.9909L187.977 30.6564L188.601 31.6198L182.451 35.6053Z" fill="white"/>
</g>
<defs>
<clipPath id="clip0_569_3772">
<rect width="360" height="270" fill="white"/>
</clipPath>
<clipPath id="clip1_569_3772">
<rect width="30.9873" height="29.1636" fill="white" transform="translate(242.465 94.1875) rotate(8.39531)"/>
</clipPath>
</defs>
</svg>
