<svg width="14" height="14" viewBox="0 0 14 14" fill="none" xmlns="http://www.w3.org/2000/svg">
<path d="M12.4959 7.83846C12.0957 7.43819 11.3724 7.08175 10.573 6.89834C11.3712 6.71608 12.0945 6.35965 12.4959 5.95822C13.4441 5.01234 13.3184 3.35012 11.918 1.94975C10.5615 0.593209 8.85542 0.423642 7.90838 1.37068C7.50811 1.77095 7.15167 2.49421 6.96826 3.29359C6.78601 2.49536 6.42841 1.77095 6.02814 1.37068C5.08111 0.423642 3.42004 0.548222 2.01851 1.94975C0.663129 3.30513 0.492408 5.01234 1.43945 5.95937C1.83972 6.35965 2.56297 6.71608 3.36236 6.89949C2.56413 7.08175 1.84087 7.43818 1.43945 7.83961C0.492409 8.78665 0.618142 10.4489 2.01851 11.8492C3.37505 13.2058 5.08111 13.3753 6.02814 12.4283C6.42842 12.028 6.78485 11.3048 6.96826 10.5054C7.15052 11.3036 7.50811 12.028 7.90838 12.4283C8.85542 13.3753 10.5176 13.2496 11.918 11.8492C13.2734 10.4915 13.4441 8.78665 12.4959 7.83846Z" fill="white"/>
</svg>
