<svg width="96" height="93" viewBox="0 0 96 93" fill="none" xmlns="http://www.w3.org/2000/svg">
<g clip-path="url(#clip0_558_3699)">
<path d="M47.9643 92.0929C46.6182 92.0929 45.2721 91.7386 44.0677 91.0301C1.84184 67.6501 -0.0710799 38.5313 -0.000231186 32.3674C-0.000231186 32.2966 -0.000231186 32.2257 -0.000231186 32.1549C-0.000231186 14.7969 12.7525 1.19399 29.1186 1.05229C34.0071 0.768896 41.3046 1.97332 47.6101 6.64934C52.2861 3.2486 58.45 1.05229 66.5976 1.05229C83.1053 1.05229 95.9998 14.7261 95.9998 32.1549C95.9998 32.2257 95.9998 32.2966 95.9998 32.3674C96.0706 38.5313 94.1577 67.6501 51.861 91.0301C50.94 91.5261 49.9481 91.8803 48.9562 92.022C48.602 92.022 48.3186 92.0929 47.9643 92.0929ZM15.0197 32.084C15.0197 32.1549 15.0197 32.2966 15.0197 32.3674C15.0197 32.4383 15.0197 32.5091 15.0197 32.58C14.9488 35.0597 15.3739 56.5268 47.9643 75.9394C80.5548 56.5977 80.9798 35.0597 80.909 32.58C80.909 32.5091 80.909 32.3674 80.909 32.2966V32.084C80.909 21.6693 73.4699 16.0722 66.5267 16.0722C62.3466 16.0722 59.2293 17.0641 56.8913 18.5519C58.1666 21.5984 59.1584 25.07 59.6544 29.1792C59.6544 29.3918 59.7252 29.6752 59.7252 29.8877C59.7961 31.9423 59.7252 38.8855 55.5452 43.2073C53.4905 45.4036 50.7274 46.608 47.681 46.6789C44.4928 46.6789 41.4463 45.4744 39.25 43.2073C34.9282 38.7438 34.9282 31.5881 34.999 29.5335C34.999 29.4626 34.999 29.4626 34.999 29.3918C35.2116 26.3453 36.0618 22.3778 37.9038 18.4102C37.5496 18.1977 37.1953 17.9851 36.8411 17.7726C33.5112 16.0722 30.1813 16.1431 29.8271 16.1431C29.6145 16.1431 29.5437 16.1431 29.3311 16.1431C22.4588 16.0722 15.0905 21.6693 15.0197 32.084Z" fill="#2ED06E"/>
<path d="M62.7011 12.2465C62.276 12.3173 61.8509 12.2465 61.4967 12.1048C61.1424 11.9631 60.7882 11.8214 60.5048 11.538C60.2214 11.2546 60.0088 10.9712 59.7963 10.5461C59.5837 10.121 59.5129 9.76677 59.5129 9.27083C59.442 8.56235 59.5129 7.99556 59.7254 7.49961C59.938 7.00367 60.2214 6.57858 60.6465 6.29519C61.0716 6.01179 61.5675 5.79925 62.1343 5.7284C62.8428 5.65755 63.4096 5.79925 63.9055 6.08264C64.4015 6.36604 64.6848 6.79113 64.9682 7.35792L64.1889 7.57046C64.0472 7.21622 63.7638 6.93283 63.4804 6.72028C63.1262 6.50773 62.7719 6.43688 62.3468 6.50773C61.8509 6.57858 61.4967 6.72028 61.2133 6.93282C60.9299 7.14537 60.7173 7.49962 60.5756 7.92471C60.4339 8.3498 60.4339 8.77489 60.4339 9.27083C60.5048 9.76677 60.5756 10.1919 60.7882 10.5461C61.0007 10.9004 61.2841 11.1837 61.5675 11.3963C61.9218 11.6088 62.276 11.6797 62.7719 11.6088C63.197 11.538 63.5513 11.4671 63.7638 11.2546C64.0472 11.0421 64.1889 10.8295 64.3306 10.4753C64.4723 10.1919 64.5432 9.76677 64.4723 9.34168L63.1262 9.48338L63.0553 8.84574L65.2516 8.63319C65.2516 8.70404 65.2516 8.77489 65.2516 8.84574C65.2516 8.91659 65.2516 8.98744 65.2516 8.98744C65.3225 9.55423 65.2516 10.121 65.0391 10.5461C64.8974 11.0421 64.614 11.3963 64.1889 11.6797C63.8347 12.0339 63.3387 12.1756 62.7011 12.2465Z" fill="#FFFCF3"/>
<path d="M68.7239 12.3173C68.0863 12.2465 67.5904 12.0339 67.1653 11.6797C66.7402 11.3254 66.4568 10.9003 66.3151 10.4044C66.1734 9.90847 66.1025 9.27083 66.2442 8.63319C66.3859 7.99555 66.5276 7.42876 66.811 7.00367C67.0944 6.57858 67.5195 6.22433 67.9446 6.01179C68.3697 5.79924 69.0073 5.72839 69.5741 5.79924C70.2118 5.87009 70.7077 6.08264 71.1328 6.43688C71.5579 6.79112 71.8413 7.21622 71.983 7.71216C72.1247 8.2081 72.1955 8.84574 72.0538 9.48338C71.983 10.121 71.7704 10.6878 71.487 11.1129C71.2036 11.538 70.7785 11.8922 70.3535 12.1048C69.9284 12.3173 69.3616 12.459 68.7239 12.3173ZM68.7948 11.6088C69.2907 11.6797 69.645 11.6088 69.9992 11.4671C70.3535 11.3254 70.6368 11.042 70.8494 10.6878C71.0619 10.3336 71.2036 9.90847 71.2745 9.41253C71.3453 8.91659 71.3453 8.49149 71.2036 8.0664C71.0619 7.64131 70.9202 7.35791 70.6368 7.07452C70.3535 6.79112 69.9992 6.64943 69.5033 6.57858C69.0073 6.50773 68.6531 6.57858 68.2988 6.72028C67.9446 6.86197 67.6612 7.14537 67.4487 7.49961C67.2361 7.85386 67.0944 8.27895 67.0236 8.77489C66.9527 9.27083 66.9527 9.69592 67.0944 10.121C67.1653 10.5461 67.3778 10.8295 67.6612 11.1129C67.9446 11.3963 68.2988 11.538 68.7948 11.6088Z" fill="#FFFCF3"/>
<path d="M74.3908 14.0886C73.824 13.8052 73.3989 13.4509 73.1155 13.0258C72.8321 12.6007 72.6904 12.1048 72.6904 11.538C72.6904 10.9712 72.8321 10.4044 73.1155 9.83763C73.3989 9.27084 73.7532 8.7749 74.1783 8.42066C74.6033 8.06641 75.0993 7.85387 75.5952 7.85387C76.0912 7.85387 76.658 7.92472 77.2247 8.20811C77.7915 8.4915 78.2166 8.84575 78.5 9.27084C78.7834 9.69593 78.9251 10.1919 78.9251 10.7587C78.9251 11.3255 78.7834 11.8922 78.5 12.459C78.2166 13.0258 77.8624 13.5218 77.4373 13.876C77.0122 14.2303 76.5163 14.4428 76.0203 14.4428C75.5244 14.4428 74.9576 14.3719 74.3908 14.0886ZM74.6742 13.3801C75.0993 13.5926 75.5244 13.6635 75.8786 13.5926C76.2329 13.5218 76.5871 13.3801 76.9414 13.0967C77.2247 12.8133 77.5081 12.459 77.7207 12.0339C77.9332 11.6088 78.0749 11.1129 78.0749 10.7587C78.0749 10.4044 78.0041 9.97933 77.8624 9.62508C77.7207 9.27084 77.3664 8.98745 76.9414 8.7749C76.5163 8.56235 76.0912 8.4915 75.7369 8.56235C75.3827 8.6332 75.0284 8.7749 74.6742 9.05829C74.3908 9.34169 74.1074 9.69593 73.8949 10.121C73.6823 10.5461 73.5406 10.9712 73.5406 11.3963C73.5406 11.8214 73.6115 12.1756 73.824 12.5299C73.9657 12.8841 74.2491 13.1675 74.6742 13.3801Z" fill="#FFFCF3"/>
<path d="M77.4365 15.5764L81.9 11.0421L83.317 12.3882C83.3878 12.459 83.4587 12.5299 83.5295 12.6007C83.6712 12.7424 83.7421 12.8133 83.8129 12.955C84.0963 13.3801 84.3088 13.7343 84.3088 14.2303C84.3088 14.6553 84.238 15.0804 84.0963 15.5764C83.8838 16.0015 83.6004 16.4266 83.2461 16.8517C82.8919 17.2767 82.4668 17.5601 82.0417 17.7727C81.6166 17.9852 81.1915 18.0561 80.6956 18.0561C80.2705 18.0561 79.8454 17.8435 79.4203 17.5601C79.2786 17.4893 79.2077 17.3476 79.066 17.2767C78.9243 17.1351 78.8535 17.0642 78.8535 17.0642L77.4365 15.5764ZM78.4993 15.6472L79.3494 16.4266C79.4203 16.4974 79.4911 16.5683 79.6328 16.71C79.7037 16.7808 79.8454 16.8517 79.9162 16.9225C80.1996 17.1351 80.483 17.2059 80.8373 17.2059C81.1915 17.2059 81.4749 17.1351 81.7583 16.9225C82.0417 16.7808 82.3251 16.4974 82.6085 16.214C82.8919 15.9306 83.1044 15.6472 83.2461 15.293C83.3878 15.0096 83.4587 14.6553 83.4587 14.372C83.4587 14.0886 83.3878 13.7343 83.1753 13.4509C83.1044 13.3801 83.0336 13.2384 82.9627 13.1675C82.8919 13.0967 82.7502 12.955 82.6793 12.8841L81.8291 12.1048L78.4993 15.6472Z" fill="#FFFCF3"/>
<path d="M84.7345 28.1166C84.5928 27.479 84.6636 26.9122 84.8053 26.4162C85.0179 25.9203 85.3013 25.4952 85.7263 25.2118C86.1514 24.8576 86.7182 24.645 87.3559 24.5033C87.9935 24.3616 88.5603 24.3616 89.1271 24.5033C89.6939 24.645 90.119 24.8575 90.4732 25.2826C90.8275 25.6369 91.1108 26.1328 91.1817 26.7705C91.3234 27.479 91.2525 28.1166 90.9691 28.6834C90.6858 29.2502 90.2607 29.6753 89.6939 29.9587L89.3396 29.1793C89.7647 28.9668 90.119 28.6834 90.3315 28.2583C90.5441 27.8332 90.5441 27.4081 90.4732 26.9122C90.4024 26.4162 90.1898 26.062 89.9064 25.7786C89.623 25.4952 89.2688 25.3535 88.9145 25.2826C88.4894 25.2118 88.0644 25.2118 87.5684 25.2826C87.0725 25.3535 86.6474 25.566 86.2931 25.7786C85.9389 25.9911 85.7263 26.2745 85.5847 26.6288C85.443 26.983 85.4429 27.4081 85.5138 27.8332C85.6555 28.3291 85.868 28.7542 86.1514 29.0376C86.4348 29.321 86.9308 29.4627 87.3559 29.4627L87.285 30.3129C86.6474 30.2421 86.0806 30.0295 85.5847 29.6753C85.1596 29.3919 84.8762 28.8959 84.7345 28.1166Z" fill="#FFFCF3"/>
<path d="M85.3018 35.3432L87.9232 34.1387L88.1357 34.9181L85.3018 36.2642V35.3432ZM85.3726 31.5173L91.749 31.659L91.6781 34.2096C91.6781 34.2804 91.6781 34.3513 91.6781 34.4221C91.6781 34.493 91.6781 34.5638 91.6781 34.6347C91.6073 34.9889 91.4656 35.2723 91.3239 35.4849C91.1113 35.6974 90.8988 35.91 90.6154 35.9808C90.332 36.1225 90.0486 36.1225 89.6944 36.1225C89.1984 36.1225 88.7733 35.9808 88.4191 35.6974C88.0649 35.414 87.8523 35.0598 87.7815 34.5638L87.7106 34.2804L87.7815 32.2967L85.4435 32.2258L85.3726 31.5173ZM88.4899 32.3675L88.4191 34.0679C88.4191 34.1387 88.4191 34.2096 88.4191 34.2804C88.4191 34.3513 88.4191 34.4221 88.4191 34.493C88.49 34.7055 88.5608 34.8472 88.6316 34.9889C88.7733 35.1306 88.915 35.2015 89.0567 35.2723C89.1984 35.3432 89.411 35.3432 89.5527 35.3432C89.6944 35.3432 89.9069 35.3432 90.0486 35.2723C90.1903 35.2015 90.4029 35.1306 90.4737 34.9889C90.6154 34.8472 90.6863 34.7055 90.7571 34.493C90.7571 34.4221 90.7571 34.3513 90.828 34.2804C90.828 34.2096 90.828 34.1387 90.828 34.0679L90.8988 32.3675H88.4899Z" fill="#FFFCF3"/>
<path d="M85.1606 36.9727L91.3953 38.1771L90.616 42.1446L89.9075 42.0029L90.5451 38.8147L88.5614 38.4605L88.0654 41.1527L87.3569 41.011L87.8529 38.3188L85.7983 37.8937L85.1606 41.0819L84.4521 40.9402L85.1606 36.9727Z" fill="#FFFCF3"/>
<path d="M84.3093 41.2945L89.623 45.3328L89.2687 46.3956H82.5381L82.8215 45.6162H89.0562L88.9853 45.8288L84.0259 42.0738L84.3093 41.2945ZM85.372 42.7823L86.0805 42.9948L85.0178 46.1122L84.3093 45.8996L85.372 42.7823Z" fill="#FFFCF3"/>
<path d="M81.8303 48.0251L86.9314 50.3631L87.8524 48.3793L88.5609 48.6627L86.4354 53.3387L85.727 53.0553L86.648 51.0716L81.5469 48.7336L81.8303 48.0251Z" fill="#FFFCF3"/>
<path d="M80.199 51.2841L85.796 54.3306L85.4418 55.0391L79.8447 51.9926L80.199 51.2841Z" fill="#FFFCF3"/>
<path d="M78.3588 54.4015L84.8769 56.031L84.4518 56.7395L78.7839 55.3225L82.3972 59.9277L81.9721 60.6361L77.792 55.3933L78.3588 54.4015Z" fill="#FFFCF3"/>
<path d="M76.3014 57.5188L81.3317 61.4155L78.852 64.6037L78.2852 64.1786L80.269 61.628L78.7103 60.4236L77.0099 62.5491L76.4431 62.124L78.1435 59.9985L76.4431 58.7232L74.4594 61.2738L73.8926 60.8487L76.3014 57.5188Z" fill="#FFFCF3"/>
<path d="M65.7471 68.8546L69.7855 73.7431L69.1479 74.2391L65.5346 69.9173L63.2674 71.8302L62.7715 71.2634L65.7471 68.8546Z" fill="#FFFCF3"/>
<path d="M62.346 71.6885L66.1718 76.7896L62.9127 79.1985L62.4876 78.6317L65.1091 76.7188L63.9046 75.1601L61.7083 76.7896L61.2832 76.2229L63.4795 74.5933L62.2043 72.893L59.512 74.6642L59.0869 74.0974L62.346 71.6885Z" fill="#FFFCF3"/>
<path d="M56.892 75.5852L60.0093 80.2612L61.8514 79.0568L62.2765 79.6944L58.0256 82.5284L57.6005 81.8907L59.4425 80.6863L56.3252 76.0103L56.892 75.5852Z" fill="#FFFCF3"/>
<path d="M56.395 81.5365L57.2452 82.8826L56.5367 83.3077L55.6865 81.9616L56.395 81.5365Z" fill="#FFFCF3"/>
<path d="M50.6574 78.9859C51.0824 78.8442 51.5075 78.7734 51.8618 78.8442C52.2869 78.8442 52.5703 78.9859 52.9245 79.1985C53.2079 79.411 53.4913 79.6944 53.7038 80.0487L52.9954 80.4029C52.7828 80.0487 52.4994 79.8361 52.0743 79.6944C51.7201 79.5527 51.295 79.6236 50.8699 79.6944C50.5865 79.7653 50.374 79.907 50.1614 80.0487C49.9489 80.1904 49.8072 80.4029 49.7363 80.6155C49.6655 80.828 49.6655 81.0406 49.7363 81.2531C49.8072 81.3948 49.8072 81.4656 49.9489 81.6073C50.0906 81.749 50.0906 81.749 50.2323 81.8199C50.3031 81.8907 50.4448 81.8907 50.5865 81.8907C50.7282 81.8907 50.7991 81.8907 50.9407 81.8907L52.6411 81.8199C52.8537 81.8199 52.9954 81.8199 53.2079 81.8199C53.4205 81.8199 53.5622 81.8907 53.7038 81.9616C53.8455 82.0324 53.9872 82.1741 54.1289 82.3158C54.2706 82.4575 54.3415 82.6701 54.4123 82.8826C54.554 83.2369 54.554 83.5911 54.4123 83.8745C54.3415 84.1579 54.1289 84.4413 53.8455 84.7247C53.5621 85.0081 53.2079 85.1498 52.8537 85.2915C52.4286 85.4332 52.0743 85.4332 51.7201 85.4332C51.3658 85.3623 51.0116 85.2915 50.7282 85.0789C50.4448 84.8664 50.1614 84.583 50.0197 84.2996L50.799 83.8745C50.9407 84.087 51.0824 84.2996 51.295 84.4413C51.5075 84.583 51.7201 84.6538 52.0035 84.6538C52.2869 84.6538 52.4994 84.6538 52.7828 84.583C53.0662 84.5121 53.2788 84.3704 53.4205 84.2287C53.5622 84.087 53.7038 83.9453 53.7747 83.7328C53.8455 83.5203 53.8455 83.3786 53.7747 83.166C53.7038 82.9535 53.633 82.8826 53.4913 82.7409C53.3496 82.6701 53.2079 82.5992 52.9954 82.5992C52.8537 82.5992 52.6411 82.5992 52.4994 82.5992L51.2241 82.6701C51.0824 82.6701 50.9407 82.6701 50.7282 82.6701C50.5157 82.6701 50.3031 82.5992 50.1614 82.5284C49.9489 82.4575 49.8072 82.3867 49.5946 82.1741C49.4529 82.0324 49.3112 81.8199 49.1695 81.4656C49.0987 81.1822 49.0278 80.8989 49.0987 80.6155C49.1695 80.3321 49.2404 80.1195 49.3821 79.907C49.5238 79.6944 49.7363 79.4819 50.0197 79.3402C50.0906 79.1985 50.374 79.0568 50.6574 78.9859Z" fill="#FFFCF3"/>
<path d="M41.376 77.073L37.8335 82.3158L37.2667 81.8907L38.1169 76.3645L33.2992 79.1985L32.7324 78.7734L36.2749 73.5306L36.8416 73.9557L34.2202 77.7815L38.6129 75.1601L38.9671 75.3727L38.1878 80.4029L40.8092 76.5771L41.376 77.073Z" fill="#FFFCF3"/>
<path d="M35.6367 73.1055L30.0396 76.7896L29.1895 76.0811L31.4566 69.7756L32.0942 70.2716L30.0396 76.152L29.8271 76.0103L34.999 72.6096L35.6367 73.1055ZM33.9363 73.6723L33.5112 74.2391L30.8898 72.1845L31.3149 71.6177L33.9363 73.6723Z" fill="#FFFCF3"/>
<path d="M30.889 69.3505L26.638 74.0974L26.0713 73.6015L28.055 71.4052L23.9458 71.7594L23.2373 71.1218L27.4882 70.7675L27.3465 66.2332L28.1259 66.9417L28.2676 71.2635L30.3222 68.9254L30.889 69.3505Z" fill="#FFFCF3"/>
<path d="M26.9933 65.7373L22.4589 70.1299L19.625 67.2251L20.1918 66.7291L22.4589 69.0671L23.8759 67.6502L21.963 65.6664L22.5298 65.1705L24.4427 67.1542L26.0014 65.6664L23.7342 63.3284L24.301 62.8325L26.9933 65.7373Z" fill="#FFFCF3"/>
<path d="M17.1452 53.2679C17.3577 53.6221 17.4994 54.0472 17.5703 54.4015C17.6411 54.7557 17.5703 55.1808 17.4994 55.535C17.3577 55.8893 17.1452 56.1727 16.8618 56.4561L16.295 55.8184C16.5784 55.535 16.7201 55.1808 16.791 54.7557C16.8618 54.3306 16.7201 53.9764 16.5076 53.6221C16.3659 53.4096 16.1533 53.197 16.0116 53.0553C15.7991 52.9136 15.5865 52.8428 15.374 52.7719C15.1614 52.7719 14.9489 52.7719 14.7363 52.9136C14.5946 52.9845 14.5238 53.0553 14.4529 53.197C14.3821 53.2679 14.3821 53.4096 14.3112 53.4804C14.2404 53.5513 14.3112 53.693 14.3112 53.8347C14.3112 53.9764 14.3112 54.0472 14.3821 54.1889L14.8072 55.8184C14.878 56.031 14.878 56.1727 14.878 56.3852C14.878 56.5978 14.878 56.7395 14.878 56.952C14.8072 57.0937 14.7363 57.3063 14.6655 57.448C14.5238 57.5897 14.3821 57.7314 14.1696 57.8731C13.8153 58.0856 13.5319 58.1564 13.1777 58.0856C12.8234 58.0147 12.54 57.9439 12.2566 57.7314C11.9732 57.5188 11.6898 57.2354 11.4773 56.8812C11.2648 56.5269 11.1231 56.1727 11.0522 55.7476C10.9814 55.3933 11.0522 55.0391 11.1939 54.6849C11.3356 54.3306 11.5481 54.0472 11.8315 53.7638L12.3983 54.4015C12.1858 54.5432 12.0441 54.7557 11.9732 54.9683C11.9024 55.1808 11.9024 55.4642 11.9024 55.6767C11.9024 55.8893 12.0441 56.1727 12.1858 56.3852C12.3275 56.5978 12.4692 56.8103 12.6817 56.952C12.8943 57.0937 13.036 57.1646 13.2485 57.1646C13.4611 57.1646 13.6028 57.1646 13.8153 57.0229C13.957 56.952 14.0987 56.8103 14.0987 56.6686C14.0987 56.5269 14.1696 56.3144 14.0987 56.1727C14.0987 56.031 14.0279 55.8184 14.0279 55.6767L13.6736 54.4723C13.6028 54.3306 13.6028 54.1889 13.5319 53.9764C13.4611 53.7638 13.4611 53.5513 13.5319 53.4096C13.5319 53.197 13.6028 52.9845 13.7445 52.7719C13.8862 52.5594 14.0279 52.4177 14.3112 52.2052C14.5946 52.0635 14.8072 51.9926 15.0906 51.9218C15.374 51.9218 15.5865 51.9218 15.8699 52.0635C16.1533 52.2052 16.3659 52.3469 16.5784 52.5594C16.791 52.7719 17.0035 52.9845 17.1452 53.2679Z" fill="#FFFCF3"/>
<path d="M14.4522 48.1668C14.7356 48.7336 14.8064 49.3004 14.7356 49.7963C14.6647 50.2922 14.4522 50.7882 14.0979 51.2133C13.7437 51.6384 13.2478 51.9926 12.681 52.276C12.1142 52.5594 11.5474 52.7011 10.9806 52.7011C10.4138 52.7011 9.91787 52.5594 9.49277 52.276C9.06768 51.9926 8.71344 51.5675 8.43004 51.0007C8.14665 50.4339 8.0758 49.8672 8.14665 49.3712C8.2175 48.8753 8.43004 48.3793 8.78429 47.9542C9.13853 47.5292 9.63447 47.1749 10.2013 46.8915C10.768 46.6081 11.3348 46.4664 11.9016 46.4664C12.4684 46.4664 12.9644 46.6081 13.3895 46.8915C13.8854 47.1749 14.2396 47.6 14.4522 48.1668ZM13.8145 48.521C13.602 48.0959 13.3895 47.7417 13.0352 47.6C12.681 47.4583 12.3267 47.3166 11.9016 47.3166C11.4765 47.3166 11.0514 47.4583 10.5555 47.6708C10.0596 47.8834 9.70532 48.1668 9.42192 48.4502C9.13853 48.7336 8.99683 49.0878 8.92598 49.4421C8.85513 49.7963 8.92598 50.2214 9.13853 50.6465C9.35108 51.0716 9.56362 51.4258 9.91787 51.5675C10.2721 51.7801 10.6264 51.8509 11.0514 51.8509C11.4765 51.8509 11.9016 51.7092 12.3976 51.4967C12.8935 51.2841 13.2478 51.0007 13.5311 50.7173C13.8145 50.4339 13.9562 50.0797 14.0271 49.7255C14.0979 49.3712 14.0271 48.9461 13.8145 48.521Z" fill="#FFFCF3"/>
<path d="M12.8925 44.9077L6.79954 46.6081L6.58699 45.8996L10.7671 42.2155L5.24087 41.2944L5.02832 40.586L11.1213 38.8856L11.3339 39.5941L6.87039 40.8694L11.9006 41.7195L12.0423 42.1446L8.14566 45.4745L12.6091 44.1992L12.8925 44.9077Z" fill="#FFFCF3"/>
<path d="M11.0519 37.8937L4.74638 38.5313L4.32129 34.493L5.02978 34.4221L5.38402 37.6812L7.36778 37.4686L7.08439 34.7764L7.79288 34.7055L8.07627 37.3978L10.2017 37.1852L9.91834 33.9262L10.6268 33.8553L11.0519 37.8937Z" fill="#FFFCF3"/>
<path d="M10.7685 31.4465L5.17147 31.0922L5.02978 33.2885L4.32129 33.2177L4.67553 28.0457L5.38402 28.1166L5.24232 30.3129L10.8394 30.6671L10.7685 31.4465Z" fill="#FFFCF3"/>
<path d="M10.9817 28.0457L4.88867 26.3454L5.10122 25.566L7.79347 26.3454L8.7145 23.0863L6.02225 22.307L6.2348 21.5277L12.3278 23.228L12.1152 24.0074L9.42299 23.228L8.50196 26.5579L11.1942 27.3373L10.9817 28.0457Z" fill="#FFFCF3"/>
<path d="M12.895 22.3778L7.15625 19.6147L7.51049 18.9062L13.2492 21.6694L12.895 22.3778Z" fill="#FFFCF3"/>
<path d="M13.6001 20.6775L8.49902 16.8516L8.99496 16.214L14.9463 16.5682L10.9787 13.5926L11.4747 12.955L16.5049 16.7808L16.009 17.4184L10.0577 17.0642L14.0252 20.0398L13.6001 20.6775Z" fill="#FFFCF3"/>
<path d="M19.3419 14.8679C18.9876 15.0804 18.6334 15.293 18.2083 15.3638C17.8541 15.4347 17.429 15.4347 17.0747 15.293C16.7205 15.1513 16.3662 15.0096 16.012 14.7262C15.6578 14.4428 15.3744 14.0885 15.091 13.6635C14.7367 13.0967 14.5242 12.5299 14.4533 11.9631C14.3825 11.3963 14.4533 10.9004 14.6659 10.4753C14.8784 10.0502 15.2327 9.62507 15.7286 9.27083C16.2954 8.84574 16.933 8.70404 17.429 8.70404C17.9958 8.77489 18.4917 8.98744 18.9168 9.34168L18.35 9.90847C17.9958 9.62507 17.6415 9.55423 17.2873 9.48338C16.933 9.48338 16.5079 9.55423 16.1537 9.83762C15.7286 10.121 15.4452 10.4044 15.3035 10.7587C15.1618 11.1129 15.091 11.4671 15.2327 11.8922C15.3035 12.3173 15.5161 12.7424 15.7286 13.1675C16.012 13.5926 16.2954 13.9468 16.6496 14.1594C17.0039 14.3719 17.3581 14.5136 17.7124 14.5136C18.0666 14.5136 18.4917 14.3719 18.9168 14.1594C19.271 13.9468 19.4836 13.6635 19.6253 13.3801C19.767 13.0967 19.8378 12.8133 19.767 12.459C19.6961 12.1048 19.6253 11.7505 19.4127 11.3963L18.2792 12.1756L17.9249 11.6088L19.767 10.4044C19.8378 10.4753 19.8378 10.4753 19.9087 10.5461C19.9795 10.617 19.9795 10.6878 19.9795 10.6878C20.2629 11.1837 20.4755 11.6797 20.5463 12.1756C20.6172 12.6716 20.5463 13.1675 20.3338 13.5926C20.1212 14.0177 19.8378 14.5136 19.3419 14.8679Z" fill="#FFFCF3"/>
<path d="M32.8018 12.3882C32.3767 12.3173 31.9517 12.1756 31.6683 11.9631C31.3849 11.7505 31.0306 11.4671 30.8181 11.1838C30.6055 10.8295 30.4638 10.4753 30.393 10.0502C30.3221 9.62508 30.3221 9.12914 30.393 8.6332C30.4638 7.99556 30.6764 7.42877 31.0306 6.93283C31.3849 6.43689 31.7391 6.1535 32.235 5.94095C32.731 5.7284 33.2269 5.65756 33.8646 5.7284C34.5731 5.79925 35.1398 6.08265 35.4941 6.43689C35.8483 6.79113 36.1317 7.28708 36.2026 7.92471L35.4232 7.99556C35.3524 7.57047 35.1398 7.28708 34.9273 7.00368C34.4314 6.86198 34.0771 6.64944 33.652 6.64944C33.1561 6.57859 32.8018 6.64944 32.4476 6.79113C32.0933 6.93283 31.81 7.21623 31.5974 7.57047C31.3849 7.92471 31.2432 8.34981 31.1723 8.84575C31.1015 9.34169 31.1015 9.76678 31.2432 10.1919C31.314 10.617 31.5266 10.9004 31.81 11.1838C32.0933 11.4671 32.4476 11.6088 32.9435 11.6797C33.3686 11.7505 33.7229 11.6797 34.0063 11.6088C34.2897 11.538 34.5731 11.3255 34.7147 11.0421C34.9273 10.7587 35.069 10.4044 35.1398 9.97933L33.7937 9.76678L33.8646 9.12914L36.0609 9.41254C36.0609 9.48338 36.0609 9.55423 36.0609 9.62508C36.0609 9.69593 36.0609 9.76678 36.0609 9.76678C35.99 10.3336 35.7775 10.8295 35.4941 11.2546C35.2107 11.6797 34.8564 11.9631 34.3605 12.1756C33.9354 12.459 33.3686 12.5299 32.8018 12.3882Z" fill="#FFFCF3"/>
<path d="M38.612 13.876C38.0452 13.6635 37.5493 13.3092 37.2659 12.8841C36.9825 12.459 36.7699 11.9631 36.6991 11.4671C36.6282 10.9004 36.7699 10.3336 36.9825 9.69593C37.195 9.05829 37.5493 8.56235 37.9035 8.2081C38.3286 7.85386 38.7537 7.57047 39.2496 7.49962C39.7456 7.42877 40.3124 7.42877 40.8792 7.64132C41.446 7.85386 41.9419 8.20811 42.2253 8.6332C42.5087 9.05829 42.7212 9.55423 42.7921 10.0502C42.8629 10.617 42.7212 11.1838 42.5087 11.8214C42.2961 12.459 41.9419 12.955 41.5877 13.3092C41.2334 13.6635 40.7375 13.9469 40.2415 14.0177C39.7456 14.1594 39.1788 14.0885 38.612 13.876ZM38.8954 13.1675C39.3205 13.3092 39.7456 13.3801 40.0998 13.3092C40.4541 13.2384 40.8083 13.0258 41.0917 12.7424C41.3751 12.459 41.5877 12.0339 41.8002 11.6088C42.0127 11.1129 42.0836 10.6878 42.0127 10.2627C42.0127 9.83763 41.871 9.48338 41.6585 9.19999C41.446 8.91659 41.0917 8.6332 40.6666 8.4915C40.2415 8.3498 39.8164 8.27895 39.4622 8.3498C39.108 8.42065 38.7537 8.6332 38.4703 8.91659C38.1869 9.19999 37.9744 9.62508 37.7618 10.121C37.5493 10.617 37.4784 11.0421 37.5493 11.4671C37.5493 11.8922 37.691 12.2465 37.9035 12.5299C38.1161 12.8133 38.3995 13.0258 38.8954 13.1675Z" fill="#FFFCF3"/>
<path d="M43.8554 16.71C43.3594 16.3557 43.0052 15.8598 42.7927 15.3638C42.5801 14.8679 42.5801 14.3719 42.7218 13.8052C42.8635 13.2384 43.076 12.7424 43.5011 12.2465C43.9262 11.7505 44.3513 11.3255 44.8473 11.1129C45.3432 10.9004 45.8391 10.7587 46.3351 10.8295C46.831 10.9004 47.3978 11.1129 47.8938 11.4671C48.3897 11.8922 48.7439 12.3173 48.9565 12.8133C49.169 13.3092 49.169 13.8052 49.0273 14.3719C48.8856 14.9387 48.6731 15.4347 48.248 15.9306C47.8229 16.4266 47.3978 16.8517 46.9019 17.0642C46.4059 17.3476 45.91 17.4184 45.4141 17.3476C44.8473 17.3476 44.3513 17.135 43.8554 16.71ZM44.2805 16.1432C44.6347 16.4266 45.0598 16.5683 45.4141 16.6391C45.7683 16.71 46.1934 16.5683 46.5476 16.3557C46.9019 16.1432 47.2561 15.8598 47.5395 15.4347C47.8229 15.0096 48.0355 14.6553 48.1772 14.2302C48.3189 13.8052 48.248 13.4509 48.1772 13.0967C48.0355 12.7424 47.8229 12.3882 47.3978 12.1048C47.0436 11.8214 46.6185 11.6797 46.2642 11.6088C45.91 11.6088 45.4849 11.6797 45.1307 11.8922C44.7764 12.1048 44.4222 12.3882 44.1388 12.8133C43.8554 13.2384 43.6428 13.5926 43.5011 14.0177C43.3594 14.4428 43.4303 14.797 43.5011 15.1513C43.572 15.5055 43.9262 15.8598 44.2805 16.1432Z" fill="#FFFCF3"/>
<path d="M46.4746 18.7646L51.93 15.5055L52.9218 17.2059C52.9218 17.2767 52.9927 17.3476 53.0635 17.4893C53.1344 17.631 53.2052 17.7727 53.2761 17.9144C53.4886 18.3395 53.5595 18.8354 53.4886 19.2605C53.4178 19.6856 53.2052 20.1107 52.9218 20.4649C52.6384 20.8192 52.2134 21.1734 51.7883 21.4568C51.2923 21.7402 50.8672 21.9528 50.3713 22.0236C49.8753 22.0945 49.4503 22.0945 49.0252 21.9528C48.6001 21.8111 48.2458 21.5277 47.8916 21.1734C47.8207 21.0317 47.679 20.9609 47.6082 20.8192C47.5373 20.6775 47.4665 20.6066 47.3956 20.5358L46.4746 18.7646ZM47.5373 19.1188L48.175 20.1107C48.2458 20.1815 48.3167 20.3232 48.3875 20.3941C48.4584 20.5358 48.5292 20.6066 48.6001 20.6775C48.8126 20.9609 49.096 21.1026 49.3794 21.1734C49.6628 21.2443 50.017 21.2443 50.3713 21.1734C50.7255 21.1026 51.0798 20.9609 51.3632 20.7483C51.7174 20.5358 52.0008 20.3232 52.2134 20.0398C52.4259 19.7564 52.6384 19.4731 52.7093 19.1897C52.7801 18.9063 52.7801 18.552 52.6385 18.2686C52.5676 18.1978 52.5676 18.0561 52.4967 17.9144C52.4259 17.7727 52.3551 17.7018 52.2842 17.5601L51.7174 16.5683L47.5373 19.1188Z" fill="#FFFCF3"/>
<path d="M50.2316 30.3129L56.5372 30.738L56.4663 31.5173L50.8693 31.1631L50.6567 34.1387L49.9482 34.0679L50.2316 30.3129Z" fill="#FFFCF3"/>
<path d="M48.6729 34.6347C49.2397 34.3513 49.8065 34.2096 50.3024 34.2096C50.7984 34.2804 51.2943 34.4221 51.7194 34.7764C52.1445 35.1306 52.4988 35.5557 52.853 36.1225C53.1364 36.6893 53.3489 37.2561 53.3489 37.8229C53.3489 38.3897 53.2781 38.8856 52.9947 39.3107C52.7113 39.7358 52.3571 40.1609 51.7903 40.4443C51.2235 40.7277 50.6567 40.8694 50.1608 40.8694C49.6648 40.7985 49.1689 40.6568 48.7438 40.3026C48.3187 39.9483 47.9644 39.5232 47.6102 38.9565C47.3268 38.3897 47.1143 37.8229 47.1143 37.2561C47.1143 36.6893 47.1851 36.1934 47.4685 35.7683C47.681 35.3432 48.1061 34.9889 48.6729 34.6347ZM49.0272 35.3432C48.6021 35.5557 48.3187 35.8391 48.1061 36.1934C47.8936 36.5476 47.8936 36.9018 47.8936 37.3269C47.9644 37.752 48.1061 38.1771 48.3187 38.6022C48.5312 39.0273 48.8146 39.3815 49.1689 39.6649C49.5231 39.9483 49.8065 40.09 50.2316 40.09C50.6567 40.09 51.0109 40.0192 51.436 39.8066C51.8611 39.5941 52.1445 39.3107 52.3571 38.9565C52.4988 38.6022 52.5696 38.248 52.5696 37.8229C52.5696 37.3978 52.3571 36.9727 52.1445 36.5476C51.932 36.1225 51.6486 35.7683 51.2943 35.4849C50.9401 35.2015 50.5858 35.0598 50.2316 35.0598C49.8065 34.9889 49.4523 35.1306 49.0272 35.3432Z" fill="#FFFCF3"/>
<path d="M46.1912 33.5011L40.7359 37.3978L40.5233 36.6184L45.2702 33.2885L39.4606 33.076L39.248 32.2967L45.9787 32.5092L46.1912 33.5011Z" fill="#FFFCF3"/>
<path d="M45.6952 30.3129L39.3896 29.6752L39.8147 25.6369L40.5232 25.7077L40.169 28.9668L42.1527 29.1793L42.4361 26.4871L43.1446 26.5579L42.8612 29.2502L44.9867 29.4627L45.3409 26.2037L46.0494 26.2745L45.6952 30.3129Z" fill="#FFFCF3"/>
</g>
<defs>
<clipPath id="clip0_558_3699">
<rect width="96" height="91.1114" fill="white" transform="translate(0 0.981544)"/>
</clipPath>
</defs>
</svg>
